<svg xmlns="http://www.w3.org/2000/svg" viewBox="0 0 330.2 303.6">
  <defs>
    <clipPath id="a">
      <path fill="none" d="M228.3.07a78 78 0 0 0-2.65.14 72.01 72.01 0 0 0-23.3 5.7c-55.3 23.96-59.72 39-111.27 37.14C24.46 40.65.22 80.63 0 128.22v1.32c.22 47.13 23.69 101.36 52.73 129.21 58.72 56.32 173.76 29.96 232.57 0s15.48-101.86 31.05-162.97C329.27 45 280.18 0 231.48 0q-1.6 0-3.19.07" />
    </clipPath>
  </defs>
  <path fill="#e6ebf0" d="M52.73 268.43c58.72 56.33 173.76 29.96 232.57 0s15.48-101.85 31.05-162.97C329.55 53.57 278 7.72 228.29 9.75c-.88.03-1.76.08-2.64.15a72.04 72.04 0 0 0-23.3 5.69c-55.3 23.97-59.72 39.01-111.27 37.15C-41.94 47.94-6 212.1 52.73 268.44" />
  <path fill="#e6ebf0" d="M52.73 268.43c58.72 56.33 173.76 29.96 232.57 0s15.48-101.85 31.05-162.97C329.55 53.57 278 7.72 228.29 9.75c-.88.03-1.76.08-2.64.15a72.04 72.04 0 0 0-23.3 5.69c-55.3 23.97-59.72 39.01-111.27 37.15C-41.94 47.94-6 212.1 52.73 268.44" />
  <path fill="#e6ebf0" d="M94 30.6a5.01 5.01 0 0 0 3.83 5.53 66.86 66.86 0 0 0 64.3-19.85c28.8-30.4-64.5-13.92-68.13 14.31" />
  <path d="M20.02 301.54h275.01v2.08H20.02z" />
  <g clip-path="url(#a)" transform="translate(0 9.683)">
    <path fill="#aab6c2" d="m22.71 52.57-4.11-.03-.04-8.07h-1.5l.04 8.07-4.12-.03.03 12.67 4.11.02.08 7.3h1.5l-.08-7.29 4.12.03Z" />
    <path fill="#c6d0db" d="m50.04 49.51-4.12-.02-.03-5.6-1.5-.02.03 5.61-4.12-.02.17 33.17 4.12.02.06 12.18h1.5l-.06-12.17 4.12.03ZM77.6 91.86l-4.13-.02-.03-6.43-1.5-.01.03 6.43-4.11-.03.1 18.81 4.11.02.08 16.3 1.5.01-.08-16.3 4.12.03Z" />
    <path fill="#aab6c2" d="m104.87 62.67-4.12-.03-.03-6.95h-1.5l.03 6.95-4.11-.03.19 38.13 4.12.02.07 14.35 1.5.01-.07-14.35 4.11.02Z" />
    <path fill="#c6d0db" d="m132.27 75.53-4.12-.02-.06-11.66-1.5-.01.06 11.66-4.12-.02.09 16.48 4.12.02.04 8.53h1.5l-.04-8.51 4.12.02Z" />
    <path fill="#c6d0db" d="m186.94 69.35-4.12-.02-.04-7.85h-1.5l.04 7.84-4.11-.02.17 35.13 4.12.03.05 9.86 1.5.01-.05-9.87 4.12.03Z" />
    <path fill="#aab6c2" d="m214.14 55.63-4.12-.03-.04-8.52h-1.5l.04 8.52-4.11-.03.14 27.06 4.11.03.05 8.97h1.5l-.05-8.97 4.12.03Z" />
    <path fill="#c6d0db" d="m241.26 19.12-4.12-.02-.03-6.28-1.5-.01.03 6.28-4.12-.02.24 46.74 4.12.02.05 11.59h1.5l-.06-11.58 4.12.02Z" />
    <path fill="#aab6c2" d="m268.68 35.18-4.12-.03-.05-9.64h-1.5l.05 9.63-4.12-.02.13 24.45 4.11.02.03 4.7 1.5.02-.03-4.71 4.12.02Zm27.3-6.2-4.11-.02-.02-2.92h-1.5l.02 2.91-4.12-.02.2 39.1 4.12.02.05 9.8h1.5l-.05-9.79 4.11.02Z" />
  </g>
  <path fill="#aab6c2" d="M176.06 190.96h36.64V293.9h-36.64z" />
  <path d="M176.06 237.4h36.64v17.2h-36.64zm71.73 64.11c-2.77-6.85-28.56-12.22-59.98-12.22s-57.22 5.37-59.98 12.22Z" />
  <path d="M69.81 102.69v130.13a14.92 14.92 0 0 0 14.93 14.92h230.52a14.93 14.93 0 0 0 14.93-14.93V102.69a14.9 14.9 0 0 0-14.93-14.92H84.74l-.9.03a14.93 14.93 0 0 0-14.03 14.9" />
  <path fill="#aab6c2" d="M60.38 102.69v130.13a14.96 14.96 0 0 0 14.93 14.93H306.1a14.92 14.92 0 0 0 14.67-14.94V102.69a14.93 14.93 0 0 0-14.93-14.92H75.31a13.8 13.8 0 0 0-1.1.04 14.93 14.93 0 0 0-13.83 14.89" />
  <rect width="239.286" height="142.44" fill="#fff" rx="9.137" transform="translate(70.942 96.532)" />
  <path d="M296.99 96.9a12.9 12.9 0 0 1 12.88 12.87v115.96a12.9 12.9 0 0 1-12.88 12.88H84.2a12.9 12.9 0 0 1-12.89-12.88V109.77A12.9 12.9 0 0 1 84.18 96.9Zm0-.73H84.19a13.6 13.6 0 0 0-13.6 13.6v115.96a13.6 13.6 0 0 0 13.6 13.6h212.8a13.6 13.6 0 0 0 13.6-13.6V109.77a13.6 13.6 0 0 0-13.6-13.6" />
  <path fill="#f40" d="m94.1 194.72-1.35-.82 22.02-16.88 22.86 10.55 20-21.8 43.67 15.09 20.68-28.58 21.4 8.77 43.2-47.55 1.53.66-44.13 48.57-21.25-8.7-20.62 28.5-43.82-15.16-20.13 21.94-23.09-10.66Zm-4.5 11.12h7.65v22.75H89.6z" />
  <path d="M111.1 195.86h7.65v32.73h-7.65z" />
  <path fill="#f40" d="M132.6 201.12h7.65v27.47h-7.66z" />
  <path d="M154.1 181.72h7.64v46.87h-7.65z" />
  <path fill="#f40" d="M175.59 188.44h7.65v40.15h-7.65zm21.5 5.33h7.65v34.82h-7.65z" />
  <path d="M218.59 172.4h7.65v56.19h-7.65z" />
  <path fill="#f40" d="M240.08 175.68h7.65v52.9h-7.65z" />
  <path d="M261.58 156.06h7.65v72.53h-7.65z" />
  <path fill="#f40" d="M283.08 130.94h7.65v97.65h-7.65zm8.48-16.96a4.21 4.21 0 1 1-4.22-4.21 4.22 4.22 0 0 1 4.22 4.21M246.99 162a2.9 2.9 0 1 1-2.91-2.9 2.9 2.9 0 0 1 2.9 2.9m-21.67-9.12a2.9 2.9 0 1 1-2.9-2.9 2.9 2.9 0 0 1 2.9 2.9m-20.55 28.44a2.9 2.9 0 1 1-2.9-2.9 2.9 2.9 0 0 1 2.9 2.9m-43.46-14.49a2.9 2.9 0 1 1-2.91-2.9 2.9 2.9 0 0 1 2.9 2.9M141 188.44a2.9 2.9 0 1 1-2.9-2.9 2.9 2.9 0 0 1 2.9 2.9m-23.17-10.41a2.9 2.9 0 1 1-2.9-2.9 2.9 2.9 0 0 1 2.9 2.9" />
  <path d="M91 111.25v2.12h67.31l.08-2.12Zm0 6.37v2.12h121.62l.08-2.11Zm0 6.38v2.12h112.92l.07-2.12Zm74.35-10.63h20.78l.08-2.12h-20.78ZM91 129.96v2.12h67.31l.08-2.12Zm0 6.38v2.11h121.62l.08-2.11Zm0 6.37v2.12h112.92l.07-2.12Zm74.35-10.63h20.78l.08-2.12h-20.78Z" />
  <path fill="#f40" d="M228.75 300.01a1.2 1.2 0 0 0 1.2 1.21l8.6.03 39.97.12a1.2 1.2 0 0 0 1.2-1.2l.02-4.35a1.2 1.2 0 0 0-1.2-1.2l-4.16-.02-35.72-.1-8.7-.03a1.24 1.24 0 0 0-.44.08 1.2 1.2 0 0 0-.76 1.11Z" />
  <path d="M229.94 301.43a1.43 1.43 0 0 1-1.4-1.42l.01-4.34a1.42 1.42 0 0 1 .9-1.32 1.45 1.45 0 0 1 .52-.1l48.58.15a1.42 1.42 0 0 1 1.4 1.42l-.01 4.35a1.42 1.42 0 0 1-1.42 1.41Zm-.34-6.68a.99.99 0 0 0-.62.92l-.02 4.34a1 1 0 0 0 .98 1l48.58.15a.99.99 0 0 0 1-.99v-4.35a1 1 0 0 0-.98-.99l-48.57-.15a1.02 1.02 0 0 0-.36.07" />
  <path fill="#f40" d="M224.16 293.34a1.2 1.2 0 0 0 1.2 1.2h4.16l8.99.04 35.42.11a1.16 1.16 0 0 0 .45-.09 1.2 1.2 0 0 0 .76-1.1v-4.36a1.2 1.2 0 0 0-1.2-1.2l-32.26-.1-16.3-.05a1.2 1.2 0 0 0-1.2 1.2Z" />
  <path d="M225.35 294.75a1.42 1.42 0 0 1-1.4-1.41l.01-4.35a1.4 1.4 0 0 1 .42-1 1.43 1.43 0 0 1 1-.4l48.56.14a1.41 1.41 0 0 1 1.42 1.42l-.02 4.35a1.4 1.4 0 0 1-.88 1.3 1.35 1.35 0 0 1-.53.1Zm-.67-6.46a.98.98 0 0 0-.3.7v4.35a.99.99 0 0 0 .98.99l48.57.15a.97.97 0 0 0 .37-.07.98.98 0 0 0 .62-.91v-4.36a.96.96 0 0 0-.28-.7.98.98 0 0 0-.7-.29l-48.57-.15a.97.97 0 0 0-.7.29" />
  <path fill="#f40" d="M227.38 286.59a1.2 1.2 0 0 0 1.2 1.2l13.11.05c0-.01 0 0 0 0l35.45.1a1.2 1.2 0 0 0 1.2-1.2l.02-4.34a1.2 1.2 0 0 0-.81-1.14 1.16 1.16 0 0 0-.39-.07l-28.7-.1-16.71-.04-3.15-.01a1.2 1.2 0 0 0-1.2 1.2Z" />
  <path d="M228.57 288.01a1.41 1.41 0 0 1-1-.42 1.4 1.4 0 0 1-.4-1v-4.35a1.43 1.43 0 0 1 1.43-1.4l48.56.14a1.33 1.33 0 0 1 .46.08 1.4 1.4 0 0 1 .96 1.34l-.01 4.35a1.43 1.43 0 0 1-1.43 1.4Zm-.97-5.77-.01 4.35a1 1 0 0 0 .99 1l13.03.04.04-.04.1.04 35.4.1a1 1 0 0 0 1-.98v-4.35a.98.98 0 0 0-.66-.94.96.96 0 0 0-.32-.05l-48.57-.15a1 1 0 0 0-1 .98" />
  <path fill="#f40" d="M228.75 259.73a1.2 1.2 0 0 0 1.2 1.2l8.6.04 39.97.12a1.2 1.2 0 0 0 1.2-1.2l.02-4.35a1.2 1.2 0 0 0-1.2-1.2l-4.16-.01-35.72-.12-8.7-.02a1.2 1.2 0 0 0-1.2 1.2Z" />
  <path d="M229.94 261.15a1.42 1.42 0 0 1-1.4-1.42l.01-4.35a1.42 1.42 0 0 1 .9-1.3 1.45 1.45 0 0 1 .52-.1l48.58.14a1.42 1.42 0 0 1 1.4 1.42l-.01 4.35a1.42 1.42 0 0 1-1.42 1.41Zm-.34-6.68a.99.99 0 0 0-.62.92l-.02 4.34a1 1 0 0 0 .98 1l48.58.14a.99.99 0 0 0 .99-.98l.01-4.35a1 1 0 0 0-.98-1l-48.57-.14a1.02 1.02 0 0 0-.37.07" />
  <path fill="#f40" d="M230.93 279.91a1.2 1.2 0 0 0 .82 1.14 1.14 1.14 0 0 0 .38.07l16.23.05 29.19.09 3.15.01a1.2 1.2 0 0 0 1.2-1.2l.02-4.35a1.2 1.2 0 0 0-1.2-1.2l-6.53-.02-29.44-.1c0 .02 0 0 0 0l-12.6-.03a1.15 1.15 0 0 0-.26.03 1.2 1.2 0 0 0-.94 1.17Z" />
  <path d="M232.13 281.33a1.4 1.4 0 0 1-1.4-1.42v-4.34a1.41 1.41 0 0 1 1.1-1.38 1.33 1.33 0 0 1 .32-.04l12.39.04 36.18.11a1.42 1.42 0 0 1 1.41 1.42l-.01 4.35a1.42 1.42 0 0 1-1.42 1.41Zm12.57-6.67-.04-.04-12.5-.04a.9.9 0 0 0-.22.03.99.99 0 0 0-.77.96l-.02 4.34a.99.99 0 0 0 .98 1l48.58.14a.99.99 0 0 0 .99-.98l.01-4.35a.99.99 0 0 0-.98-1l-35.93-.1Z" />
  <path fill="#f40" d="M224.16 273.18a1.2 1.2 0 0 0 1.2 1.2l6.53.02 12.8.03 29.24.1a1.06 1.06 0 0 0 .26-.04 1.2 1.2 0 0 0 .94-1.16l.01-4.35a1.19 1.19 0 0 0-.9-1.17.96.96 0 0 0-.3-.04l-27.7-.08-20.86-.06a1.26 1.26 0 0 0-.3.03 1.2 1.2 0 0 0-.9 1.16Z" />
  <path d="M225.35 274.6a1.42 1.42 0 0 1-1.4-1.42l.01-4.35a1.4 1.4 0 0 1 1.06-1.37 1.36 1.36 0 0 1 .36-.04l48.56.15a1.22 1.22 0 0 1 .34.04 1.4 1.4 0 0 1 1.07 1.37v4.36a1.42 1.42 0 0 1-1.1 1.36 1.34 1.34 0 0 1-.32.04Zm-.23-6.73a.98.98 0 0 0-.73.96l-.02 4.35a.99.99 0 0 0 .99.99l48.57.14a.95.95 0 0 0 .22-.02.99.99 0 0 0 .77-.96v-4.35a.97.97 0 0 0-.75-.96.8.8 0 0 0-.23-.03l-48.56-.15a.99.99 0 0 0-.26.03" />
  <path fill="#f40" d="M224.16 266.5a1.2 1.2 0 0 0 .9 1.17 1.01 1.01 0 0 0 .3.03l20.74.07 27.83.08a1.13 1.13 0 0 0 .3-.04 1.2 1.2 0 0 0 .9-1.16v-4.34a1.2 1.2 0 0 0-1.2-1.2l-5.18-.02-16.6-.05-26.78-.09a1.09 1.09 0 0 0-.18.02 1.2 1.2 0 0 0-1.02 1.18Z" />
  <path d="M225.35 267.92a1.15 1.15 0 0 1-.33-.04 1.4 1.4 0 0 1-1.08-1.38l.02-4.35a1.42 1.42 0 0 1 1.2-1.4 1.26 1.26 0 0 1 .22-.01l48.56.15a1.41 1.41 0 0 1 1.42 1.42l-.02 4.35a1.42 1.42 0 0 1-1.05 1.36 1.36 1.36 0 0 1-.36.05Zm-.13-6.74a1 1 0 0 0-.83.97l-.02 4.35a.98.98 0 0 0 .76.96.75.75 0 0 0 .23.03l48.57.15a.87.87 0 0 0 .25-.03.99.99 0 0 0 .74-.95v-4.35a.98.98 0 0 0-.98-.99l-48.57-.15a.9.9 0 0 0-.15 0" />
  <path fill="#191e3f" d="M191.44 294.52a1.2 1.2 0 0 1-.66-1.15l.01-4.35a1.41 1.41 0 0 1 1.42-1.4h2.02a1.4 1.4 0 0 1-.4-1v-4.37a1.42 1.42 0 0 1 1.42-1.4l5.72.01a1.4 1.4 0 0 1-.4-.98l.01-4.35a1.41 1.41 0 0 1 1.42-1.4l48.57.14a1.41 1.41 0 0 1 1.4 1.42v4.35a1.42 1.42 0 0 1-1.42 1.41l-5.72-.02a1.41 1.41 0 0 1 .4 1l-.02 4.34a1.42 1.42 0 0 1-1.4 1.4h-2.03a1.4 1.4 0 0 1 .41 1v4.34a1.39 1.39 0 0 1-.66 1.16 1.3 1.3 0 0 1 .25.17 1.4 1.4 0 0 1 .41 1v4.36a1.42 1.42 0 0 1-1.42 1.4l-48.59-.14a1.41 1.41 0 0 1-1.4-1.43l.01-4.35a1.39 1.39 0 0 1 .65-1.15" opacity=".15" />
  <path fill="#f40" d="m186.09 301.24 48.57.15a1.2 1.2 0 0 0 1.2-1.2l.02-4.35a1.2 1.2 0 0 0-1.2-1.2l-48.57-.16a1.2 1.2 0 0 0-1.2 1.2l-.01 4.35a1.2 1.2 0 0 0 1.2 1.2" />
  <path d="m234.66 301.6-48.57-.15a1.41 1.41 0 0 1-1.41-1.42l.01-4.35a1.42 1.42 0 0 1 1.42-1.4l48.57.14a1.42 1.42 0 0 1 1.41 1.42l-.01 4.35a1.42 1.42 0 0 1-1.42 1.4Zm-49.54-5.92-.01 4.35a.99.99 0 0 0 .98 1l48.57.14a.99.99 0 0 0 .99-.98l.01-4.35a.99.99 0 0 0-.98-1l-48.57-.14a.99.99 0 0 0-.99.98" />
  <path fill="#f40" d="m195.89 281.09 48.57.15a1.2 1.2 0 0 0 1.2-1.2l.01-4.35a1.2 1.2 0 0 0-1.2-1.2l-48.57-.15a1.2 1.2 0 0 0-1.2 1.2l-.01 4.35a1.2 1.2 0 0 0 1.2 1.2" />
  <path d="m244.46 281.45-48.57-.15a1.42 1.42 0 0 1-1.41-1.42l.01-4.35a1.41 1.41 0 0 1 1.41-1.4l48.58.14a1.42 1.42 0 0 1 1.4 1.42v4.35a1.42 1.42 0 0 1-1.42 1.41Zm-49.25-6.62a.97.97 0 0 0-.3.7v4.35a.99.99 0 0 0 .98 1l48.57.14a.99.99 0 0 0 .98-.98l.02-4.35a.99.99 0 0 0-.3-.7.98.98 0 0 0-.68-.29l-48.58-.15a.97.97 0 0 0-.7.29" />
  <path fill="#f40" d="m186.09 294.56 48.57.15a1.2 1.2 0 0 0 1.2-1.2l.02-4.35a1.2 1.2 0 0 0-1.2-1.2l-48.57-.15a1.2 1.2 0 0 0-1.2 1.2l-.01 4.35a1.2 1.2 0 0 0 1.2 1.2" />
  <path d="m234.66 294.93-48.57-.15a1.41 1.41 0 0 1-1.41-1.42l.01-4.35a1.42 1.42 0 0 1 .42-1 1.4 1.4 0 0 1 1-.41l48.57.14a1.42 1.42 0 0 1 1.41 1.42l-.01 4.35a1.42 1.42 0 0 1-1.42 1.41Zm-49.25-6.62a.98.98 0 0 0-.29.7l-.01 4.35a.99.99 0 0 0 .98.99l48.57.15a.99.99 0 0 0 1-.99v-4.35a.99.99 0 0 0-.98-.99l-48.57-.15a.98.98 0 0 0-.7.29" />
  <path fill="#f40" d="m189.13 287.81 48.57.15a1.2 1.2 0 0 0 1.2-1.2l.02-4.35a1.2 1.2 0 0 0-1.2-1.2l-48.57-.15a1.2 1.2 0 0 0-1.2 1.2l-.02 4.35a1.2 1.2 0 0 0 1.2 1.2" />
  <path d="m237.7 288.17-48.57-.15a1.41 1.41 0 0 1-1.41-1.41v-4.35a1.41 1.41 0 0 1 1.42-1.41l48.58.14a1.42 1.42 0 0 1 1.4 1.42v4.35a1.42 1.42 0 0 1-1.42 1.41Zm-49.54-5.91-.02 4.35a.99.99 0 0 0 .99.99l48.57.15a1 1 0 0 0 .99-.99l.01-4.35a.99.99 0 0 0-.98-.99l-48.57-.15a1 1 0 0 0-1 .99m99.67 14.84c6.55-6.09 8.12-17.4 3.22-27.64-4.88-10.15-14.6-16-23.4-14.8l-.33-.72-4.52 2.17c-9.8 4.7-13.05 18.31-7.26 30.4s18.44 18.05 28.25 13.35l4.4-1.98Z" />
  <path fill="#f40" d="M295.56 267.3c5.8 12.08 2.43 25.87-7.37 30.58s-22.34-1.47-28.14-13.55-2.55-25.68 7.26-30.39 22.45 1.28 28.24 13.36" />
  <path fill="#f40" d="M292.39 268.83c4.76 9.92 2 21.25-6.05 25.11s-18.36-1.2-23.11-11.12-2.1-21.1 5.96-24.96 18.44 1.05 23.2 10.97" />
  <path d="M287.35 276.73a5.35 5.35 0 0 0-.84-1.5 5.21 5.21 0 0 0-1.18-1.06 6.53 6.53 0 0 0-1.45-.69 11.4 11.4 0 0 0-1.64-.39 15.83 15.83 0 0 0-1.75-.2c-.6-.04-1.2-.08-1.81-.1l-2.69-7.27a4.28 4.28 0 0 1 2.44.22 5.45 5.45 0 0 1 2.06 1.63l2.6-.97a7.6 7.6 0 0 0-1.63-2.02 6.5 6.5 0 0 0-1.97-1.18 6.8 6.8 0 0 0-2.18-.43 8.8 8.8 0 0 0-2.26.22l-.86-2.34-2.64.98.87 2.33a8.43 8.43 0 0 0-1.95 1.46 7.36 7.36 0 0 0-1.35 1.86 5.86 5.86 0 0 0-.61 2.11 4.7 4.7 0 0 0-.03.52 5.18 5.18 0 0 0 .33 1.7 5.41 5.41 0 0 0 .33.74 4.43 4.43 0 0 0 .96 1.25 5.82 5.82 0 0 0 1.87 1.16 9.16 9.16 0 0 0 1.02.33l.55.13.59.1.1.01c.8.11 1.64.2 2.48.25l2.26 6.1.1.27v.01l.1.25.46 1.26a4.5 4.5 0 0 1-1.45-.19 4.6 4.6 0 0 1-.97-.41 3.03 3.03 0 0 1-.3-.18h-.01l-.07-.04-.2-.16a6.39 6.39 0 0 1-1-.9 7.42 7.42 0 0 1-1.02-1.4l-2.77 1.03a10.18 10.18 0 0 0 1.52 2.08.21.21 0 0 0 .05.06l.13.14.02.01a.3.3 0 0 1 .06.07 1.26 1.26 0 0 0 .15.13.37.37 0 0 0 .07.07 8.96 8.96 0 0 0 1.83 1.34c.17.1.35.18.53.26a1.92 1.92 0 0 0 .3.13 2.59 2.59 0 0 0 .3.13 7.65 7.65 0 0 0 1.28.37 7.33 7.33 0 0 0 2.53.08l1.36 3.7 2.63-.97-1.34-3.64a10.6 10.6 0 0 0 2.1-1.39 7.25 7.25 0 0 0 1.6-1.92 6.04 6.04 0 0 0 .78-2.37 5.88 5.88 0 0 0-.4-2.77m-15.82-6.23a2.76 2.76 0 0 1 .07-2.14 4 4 0 0 1 1.78-1.83l2.3 6.22a13.15 13.15 0 0 1-1.42-.22 5.24 5.24 0 0 1-1.2-.4 3.38 3.38 0 0 1-.92-.66 2.66 2.66 0 0 1-.6-.97m13.34 8.64a3.54 3.54 0 0 1-.34 1.32 4.56 4.56 0 0 1-.85 1.21 5.53 5.53 0 0 1-1.34.99l-2.6-7a15 15 0 0 1 1.62.2 7.16 7.16 0 0 1 1.45.36 4.03 4.03 0 0 1 1.15.63 2.24 2.24 0 0 1 .7.96 3.49 3.49 0 0 1 .2 1.34" />
  <path d="M273.46 293.74a22.9 22.9 0 0 1-10.41-10.83c-4.8-10-2.09-21.33 6.05-25.23a14.91 14.91 0 0 1 13.01.31 23.45 23.45 0 0 1 12.26 25.72 15.06 15.06 0 0 1-7.94 10.42 13.24 13.24 0 0 1-2.55.91 15.27 15.27 0 0 1-10.41-1.3m18.74-24.82a22.13 22.13 0 0 0-10.27-10.56 14.52 14.52 0 0 0-12.66-.31c-7.94 3.8-10.57 14.88-5.87 24.69a22.5 22.5 0 0 0 10.23 10.64 14.3 14.3 0 0 0 12.61.39 14.66 14.66 0 0 0 7.72-10.15 22.15 22.15 0 0 0-1.76-14.7M63.87 301.54a1.9 1.9 0 0 1-1.89-2.18l9.62-79.83a1.9 1.9 0 1 1 3.77.53l-9.61 79.83a1.9 1.9 0 0 1-1.89 1.65m-30.47 0a1.83 1.83 0 0 1-.26-.02 1.91 1.91 0 0 1-1.62-2.16l9.61-79.83a1.9 1.9 0 1 1 3.78.53l-9.62 79.83a1.9 1.9 0 0 1-1.88 1.65" />
  <path d="M65.63 276.43H38.84a1.9 1.9 0 1 1 0-3.81h26.79a1.9 1.9 0 0 1 0 3.81" />
  <path d="M57.77 301.54a1.9 1.9 0 0 1-1.89-1.65l-9.61-77.66a1.9 1.9 0 0 1 3.77-.53l9.62 77.66a1.9 1.9 0 0 1-1.62 2.16 1.88 1.88 0 0 1-.27.02m30.46 0a1.9 1.9 0 0 1-1.89-1.65l-9.61-77.66a1.9 1.9 0 0 1 3.77-.53l9.62 77.66a1.91 1.91 0 0 1-1.62 2.16 1.86 1.86 0 0 1-.27.02" />
  <path d="M82.8 276.43H56.01a1.9 1.9 0 1 1 0-3.81H82.8a1.9 1.9 0 0 1 0 3.81" />
  <path fill="#f40" d="M35.4 209.41h48.77a3.3 3.3 0 0 1 3.3 3.3v7.04a3.3 3.3 0 0 1-3.3 3.3H35.4a3.3 3.3 0 0 1-3.3-3.3v-7.04a3.3 3.3 0 0 1 3.3-3.3" />
  <path fill="#fff" d="M86.97 260.26c.17-1.03-5.07-5.8-5.43-5.58-1.11.71-5.03 3.8-5.07 4.74-.03.91 4.7 6.13 5.74 5.38.89-.64 4.6-3.54 4.76-4.54" />
  <path d="M81.95 265.26a1.9 1.9 0 0 1-.84-.27c-1.64-.87-5.06-4.53-5.02-5.58.06-1.32 4.8-4.77 5.24-5.05.27-.16.56 0 .83.18.92.6 5.39 4.53 5.18 5.79-.21 1.33-4.87 4.75-4.91 4.79a.79.79 0 0 1-.48.14m-.34-10.17c-1.49 1-4.7 3.71-4.76 4.35.06.55 2.62 3.65 4.39 4.75.56.36.74.3.75.3 1.55-1.12 4.48-3.59 4.6-4.28-.01-.74-3.98-4.63-4.98-5.12" />
  <path fill="#aab6c2" d="M77.27 258.03s-5.65.71-6.8 4.9c0 0 10.79 13.14 14.82 16.41 0 0 4.74-4.1 2.19-7.71a64.82 64.82 0 0 0-5.62-6.79s-5.02-2.11-4.59-6.8" />
  <path d="M60.25 198.97c3.6 8.71 18.5 13.29 29.53 17.12 6.61 2.3 7.15 4.98 7.68 7.49 2.07 9.81-14.6 23.1-19.03 31.21-.12 1.46 1.28 2.9 3 4.1a33.46 33.46 0 0 0 6.52 3.35c13.63-14.28 34.3-33.65 32.19-47.54-3.54-23.33-37.45-36.47-37.45-36.47-5.58-7.13-28.74 5.47-22.44 20.74" />
  <path fill="#fff" d="M68.17 260.24c0-1.05-5.91-4.96-6.23-4.67-.99.87-4.38 4.53-4.27 5.47.1.9 5.6 5.32 6.5 4.42.78-.77 4-4.22 4-5.22" />
  <path d="M63.81 265.96a2.18 2.18 0 0 1-.7-.14c-1.74-.61-5.7-3.69-5.82-4.74-.15-1.32 4-5.46 4.4-5.8.22-.2.54-.09.84.05 1 .45 6.02 3.63 6.02 4.9-.01 1.36-4.07 5.46-4.11 5.5a.85.85 0 0 1-.63.23m-1.74-10.01c-1.32 1.21-4.07 4.4-4.02 5.04.13.53 3.16 3.2 5.08 4.01.6.26.77.19.78.18 1.35-1.35 3.86-4.25 3.88-4.94-.13-.73-4.65-3.96-5.72-4.3m9.63-60.57c3.3 4.01 7.35 7.37 10.75 11.28a107.52 107.52 0 0 1 7.33 9.44c6.6 2.3 7.15 4.98 7.68 7.49 2.07 9.81-14.6 23.1-19.03 31.22-.12 1.46 1.28 2.89 3 4.1a30.76 30.76 0 0 0 3.6-2.96 57 57 0 0 0 8.92-10.45c5.14-7.58 9.42-13.78 10.12-22.91.51-6.57.36-8.6-.81-13.8-.75-3.29-2.82-7-4.67-9.92-4.67-7.3-13.73-9.94-20.21-15.18a1.25 1.25 0 0 0-.2-.12.66.66 0 0 0-.82-.67c-6.8 1.36-10.46 6.6-5.65 12.48" />
  <path fill="#aab6c2" d="M58.24 259.54s-5.47 1.57-5.96 5.89c0 0 12.7 11.3 17.2 13.91 0 0 4.04-4.78.95-7.96a64.88 64.88 0 0 0-6.6-5.83s-5.28-1.3-5.59-6" />
  <path d="M40.28 201.08c6.8 13.46 33.34 9.63 35.26 16.18 2.81 9.63-10.24 35.53-15.86 39.13a7.55 7.55 0 0 0 .6 1.38c1.83 3.25 6.15 6.44 6.15 6.44 11.13-9.68 31.73-32.14 32.66-47.32 1.44-23.53-38.03-38.2-38.03-38.2-4.99-5.45-20.66 3.1-22.18 14.45a13.37 13.37 0 0 0 1.4 7.94" />
  <path d="M40.28 201.07c6.8 13.47 33.34 9.63 35.26 16.19 2.81 9.63-10.24 35.52-15.86 39.12a7.55 7.55 0 0 0 .6 1.38 41.72 41.72 0 0 0 14.87-17.73c1.8-4.01 3.23-8.17 4.77-12.3 1.54-4.17 2.9-3.93 2.03-8.31-1.47-7.44-6.96-9.44-13.76-10.77-9.57-1.87-21.22-4.52-24.83-14.82.54-.35 1.82-9.21.99-9.3-1.5-.14-4.35 1.74-5.47 8.6a13.37 13.37 0 0 0 1.4 7.94m-5.19-87.1c-.4 6.43 7.41 13.46 13.87 11.3 4.04-1.36 6.78-5.28 8-9.18.66-2.13.75-4.52 1.78-6.52 2.02-3.9 4.56-3.24 7.47-5.16a.76.76 0 0 0 .17-.17.8.8 0 0 0 .46-.9c-.79-4.4-6.97-8.28-11.28-6.73-2.71.98-4.6 3.47-5.9 5.92a55.27 55.27 0 0 0-2.5 6.26c-.56 1.48-1.3 3.7-2.31 4.78-2.71 2.92-6.48.65-8.2-.08a.9.9 0 0 0-1.56.48" />
  <path fill="#fff" d="M99.63 174.34c-.91 1.13-5.38 3.15-6.6 2.97-8.2-1.2-12.64-8.27-15.87-11.61a16.48 16.48 0 0 1-1.5-1.75 18.79 18.79 0 0 1-3.52-8.64 20.42 20.42 0 0 1-.2-4.5s-4.25-21.65.47-19.48c4.75 2.2 10.34 10.94 14.66 18.4.13.22.24.43.37.63.27.47.52.92.78 1.35a211.58 211.58 0 0 0 1.86 3.2c1.22 2.08 4.34 6.84 4.34 6.84s8.98 7.98 5.2 12.6" />
  <path d="M93.18 177.7a1.26 1.26 0 0 1-.2-.01c-6.84-1-11.08-5.95-14.18-9.57-.68-.8-1.32-1.54-1.9-2.15a16.98 16.98 0 0 1-1.53-1.79 19.1 19.1 0 0 1-3.6-8.81 21.03 21.03 0 0 1-.2-4.53c-.4-2.04-3.33-17.6-.6-19.75a1.45 1.45 0 0 1 1.6-.1c5 2.32 10.87 11.7 14.83 18.56l.16.26.2.35.29.49.5.87a153.76 153.76 0 0 0 6.17 9.98c.73.66 9.08 8.36 5.2 13.1-.95 1.18-5.2 3.1-6.74 3.1M71.8 131.58a.55.55 0 0 0-.36.12c-1.82 1.43-.47 12.18.88 19.06v.11a20.27 20.27 0 0 0 .2 4.4 18.36 18.36 0 0 0 3.45 8.47 16.22 16.22 0 0 0 1.46 1.7c.6.64 1.25 1.4 1.94 2.2 3.02 3.52 7.16 8.35 13.71 9.3 1.09.19 5.42-1.78 6.25-2.82 3.51-4.29-5.08-12-5.16-12.08l-.07-.07c-.03-.05-3.13-4.8-4.34-6.85-.57-.94-1.2-2.04-1.87-3.2l-.5-.88-.28-.47-.22-.37-.15-.25c-3.92-6.77-9.68-16.02-14.49-18.25a1.11 1.11 0 0 0-.45-.12" />
  <path fill="#f40" d="M71.94 150.82a21.91 21.91 0 0 0 4.98 15.23c3.2 3.6 14.1-13.92 10.98-18.32-4.78-6.7-11.02-14.95-15.7-17.1-4.71-2.18-.26 20.2-.26 20.2" />
  <path d="M80.36 149.48s-1.44 4.74-.49 7.82a9.6 9.6 0 0 0 3.46 4.76s-2.4 3.21-3.79 3.9-7.05-12.88-3.7-15.25 4.51-1.23 4.51-1.23" />
  <path fill="#f40" d="M91.6 184.02s-35.83 13.27-55.55 2.21c0 0 12.49-12.5 11.98-25.7a20.01 20.01 0 0 0-.15-1.75 47.53 47.53 0 0 0-.6-3.56c-2.69-13.41-9.37-29.97 18.87-28.3 0 0 15.85 7.9 15.5 16.74-.37 8.84-6.9 10.16-1.88 20.11a233.47 233.47 0 0 0 11.83 20.25" />
  <path d="M54.5 152.19c-1.36 2.46-4.62 12.25-7.01 14.05-.02-.58.46-6.88.4-7.47a48.05 48.05 0 0 0-.6-3.56 18.82 18.82 0 0 1 3.9-4.94c5.14-4.85 4.7-16.77 4.7-16.77 1.17 5.95.6 15.04-1.38 18.69" />
  <path fill="#fff" d="M69.08 123.1v5s1.34 2.47 0 2.74c-2.95.58-7.21-4.02-7.21-4.02v-6.7Z" />
  <path d="M68.54 131.26c-3.04 0-6.79-4-6.95-4.19l-.1-.1v-7.43l7.97 3.3V128c.22.43.86 1.79.47 2.61a1.04 1.04 0 0 1-.78.59 3.08 3.08 0 0 1-.6.06m-6.3-4.6c.64.67 4.28 4.29 6.75 3.8a.3.3 0 0 0 .24-.17c.2-.41-.18-1.43-.5-2.02l-.04-.18v-4.73l-6.46-2.68Z" />
  <path fill="#fff" d="M72.71 109.49a39.57 39.57 0 0 1 .31 10.92c-.54 3.56-8.1 6.27-11.82-.03s-.17-13.26-.17-13.26Z" />
  <path d="M67.32 124.54a7.46 7.46 0 0 1-6.45-3.96c-3.78-6.4-.33-13.34-.18-13.63l.13-.26 12.22 2.48.05.25a39.44 39.44 0 0 1 .3 11.05c-.27 1.84-2.18 3.45-4.63 3.93a7.48 7.48 0 0 1-1.44.14m-6.07-16.98c-.58 1.3-2.9 7.27.27 12.63a6.62 6.62 0 0 0 7.09 3.47c2.11-.41 3.8-1.8 4.03-3.3a38.88 38.88 0 0 0-.26-10.54Z" />
  <path d="M75.23 110.02c-.28-.31-.74-.46-1-.77-.86-.97-.33-1.16-.75-2a4.34 4.34 0 0 0-1.38-1.71 10.72 10.72 0 0 0-5.9-1.67.74.74 0 0 0-.76.98 9.05 9.05 0 0 0-5.63 2 9.16 9.16 0 0 0-2.73 8.79c.7 2.28 2.61 4.53 4.62 2.35 1.52-1.66 1.89-3.51 2.33-5.63a9.98 9.98 0 0 1 .58-2 5.28 5.28 0 0 1 4.58-1.21c.28.5.44 1.17.69 1.67a5.8 5.8 0 0 0 1.54 1.9c1 .8 2.55 1.36 3.67.44a2.13 2.13 0 0 0 .14-3.13" />
  <path fill="#fff" d="M64.38 113.02s-1.78-1.55-2.67-.02a1.83 1.83 0 0 0 1.22 2.87c.88-.07 1.73-2.02 1.45-2.85" />
  <path d="M62.86 116.25a1.85 1.85 0 0 1-1.47-.93 2.36 2.36 0 0 1 0-2.5 1.61 1.61 0 0 1 1.13-.85 2.93 2.93 0 0 1 2.1.76l.09.07.03.1a3.25 3.25 0 0 1-.56 2.45 1.73 1.73 0 0 1-1.22.9h-.1m-.07-3.55a.96.96 0 0 0-.15.01.87.87 0 0 0-.6.48 1.6 1.6 0 0 0 0 1.72 1.12 1.12 0 0 0 .86.58c.14-.01.38-.17.64-.56a2.86 2.86 0 0 0 .5-1.7 2.37 2.37 0 0 0-1.25-.53" />
  <path fill="#f40" d="M61.3 105.2c1.37-1.83 3.57-2.33 5.74-2.47 1.13-.07 1.4 1.68.26 1.75-1.66.1-3.5.33-4.56 1.76-.68.92-2.12-.12-1.44-1.03" />
  <path fill="#fff" d="M28.72 178.73c6.17 8.66 33.55.52 33.55.52l-.38-4.78s-16.11 1.3-19.31-4.04c-.59-.98 1.12-12.1 4.1-14.97a116.58 116.58 0 0 1 3.97-3.6 17.14 17.14 0 0 0 5.76-9.92 17.75 17.75 0 0 0-.78-9.3 5.34 5.34 0 0 0-8.38-2.2c-5.41 4.4-14.14 15.73-14.36 16-7.74 10.13-10.36 23.61-4.17 32.3" />
  <path d="M40.85 183.11c-5.36 0-10.2-1.02-12.44-4.16-5.93-8.3-4.2-21.77 4.18-32.74l.06-.08c1.53-1.95 9.37-11.92 14.37-16a5.8 5.8 0 0 1 5.19-1.08 5.53 5.53 0 0 1 3.78 3.46 18.14 18.14 0 0 1 .8 9.5 17.59 17.59 0 0 1-5.9 10.14 117.2 117.2 0 0 0-3.94 3.58c-2.9 2.8-4.48 13.6-4.05 14.5 3.05 5.09 18.8 3.87 18.96 3.85l.37-.03.44 5.48-.3.09c-.72.21-11.94 3.5-21.53 3.5m9.82-53.52a5.02 5.02 0 0 0-3.17 1.13c-4.93 4.02-12.73 13.92-14.24 15.87l-.07.08c-8.18 10.7-9.9 23.79-4.16 31.83 5.6 7.87 29.88 1.3 32.84.46l-.33-4.1c-2.53.17-16.24.84-19.29-4.24-.68-1.14 1.07-12.45 4.18-15.44a117.6 117.6 0 0 1 3.97-3.61 16.82 16.82 0 0 0 5.64-9.7 17.39 17.39 0 0 0-.76-9.1 4.79 4.79 0 0 0-3.27-3 5.08 5.08 0 0 0-1.34-.17" />
  <path fill="#f40" d="M46.7 157.84c1.24-1.17 9.48-8.72 10.66-16.28.55-3.43-.4-11.96-4.68-12.95-6.85-1.58-16.61 8.53-22.93 16.05 2.9 6.54 9.26 11.11 16.96 13.19" />
  <path fill="#aab6c2" d="m81.11 180.91-17.81 1.08 17.05 4.78Z" />
  <path fill="#fff" d="m63.4 183.55.06-1.33 16.7 4.69.01 1.76Z" />
  <path d="m63.63 182.46 16.35 4.58v1.39l-16.4-5.02Zm-.34-.47-.09 1.69 17.15 5.24v-2.15Z" />
  <path fill="#aab6c2" d="m117.22 184.54-36.87 2.23v2.15l36.86-2.46Z" />
  <path fill="#fff" d="M83.57 166.8a1.08 1.08 0 0 1 1-.95l33.91-2.05a1.1 1.1 0 0 1 .87.37 1.07 1.07 0 0 1 .26.85l-2.72 19.16-36.1 2.18Z" />
  <path d="M118.55 164.18a.68.68 0 0 1 .52.24.68.68 0 0 1 .17.54l-2.68 18.86-35.33 2.14 2.71-19.13a.7.7 0 0 1 .65-.6l33.91-2.05Zm0-.76h-.1l-33.9 2.05a1.45 1.45 0 0 0-1.36 1.27l-2.84 20.03 36.87-2.23 2.77-19.47a1.46 1.46 0 0 0-1.44-1.65" />
  <path fill="#fff" d="M75.97 173.35a9.51 9.51 0 0 0-3.67-.4 3.94 3.94 0 0 0-.45-.07 4.17 4.17 0 0 0 .25-.4c.41-.9.47-2.43-.64-2.88-1.18-.48-1.93 1.03-2.53 1.75a8.7 8.7 0 0 1-2.5 2.2 14.63 14.63 0 0 1-3.16.67c-.76.14-2 .18-2.48.93a4.05 4.05 0 0 0-.2 2.52c.2.85.94 1.25 1.68 1.58a8.07 8.07 0 0 0 2 .59 6.68 6.68 0 0 0 3.74.22 4.87 4.87 0 0 0 .77-.3 6.4 6.4 0 0 0 3.48.42.78.78 0 0 0 .6-1.08 1.5 1.5 0 0 0 .65-.36 1.1 1.1 0 0 0 .3-.75 2.58 2.58 0 0 0 .6-.46 2.1 2.1 0 0 0 .52-2.21 10.18 10.18 0 0 1 3 2.38.83.83 0 0 0 1.4-.26c.84-1.83-1.94-3.6-3.36-4.08" />
  <path d="M71.24 180.64a6.74 6.74 0 0 1-2.45-.47 4.73 4.73 0 0 1-.67.26 7.13 7.13 0 0 1-3.96-.23 8.31 8.31 0 0 1-2.04-.6 2.9 2.9 0 0 1-1.9-1.84 4.37 4.37 0 0 1 .26-2.81 3.12 3.12 0 0 1 2.34-1.04c.14-.02.27-.03.4-.06l.79-.12a9.49 9.49 0 0 0 2.28-.53 8.39 8.39 0 0 0 2.35-2.09l.34-.44c.55-.77 1.4-1.92 2.63-1.42a1.75 1.75 0 0 1 .98 1 3.22 3.22 0 0 1-.11 2.32 9.79 9.79 0 0 1 3.61.43 6.5 6.5 0 0 1 3.58 2.85 2.06 2.06 0 0 1 .01 1.75 1.3 1.3 0 0 1-.96.75 1.18 1.18 0 0 1-1.07-.39 10.96 10.96 0 0 0-2.21-1.93 2.6 2.6 0 0 1-.75 1.77 2.9 2.9 0 0 1-.52.42 1.4 1.4 0 0 1-.39.78 1.7 1.7 0 0 1-.48.34 1.22 1.22 0 0 1-.16.69 1.12 1.12 0 0 1-.81.53 6.99 6.99 0 0 1-1.08.08m-2.48-1.3.16.07a6.03 6.03 0 0 0 3.28.4.35.35 0 0 0 .27-.17.5.5 0 0 0 .03-.41l-.13-.37.37-.12a1.12 1.12 0 0 0 .5-.27.72.72 0 0 0 .18-.5v-.21l.2-.1a2.24 2.24 0 0 0 .52-.39 1.72 1.72 0 0 0 .43-1.81l-.33-.89.85.41a10.34 10.34 0 0 1 3.12 2.47.42.42 0 0 0 .38.15.54.54 0 0 0 .4-.32 1.32 1.32 0 0 0-.02-1.12 5.86 5.86 0 0 0-3.12-2.44 9.24 9.24 0 0 0-3.52-.37h-.07l-.07-.02a1.11 1.11 0 0 0-.2-.04.78.78 0 0 1-.22-.03l-.53-.1.38-.62a1.73 1.73 0 0 0 .13-.21 2.53 2.53 0 0 0 .13-1.8.99.99 0 0 0-.57-.57c-.64-.26-1.12.32-1.73 1.16a9.16 9.16 0 0 1-.36.48 9.08 9.08 0 0 1-2.62 2.3 10.1 10.1 0 0 1-2.49.59 18.25 18.25 0 0 1-1.2.19c-.66.08-1.5.2-1.8.68a3.7 3.7 0 0 0-.16 2.22c.17.69.8 1.02 1.48 1.34a7.8 7.8 0 0 0 1.9.55 6.55 6.55 0 0 0 3.57.24 4.7 4.7 0 0 0 .71-.29Z" />
  <path fill="#fff" d="M104.33 186.3c.07-.35.4-.95.91-.85a.54.54 0 0 1 .17.06 1.87 1.87 0 0 1 .02-.73c.12-.5.62-1.26 1.33-.83a2.05 2.05 0 0 1 .66.7 1.43 1.43 0 0 1 .96-1.08c.83-.31 1.23.22 1.45.84.14-.62.5-1.52 1.32-1.07a3.27 3.27 0 0 1 1 1.24 7.63 7.63 0 0 1 .77 1.78.24.24 0 0 1 0 .08.23.23 0 0 1 .06.26c-.25.65-1.05 1.33-1.83.75a3.7 3.7 0 0 1-.55-.53c.05.59-.08 1.1-.73 1.23a1.75 1.75 0 0 1-1.66-.92.27.27 0 0 1-.02.04c-.18.27-.41.62-.83.61a1.25 1.25 0 0 1-.83-.47.22.22 0 0 1-.1.17 1.37 1.37 0 0 1-2.1-1.28" />
  <path d="M109.64 188.55a1.94 1.94 0 0 1-1.41-.7 1.15 1.15 0 0 1-.86.4h-.01a1.33 1.33 0 0 1-.8-.31 1.85 1.85 0 0 1-1.95-.14 1.57 1.57 0 0 1-.65-1.57 1.76 1.76 0 0 1 .37-.77 1.08 1.08 0 0 1 .68-.4 2.2 2.2 0 0 1 .05-.37 1.73 1.73 0 0 1 .9-1.18 1.07 1.07 0 0 1 1 .1 1.99 1.99 0 0 1 .37.29 1.86 1.86 0 0 1 .92-.7 1.4 1.4 0 0 1 1.1-.01 1.25 1.25 0 0 1 .4.3 1.3 1.3 0 0 1 .6-.6 1.07 1.07 0 0 1 .99.09 3.13 3.13 0 0 1 1.05 1.23l.09.15a8.01 8.01 0 0 1 .8 1.88l.02.04a.62.62 0 0 1 .03.54 1.96 1.96 0 0 1-1.19 1.16 1.34 1.34 0 0 1-1.22-.25l-.02-.02a1.2 1.2 0 0 1-.95.8 1.67 1.67 0 0 1-.3.02m-1.5-2.08.37.54c.3.4.77.86 1.28.77.24-.05.49-.16.42-.82l-.11-1.19.78.9a3.18 3.18 0 0 0 .5.47.6.6 0 0 0 .55.13 1.17 1.17 0 0 0 .66-.63l-.04-.04v-.16a7.3 7.3 0 0 0-.73-1.67l-.1-.16a2.55 2.55 0 0 0-.75-.94c-.2-.11-.29-.07-.32-.06a1.34 1.34 0 0 0-.45.87l-.28 1.27-.45-1.21a1.08 1.08 0 0 0-.44-.65.68.68 0 0 0-.52.04 1.05 1.05 0 0 0-.72.8l-.2.91-.5-.8a1.67 1.67 0 0 0-.53-.57.32.32 0 0 0-.32-.05 1 1 0 0 0-.45.65 1.48 1.48 0 0 0-.01.58l.12.8-.7-.42c-.07-.02-.16-.04-.3.12a1.02 1.02 0 0 0-.2.42.82.82 0 0 0 .36.82 1.1 1.1 0 0 0 1.11.1l.11-.7.53.56a.96.96 0 0 0 .56.35c.19 0 .33-.18.5-.43Zm4.47.1" />
  <path fill="#fff" d="M64.06 112.2a22.86 22.86 0 0 1-1.45 4.57c-.63.9 2.95 1.85 2.95 1.85l.77-4.13-.55-2.52Zm-4.41 62.75 2.98-.23v4.29a5.35 5.35 0 0 0-2.15.36c-1.2.44-2.85-2.22-2.4-2.83a14.3 14.3 0 0 1 1.57-1.59" />
  <path d="m49.4 247.51 6.5 52.39a1.9 1.9 0 0 0 1.87 1.64l.27-.02a1.91 1.91 0 0 0 1.62-2.16l-6.42-51.85Z" />
</svg>