<svg xmlns="http://www.w3.org/2000/svg" viewBox="0 0 378.878 308.191">
  <defs>
    <clipPath id="clip">
      <path fill="none" d="M138.78 306.26c48.25 1.58 135.08-13.68 160.95-104.95s-67.88-70.23-100.6-170.85C174.74-44.57-42.46 20.06 7.4 212.76c21.93 84.71 89.5 92.13 131.37 93.5Z" />
    </clipPath>
  </defs>
  <path fill="#e6ebf0" d="M197.12 306.26c48.25 1.58 135.08-13.68 160.95-104.95s-67.88-70.23-100.6-170.85c-24.39-75.03-241.59-10.4-191.71 182.3 21.93 84.71 89.49 92.13 131.36 93.5Z" />
  <g clip-path="url(#clip)" transform="translate(58.345)">
    <path fill="#c6d0db" d="M-3 76.18v-11.8h19.57V7.97h5.4v56.4h21.08v11.8h11.3v236.54h-81.46V76.18Z" />
    <path fill="#aab6c2" d="M-27.1 76.18h11.29v212.76h-11.3z" />
    <path fill="#c6d0db" d="M13.62 132.52h81.46V312.7H13.62z" />
    <path fill="#aab6c2" d="M13.62 132.52h11.3V312.7h-11.3zm58.41 7.68H83.7v4.84H72.03zm-19.69 0h11.7v4.84h-11.7zm19.69 17.66H83.7v4.85H72.03zm-19.69 0h11.7v4.85h-11.7zm-19.67 0h11.68v4.85H32.67zm39.36 17.66H83.7v4.85H72.03zm-39.36 0h11.68v4.85H32.67zm19.67 8.83h11.7v4.86h-11.7zm19.69 8.84H83.7v4.85H72.03zm-19.69 8.83h11.7v4.85h-11.7zm19.69 8.83H83.7v4.85H72.03zm-39.36 0h11.68v4.85H32.67zm39.36 16.32H83.7v4.85H72.03zm-19.69 0h11.7v4.85h-11.7zm19.69 17.67H83.7v4.85H72.03zm-19.69 0h11.7v4.85h-11.7zm-19.67 0h11.68v4.85H32.67zm39.36 17.66H83.7v4.85H72.03zm-39.36 0h11.68v4.85H32.67zm19.67 8.83h11.7v4.85h-11.7zm-19.67 0h11.68v4.85H32.67zm39.36 8.83H83.7v4.85H72.03zM52.34 289h11.7v4.85h-11.7zm19.69 8.83H83.7v4.85H72.03zm-39.36 0h11.68v4.85H32.67z" />
    <path fill="#c6d0db" d="M208.52 132.52h81.45V312.7h-81.45z" />
    <path fill="#aab6c2" d="M208.52 132.52h11.3V312.7h-11.3z" />
    <path fill="#c6d0db" d="M92.81 46.82H202.1V312.7H92.8z" />
    <path fill="#aab6c2" d="M92.81 46.82h11.3V312.7H92.8zm80.71 12.73h17.07v7.09h-17.07zm-28.74 0h17.07v7.09h-17.07zm28.74 25.8h17.07v7.08h-17.07zm-28.74 0h17.07v7.08h-17.07zm-28.74 0h17.07v7.08h-17.07zm57.48 25.79h17.07v7.08h-17.07zm-57.48 0h17.07v7.08h-17.07zm28.74 12.89h17.07v7.09h-17.07zm28.74 12.9h17.07v7.09h-17.07zm-28.74 12.9h17.07v7.09h-17.07zm28.74 12.9h17.07v7.08h-17.07zm-57.48 0h17.07v7.08h-17.07zm57.48 23.83h17.07v7.09h-17.07zm-28.74 0h17.07v7.09h-17.07zm28.74 25.8h17.07v7.08h-17.07zm-28.74 0h17.07v7.08h-17.07zm-28.74 0h17.07v7.08h-17.07zm57.48 25.79h17.07v7.08h-17.07zm-57.48 0h17.07v7.08h-17.07zm28.74 12.9h17.07v7.08h-17.07zm-28.74 0h17.07v7.08h-17.07zm57.48 12.89h17.07v7.09h-17.07zm-28.74 12.9h17.07v7.08h-17.07zm28.74 12.9h17.07v7.08h-17.07zm-57.48 0h17.07v7.08h-17.07z" />
    <path fill="#c6d0db" d="M264.64 66.64h107.12V312.7H264.64z" />
    <path fill="#aab6c2" d="M264.64 66.64h11.07V312.7h-11.07zm79.1 11.78h16.73v6.56h-16.73zm-28.17 0h16.73v6.56h-16.73zm28.17 23.88h16.73v6.55h-16.73zm-28.17 0h16.73v6.55h-16.73zm-28.16 0h16.73v6.55h-16.73zm56.33 23.86h16.73v6.56h-16.73zm-56.33 0h16.73v6.56h-16.73zm28.16 11.94h16.73v6.56h-16.73zm28.17 11.94h16.73v6.55h-16.73zm-28.17 11.93h16.73v6.56h-16.73zm28.17 11.93h16.73v6.56h-16.73zm-56.33 0h16.73v6.56h-16.73zm56.33 22.07h16.73v6.55h-16.73zm-28.17 0h16.73v6.55h-16.73zm28.17 23.87h16.73v6.55h-16.73zm-28.17 0h16.73v6.55h-16.73zm-28.16 0h16.73v6.55h-16.73zm56.33 23.86h16.73v6.56h-16.73zm-56.33 0h16.73v6.56h-16.73zm28.16 11.95h16.73v6.55h-16.73zm-28.16 0h16.73v6.55h-16.73zm56.33 11.93h16.73v6.56h-16.73zm-28.17 11.93h16.73v6.56h-16.73zm28.17 11.94h16.73v6.56h-16.73zm-56.33 0h16.73v6.56h-16.73z" />
    <path fill="#c6d0db" d="M-81.53 144.87h68.98V312.7h-68.98z" />
    <path fill="#aab6c2" d="M-81.53 144.87h7.13V312.7h-7.13zm50.94 8.03h10.78v4.48H-30.6zm-18.14 0h10.78v4.48h-10.78zm18.14 16.29h10.78v4.47H-30.6zm-18.14 0h10.78v4.47h-10.78zm-18.14 0h10.78v4.47h-10.78zm36.28 16.28h10.78v4.47H-30.6zm-36.28 0h10.78v4.47h-10.78zm18.14 8.13h10.78v4.48h-10.78zm18.14 8.15h10.78v4.47H-30.6zm-18.14 8.15h10.78v4.46h-10.78zm18.14 8.13h10.78v4.47H-30.6zm-36.28 0h10.78v4.47h-10.78zm36.28 15.05h10.78v4.47H-30.6zm-18.14 0h10.78v4.47h-10.78zm18.14 16.28h10.78v4.47H-30.6zm-18.14 0h10.78v4.47h-10.78zm-18.14 0h10.78v4.47h-10.78zm36.28 16.28h10.78v4.47H-30.6zm-36.28 0h10.78v4.47h-10.78zm18.14 8.14h10.78v4.48h-10.78zm-18.14 0h10.78v4.48h-10.78zm36.28 8.15h10.78v4.47H-30.6zm-18.14 8.14h10.78v4.47h-10.78zm18.14 8.13h10.78v4.48H-30.6zm-36.28 0h10.78v4.48h-10.78z" />
    <g fill="#fff">
      <path d="M-124.76-34.76H167.6v333.35h-292.37z" opacity=".35" />
      <path d="M-24.1 292.57h-22.7L74.84-30.95h22.69Zm-40.07 0h-11.35L46.12-30.95h11.34Zm135.47 0H59.95L164.24 3.79v23.26Z" opacity=".5" />
      <path d="M169.14-41.36h292.37V292H169.14z" opacity=".35" />
      <path d="M217.5 292.57h-22.7L316.44-30.95h22.7Zm-40.07 0h-11.35L287.72-30.95h11.35Z" opacity=".5" />
      <path d="M363.7 292.57h-11.35L456.63 3.79v23.26Z" opacity=".6" />
      <path d="M473.7 25.37v-3.82h-10.5v-60.12h-591.16v7.62h6.37v2.7H66.95v49.8h-194.91v3.82H66.95v97.89h-194.91v3.81H66.95v97.9h-194.91v3.81H66.95v63.79h-188.48v2.2h-6.43v8.83H463.2v-74.82h10.5v-3.81h-10.5v-97.9h10.5v-3.8h-10.5v-97.9h10.5Zm-302.87 101.7h91.06v97.9h-91.06Zm0-3.8v-97.9h91.06v97.89h-91.06Zm0-101.72v-49.8h91.06v49.8h-91.06Zm0 207.23h91.06v63.79h-91.03v2.2h-.03v-65.99Zm97.46 63.79v-63.79h91.06v63.79Zm0-67.6v-97.9h91.06v97.9h-91.06Zm0-101.71v-97.9h91.06v97.9h-91.06Zm0-101.71v-49.8h91.06v49.8h-91.06Zm97.45-49.8h91.07v49.8h-91.07Zm-292.39 0h91.06v49.8H73.35Zm0 53.61h91.06v97.9H73.35v-97.9Zm0 101.71h91.06v97.9H73.35Zm0 101.71h91.06v66h-.03v-2.21H73.35v-63.79Zm383.46 66h-.03v-2.21h-91.03v-63.79h91.06Zm0-69.81h-91.06v-97.9h91.06v97.9Zm0-101.7h-91.06v-97.9h91.06v97.89Z" />
    </g>
  </g>
  <path fill="#e6ebf0" d="M303.29 87.42c-35.2-24.56-34.78-43.88-29.46-59.39 6.03-17.58 72.54 13.44 86.39 69.7s-38.34 2.66-56.94-10.31Z" />
  <path fill="#aab6c2" d="M114.65 226.9a7.5 7.5 0 0 0 4.26-1.4 36.28 36.28 0 0 1-.63 7.83c-1.67 2.7-6.32 7.67-6.01 7.64a15.04 15.04 0 0 0 3.73-.87 27.85 27.85 0 0 1-2.84 4.64c-2.26 3.01-5.47 5.42-6.7 9.09a.23.23 0 0 1-.13.16.27.27 0 0 1-.44.2c-6.07-5.77-7.15-14.52-8.04-22.4-.05-.38-.09-.75-.12-1.13a24.31 24.31 0 0 0 5.59 4.37c.3.16-3.8-6.39-5.8-9.4a17.75 17.75 0 0 1 1.04-5.6 46.97 46.97 0 0 1 6.22-10.65l.3-.4a18.2 18.2 0 0 0 2.61 4.73 55.45 55.45 0 0 0-.82-7.1 81.9 81.9 0 0 1 1.8-2.18c.81-.95 1.81-2.57 3.26-2.35 1.41.2 4.62 5.97 5.03 7.62.18.7.33 1.43.48 2.15.07.31.12.63.18.94a86.36 86.36 0 0 1 1.08 8.79 8 8 0 0 1-.31.46c-1.18 1.6-4.04 4.86-3.75 4.86Z" />
  <path d="M109.12 224c3-.46 5.28-2.35 7.48-4.3.32-.3-.08-.85-.41-.55-2.06 1.83-4.2 3.65-7 4.13a250.38 250.38 0 0 1 2.25-13.32c.09-.43-.6-.54-.68-.1q-1.74 8.78-2.83 17.66a29.36 29.36 0 0 1-3.96-7.96c-.14-.42-.77-.17-.64.25a30.03 30.03 0 0 0 4.25 8.41.3.3 0 0 0 .25.14c-.16 1.3-.3 2.59-.44 3.89a18.5 18.5 0 0 1-2.94-5.15.34.34 0 0 0-.64.25 19.03 19.03 0 0 0 3.34 5.7.34.34 0 0 0 .14.1q-.66 6.4-1 12.83a.34.34 0 0 0-.04.15q-.14 2.35-.16 4.7a239.96 239.96 0 0 0-.09 3.07.29.29 0 0 0 .1.23 149.53 149.53 0 0 0 3.64 28.66l.67-.16a142.06 142.06 0 0 1-3.62-32.44l.14-3.46a.32.32 0 0 0 .3-.04 11.4 11.4 0 0 0 3.14-3.2c.24-.37-.3-.8-.53-.43a10.95 10.95 0 0 1-2.87 2.98q.57-11.07 2.11-22.06h.03Z" />
  <path fill="#aab6c2" d="M85.32 243.84a7.43 7.43 0 0 1-4.03.34 25.9 25.9 0 0 0 2.81 5.68c2.21 1.48 7.6 3.68 7.33 3.76a15.39 15.39 0 0 1-3.42.58 22.02 22.02 0 0 0 3.77 2.55c2.79 1.52 6.22 2.27 8.32 4.63a.2.2 0 0 0 .17.08.25.25 0 0 0 .43 0c3.48-6.33 1.86-13.26.33-19.48l-.23-.88a22.03 22.03 0 0 1-3.48 5.12c-.2.22 1.37-6.05 2.2-8.98a12.86 12.86 0 0 0-2.52-3.86 37.08 37.08 0 0 0-8.37-5.95l-.37-.2a14.15 14.15 0 0 1-.85 4.41 40.08 40.08 0 0 1-1.37-5.6c-.72-.36-1.44-.72-2.17-1.05-.96-.45-2.28-1.33-3.45-.7-1.14.62-2.2 6.01-2.06 7.38.06.6.13 1.18.22 1.77.03.26.08.52.12.77a62.25 62.25 0 0 0 1.63 6.96c.13.08.26.17.4.24 1.47.82 4.84 2.32 4.6 2.42Z" />
  <path d="M105.73 284.22a107.4 107.4 0 0 0-5.24-22.73.2.2 0 0 0 .02-.2l-.96-2.28q-.7-1.75-1.5-3.48a.28.28 0 0 0-.08-.1q-2.16-4.72-4.58-9.3a.3.3 0 0 0 .1-.13 14.95 14.95 0 0 0 1.18-5.38c0-.36-.6-.35-.62.02a14.54 14.54 0 0 1-1 4.83q-.74-1.4-1.5-2.78a.29.29 0 0 0 .18-.18 23.22 23.22 0 0 0 1.17-7.72c-.01-.36-.62-.34-.62.02a22.68 22.68 0 0 1-1.05 7.29q-3.52-6.31-7.55-12.35c-.2-.3-.74 0-.54.3q3.04 4.55 5.78 9.27c-2.5.56-4.86-.11-7.14-.8-.37-.11-.56.43-.2.54 2.44.75 4.94 1.42 7.61.77l.03-.01q4.5 7.74 8.2 15.88a9.38 9.38 0 0 1-3.3-1.3c-.3-.2-.64.3-.32.5a9.85 9.85 0 0 0 3.6 1.38.32.32 0 0 0 .27-.07l1.13 2.56a101.78 101.78 0 0 1 6.34 25.56l.62-.1Z" />
  <path d="M83.9 235.53a15.73 15.73 0 0 1-5.33-2.08l.12.76a16.45 16.45 0 0 0 5.03 1.87c.38.07.57-.48.19-.55Z" />
  <path fill="#aab6c2" d="M141.78 240.67c-.04 2.47-5.75 3.67-7.56 4.34-4.01 1.48-7.93 2.98-10.9 6.2a132.3 132.3 0 0 0-9.52 12.4.71.71 0 0 1-.72.3 11.02 11.02 0 0 1-.83-1.8c-1.04-2.56-2.63-7.25-2.23-9.92a16.2 16.2 0 0 1 1.81-5.33 4.79 4.79 0 0 0 1.15 2.25 46.82 46.82 0 0 0 .66-4.96c.26-.33.53-.64.81-.94a17.44 17.44 0 0 1 2.11-1.95l.48-.37a21.55 21.55 0 0 1 1.93-1.28l.53-.3c.62-.35 1.27-.67 1.92-.96a12.94 12.94 0 0 0 1.06 3.52 22.77 22.77 0 0 0 .42-4.11c.62-.24 1.25-.43 1.9-.62a10.1 10.1 0 0 0 .79 2.28 12 12 0 0 0 1.24-2.77 24.74 24.74 0 0 1 6.11-.48l.52.03c.55.04 1.1.1 1.63.19 1.96.3 6.6 1.55 6.69 4.2a.56.56 0 0 1 0 .08Z" />
  <path d="M119.81 247.16c-4.85 4.79-6.35 13.58-6.66 16.07a11.31 11.31 0 0 0-1 3.25 72.42 72.42 0 0 0-.31 12.09c.03 1.3.09 2.61.16 3.92l.67-.13a134.13 134.13 0 0 1-.06-13.16 15.81 15.81 0 0 1 .96-5.4.71.71 0 0 0 .22-.2 131.44 131.44 0 0 1 9.53-12.38c2.97-3.23 6.88-4.73 10.9-6.21 1.81-.67 7.52-1.87 7.55-4.34-7.6.89-16.38.98-21.96 6.49Zm-.21-2.36a15.86 15.86 0 0 1-.1-5.5l-.53.3a16.24 16.24 0 0 0 .15 5.32c.06.32.55.2.49-.11Zm-1.85 1a20.95 20.95 0 0 1-.7-4.92l-.5.38a21.15 21.15 0 0 0 .7 4.65c.1.3.58.2.5-.11Z" />
  <path fill="#fff" d="M118.9 283.54c-8.79-9.95-4.02-17.83-4.02-17.83H99.04s4.77 7.88-4.02 17.83c-4.37 4.94-7.92 15.99 1.65 22.78.46.33 1.2.85 1.13 1.56h18.32c-.07-.7.68-1.23 1.14-1.56 9.56-6.8 6-17.84 1.64-22.78Z" />
  <path d="M116.46 308.2h-19l.03-.35c.05-.53-.59-.98-1-1.27a13.72 13.72 0 0 1-6.12-9.84 18.21 18.21 0 0 1 4.41-13.41c8.52-9.64 4.03-17.38 3.99-17.46l-.29-.48h16.95l-.28.48c-.05.08-4.54 7.82 3.98 17.46a18.21 18.21 0 0 1 4.41 13.41 13.71 13.71 0 0 1-6.1 9.83c-.43.3-1.07.75-1.01 1.28l.03.34Zm-18.36-.64h17.72a2.66 2.66 0 0 1 1.25-1.5 13.12 13.12 0 0 0 5.85-9.4 17.57 17.57 0 0 0-4.26-12.92c-7.62-8.62-5.15-15.84-4.3-17.72h-14.8c.85 1.88 3.32 9.1-4.3 17.72A17.55 17.55 0 0 0 91 296.66a13.11 13.11 0 0 0 5.84 9.4 2.7 2.7 0 0 1 1.26 1.5Z" />
  <path d="M119 283.54c-8.78-9.95-4.01-17.83-4.01-17.83h-3.34c-4.04 4.89-9.98 5.97-12.1 1.24 1.7 4.78.5 9.5-2.7 14.17 1.32-1.24 5.57-2.48 8.6-2.07 7.24.97 12.75 7.32 13.76 14.46.65 4.6-3.24 12.43-12.96 12.43-9.1 0-12.77-3.66-14.46-5.52a14.25 14.25 0 0 0 4.98 5.9c.46.32 1.2.85 1.14 1.56h18.3c-.06-.71.68-1.24 1.14-1.56 9.56-6.8 6.01-17.84 1.65-22.79Z" />
  <path d="M95.02 283.53q1-1.2 1.83-2.42a8.64 8.64 0 0 0-1.83 2.42Zm4.52-16.59a16.07 16.07 0 0 0-.5-1.24c.16.44.33.86.5 1.24Zm162.28-12.68h-92.76a12.38 12.38 0 0 1-12.3-13.86l20.29-169.1A16.25 16.25 0 0 1 193.19 57h92.75a12.38 12.38 0 0 1 12.3 13.86l-20.29 169.08a16.25 16.25 0 0 1-16.13 14.32Z" />
  <path fill="#fff" d="M161.94 249.76a11.88 11.88 0 0 1-11.8-13.3l20.29-169.09a15.76 15.76 0 0 1 15.64-13.87h92.75a11.88 11.88 0 0 1 11.8 13.3l-20.29 169.08a15.76 15.76 0 0 1-15.64 13.87h-92.75Z" />
  <path d="M278.82 54a11.39 11.39 0 0 1 11.3 12.74l-20.29 169.08a15.26 15.26 0 0 1-15.14 13.44h-92.75a11.39 11.39 0 0 1-11.3-12.74l20.29-169.09A15.26 15.26 0 0 1 186.06 54h92.75m0-1h-92.75a16.25 16.25 0 0 0-16.14 14.31L149.64 236.4a12.38 12.38 0 0 0 12.3 13.86h92.76a16.25 16.25 0 0 0 16.13-14.32l20.29-169.08A12.38 12.38 0 0 0 278.82 53Z" />
  <path d="M241.8 166h-51.4a14.13 14.13 0 0 1-14-16 17.1 17.1 0 0 1 16.95-14.84h51.4a14.13 14.13 0 0 1 14 16A17.1 17.1 0 0 1 241.82 166Z" />
  <path fill="#f40" d="M239.54 164.08h-51.4a14.13 14.13 0 0 1-14.01-16 17.1 17.1 0 0 1 16.95-14.83h51.4a14.13 14.13 0 0 1 14 16 17.1 17.1 0 0 1-16.94 14.83Z" />
  <path d="M190.2 90.93a3.5 3.5 0 0 1-3.52-3.82 4.17 4.17 0 0 1 4.08-3.83 3.5 3.5 0 0 1 3.53 3.83 4.17 4.17 0 0 1-4.09 3.82m.99-13.38a10.19 10.19 0 0 0-9.97 9.32 8.46 8.46 0 0 0 8.3 9.33 8.4 8.4 0 0 1-4.97-1.8 6.88 6.88 0 0 1 5.62-3.04 5.77 5.77 0 0 1 5.17 3.05 9.57 9.57 0 0 1-5.23 1.79 10.2 10.2 0 0 0 9.67-9.33 8.53 8.53 0 0 0-8.59-9.33" />
  <path fill="#f40" d="M190.76 83.28a4.17 4.17 0 0 0-4.08 3.82 3.5 3.5 0 0 0 3.52 3.83 4.18 4.18 0 0 0 4.09-3.83 3.5 3.5 0 0 0-3.53-3.82m-.59 8.08a6.87 6.87 0 0 0-5.62 3.04 8.39 8.39 0 0 0 4.96 1.8h.6a9.6 9.6 0 0 0 5.23-1.8 5.77 5.77 0 0 0-5.17-3.04m65.32-7.93a2.92 2.92 0 0 0-2.86 2.68 2.45 2.45 0 0 0 2.46 2.68 2.93 2.93 0 0 0 2.87-2.68 2.45 2.45 0 0 0-2.47-2.68m8.71 0a2.93 2.93 0 0 0-2.87 2.68 2.45 2.45 0 0 0 2.47 2.68 2.93 2.93 0 0 0 2.86-2.68 2.45 2.45 0 0 0-2.46-2.68m8.7 0a2.92 2.92 0 0 0-2.86 2.68 2.44 2.44 0 0 0 2.47 2.68 2.93 2.93 0 0 0 2.86-2.68 2.45 2.45 0 0 0-2.47-2.68" />
  <path fill="#aab6c2" d="M234.48 194.17h-40a9.76 9.76 0 0 0-9.56 8.94 8.17 8.17 0 0 0 8.23 8.93h40a9.76 9.76 0 0 0 9.56-8.93 8.17 8.17 0 0 0-8.23-8.94" />
  <path d="M278.8 53h-92.32a16.75 16.75 0 0 0-16.65 14.89l-.5 4.42H289.4l.74-6.62A11.41 11.41 0 0 0 278.8 53Z" />
  <path fill="#fff" stroke="#000" stroke-width="3" d="M181.99 59.98a2.92 2.92 0 0 0-2.86 2.67 2.45 2.45 0 0 0 2.46 2.68 2.93 2.93 0 0 0 2.87-2.68 2.45 2.45 0 0 0-2.47-2.67" />
  <path fill="#f40" d="M190.7 59.98a2.93 2.93 0 0 0-2.87 2.67 2.45 2.45 0 0 0 2.47 2.68 2.93 2.93 0 0 0 2.86-2.68 2.45 2.45 0 0 0-2.47-2.67" />
  <path fill="#aab6c2" d="M199.4 59.98a2.92 2.92 0 0 0-2.86 2.67 2.44 2.44 0 0 0 2.46 2.68 2.93 2.93 0 0 0 2.87-2.68 2.45 2.45 0 0 0-2.47-2.67" />
  <g transform="translate(86.912 76.071)">
    <path fill="#fff" d="M16.33 56.26a2.98 2.98 0 0 1-2.98-3.4 3.83 3.83 0 0 1 3.7-3.4h32.87a2.98 2.98 0 0 1 2.98 3.4 3.83 3.83 0 0 1-3.69 3.4H16.33m.87-8.25a2.98 2.98 0 0 1-2.99-3.4 3.83 3.83 0 0 1 3.7-3.4h32.87a2.98 2.98 0 0 1 2.99 3.4 3.83 3.83 0 0 1-3.7 3.4H17.2m16.6-9.67c-8.42 0-14.53-6.95-13.63-15.53S28.63 7.3 37.05 7.3s14.53 6.93 13.65 15.5a17.24 17.24 0 0 1-3.71 8.94v.1a17.05 17.05 0 0 1-13.07 6.5h-.1M57.52.7H18.98a13.18 13.18 0 0 0-12.7 11.67L1.98 53.5a10.24 10.24 0 0 0 10.25 11.68H50.8A13.18 13.18 0 0 0 63.5 53.5l4.3-41.13A10.24 10.24 0 0 0 57.53.7" />
    <path d="M12.23 65.18A10.24 10.24 0 0 1 1.98 53.5l4.3-41.13A13.18 13.18 0 0 1 18.98.7h38.55a10.24 10.24 0 0 1 10.25 11.67l-4.3 41.13A13.18 13.18 0 0 1 50.8 65.18H12.23M57.6 0H19.05A13.95 13.95 0 0 0 5.59 12.37L1.3 53.5c-.71 6.84 4.16 12.38 10.87 12.38h38.56A13.95 13.95 0 0 0 64.17 53.5l4.3-41.13C69.18 5.54 64.32 0 57.6 0" />
    <path fill="#aab6c2" d="M37.05 7.28c-8.42 0-15.99 6.96-16.88 15.53s5.2 15.53 13.63 15.53h.07a13.4 13.4 0 0 1-12.56-8.23 19.02 19.02 0 0 1 3.54-5.51 4.84 4.84 0 0 1 .48-.4 6.8 6.8 0 0 1 2.8-.96 46.54 46.54 0 0 1 6-.58v-.01l.28-2.6-.27-.43a1.12 1.12 0 0 1-.45.1 1.07 1.07 0 0 1-.31-.06c-.75-.22-.6-.95-.79-1.55a1.37 1.37 0 0 1-.07-1 1.94 1.94 0 0 1 .2-.34c-.03-.02-.03-.13-.06-.25a2.1 2.1 0 0 1 .53-1.93c-.01-1.94 2.29-3.3 4.26-3.3a3.02 3.02 0 0 1 1.95.61 2.57 2.57 0 0 1 1.25-.43.98.98 0 0 1 .82.42c.64.85-.16 1.83-.88 2.45a17.68 17.68 0 0 1 .61 3.98 3.9 3.9 0 0 1-2.28 3.07 4.03 4.03 0 0 1-.5.2l-.12 1.2c3.18.33 6 1.2 7.74 2.93a32.62 32.62 0 0 1 .94 6.02 17.24 17.24 0 0 0 3.71-8.93c.9-8.58-5.2-15.53-13.63-15.53" />
    <path fill="#f40" d="M34.13 22.67a45.95 45.95 0 0 0-6 .58 6.73 6.73 0 0 0-2.8.96 4.92 4.92 0 0 0-.48.4 18.92 18.92 0 0 0-3.54 5.52 13.4 13.4 0 0 0 12.55 8.22h.05a17.04 17.04 0 0 0 13.07-6.5v-.1a32.57 32.57 0 0 0-.95-6.01c-1.75-1.72-4.56-2.6-7.74-2.93l-.1.97c.08.26.36 1.2.05 1.66a.58.58 0 0 1-.42.27 2.9 2.9 0 0 1-.38.03c-2.3 0-3.26-2.86-3.3-2.99v-.07" />
    <path fill="#fff" d="m34.74 20.49-.22 2.13c.12.32 1.05 2.71 2.98 2.71a2.5 2.5 0 0 0 .31-.02.15.15 0 0 0 .12-.07 2.2 2.2 0 0 0-.12-1.35v-.08l.21-2.1a3.18 3.18 0 0 1-3.12-1.06l-.16-.17" />
    <path d="m34.4 20.05-.26 2.61v.08c.05.12 1 2.98 3.3 2.98a2.89 2.89 0 0 0 .38-.02.58.58 0 0 0 .42-.27c.3-.47.03-1.4-.05-1.67l.1-.96.12-1.2q-.2.07-.39.11l-.22 2.1v.08a2.2 2.2 0 0 1 .12 1.36.15.15 0 0 1-.11.07 2.56 2.56 0 0 1-.32.02c-1.92 0-2.86-2.4-2.97-2.72l.22-2.13a6.16 6.16 0 0 1-.34-.43" />
    <path fill="#fff" d="M39.8 14.27c-.9.47-2.14.62-2.98 1.02a16.84 16.84 0 0 1-2.03 1.03 4.72 4.72 0 0 1 .1 2.53 1.48 1.48 0 0 1-.4.57 5.27 5.27 0 0 0 .7.96 2.9 2.9 0 0 0 2.17 1.02 3.28 3.28 0 0 0 1.43-.35 3.44 3.44 0 0 0 2.03-2.67 17.18 17.18 0 0 0-.59-3.83h-.04a.43.43 0 0 1-.38-.28" />
    <path d="M40.58 14.35a1.83 1.83 0 0 1-.1.08.47.47 0 0 1-.25.11 17.17 17.17 0 0 1 .58 3.84 3.44 3.44 0 0 1-2.03 2.67 3.25 3.25 0 0 1-1.42.35 2.9 2.9 0 0 1-2.17-1.03 5.25 5.25 0 0 1-.7-.96 1.23 1.23 0 0 1-.35.22 4.72 4.72 0 0 0 .27.42 5 5 0 0 0 .49.6 3.3 3.3 0 0 0 2.44 1.13 3.08 3.08 0 0 0 .68-.08 2.85 2.85 0 0 0 .4-.1 4.03 4.03 0 0 0 .5-.22 3.9 3.9 0 0 0 2.27-3.07 17.68 17.68 0 0 0-.61-3.98" />
    <path d="M33.2 14.6a2.11 2.11 0 0 0-.54 1.93l.05.25a2.2 2.2 0 0 0-.19.33 1.37 1.37 0 0 0 .07 1.01c.2.6.04 1.33.78 1.55a1.07 1.07 0 0 0 .33.05 1.13 1.13 0 0 0 .44-.1 1.37 1.37 0 0 0 .34-.2 1.48 1.48 0 0 0 .4-.57 4.72 4.72 0 0 0-.1-2.54 1.5 1.5 0 0 1-.42.07c-.42 0-.78-.24-1.02-.92a2.69 2.69 0 0 1-.15-.86" />
    <path d="M37.45 11.3c-1.97 0-4.27 1.36-4.26 3.3a2.6 2.6 0 0 0 .15.86c.24.68.6.92 1.03.92a1.5 1.5 0 0 0 .42-.07 15.93 15.93 0 0 0 2.03-1.03c.84-.4 2.08-.54 2.98-1.01a.42.42 0 0 0 .39.27h.04a.5.5 0 0 0 .25-.11l.1-.09c.72-.6 1.52-1.59.88-2.45a.98.98 0 0 0-.82-.42 2.58 2.58 0 0 0-1.25.44 2.99 2.99 0 0 0-1.94-.62" />
    <path fill="#aab6c2" d="M50.78 41.22H17.91a3.83 3.83 0 0 0-3.7 3.4 2.98 2.98 0 0 0 2.99 3.4h32.87a3.83 3.83 0 0 0 3.7-3.4 2.98 2.98 0 0 0-2.99-3.4m-.86 8.24H17.04a3.83 3.83 0 0 0-3.7 3.4 2.98 2.98 0 0 0 3 3.4H49.2a3.83 3.83 0 0 0 3.7-3.4 2.98 2.98 0 0 0-2.99-3.4" />
  </g>
  <g transform="translate(256.719 25.664)">
    <path fill="#fff" d="M13.6 46.83A2.48 2.48 0 0 1 11.12 44a3.2 3.2 0 0 1 3.07-2.83h27.37A2.48 2.48 0 0 1 44.05 44a3.19 3.19 0 0 1-3.08 2.83H13.6m.72-6.86a2.48 2.48 0 0 1-2.49-2.83 3.2 3.2 0 0 1 3.08-2.83h27.37a2.48 2.48 0 0 1 2.48 2.83 3.2 3.2 0 0 1-3.07 2.83H14.32m13.82-8.05c-7.01 0-12.1-5.79-11.35-12.93A14.57 14.57 0 0 1 30.84 6.07a12.03 12.03 0 0 1 3.35.46 5.31 5.31 0 0 1 1.64-.27 3.04 3.04 0 0 1 1.92.58 4.43 4.43 0 0 1 1.4 2.72 11.58 11.58 0 0 1 3.1 7.69l.78-.12a.55.55 0 0 1 .22-.05.35.35 0 0 1 .37.49 5.27 5.27 0 0 1-1.54 2.25 14.45 14.45 0 0 1-2.98 6.6.74.74 0 0 0 .01.09 14.2 14.2 0 0 1-10.88 5.4h-.09M47.9.57H15.8a10.97 10.97 0 0 0-10.57 9.72L1.65 44.53a8.53 8.53 0 0 0 8.54 9.71h32.1a10.97 10.97 0 0 0 10.56-9.71l3.58-34.24A8.53 8.53 0 0 0 47.9.57" />
    <path d="M10.18 54.25a8.53 8.53 0 0 1-8.53-9.72L5.23 10.3A10.97 10.97 0 0 1 15.79.58h32.1a8.53 8.53 0 0 1 8.54 9.71l-3.58 34.24a10.97 10.97 0 0 1-10.57 9.72h-32.1M47.95 0h-32.1a11.61 11.61 0 0 0-11.2 10.3L1.07 44.53a9.03 9.03 0 0 0 9.05 10.3h32.1a11.61 11.61 0 0 0 11.2-10.3L57 10.3A9.03 9.03 0 0 0 47.95 0" />
    <path fill="#f40" d="M42.08 19.82a7.12 7.12 0 0 1-3.72 1.75 27.12 27.12 0 0 1 .75 4.86 14.47 14.47 0 0 0 2.98-6.6m-8.04-7.25a4.36 4.36 0 0 1-.79 2.47 2.5 2.5 0 0 1-1.65 1.14.67.67 0 0 1-.23-.04l-.11.13-.28 2.64a18.95 18.95 0 0 1 3.28.47 7.24 7.24 0 0 1-.62-3.74 24.34 24.34 0 0 0 .4-3.07m5.12-3.01c.04.26.08.53.1.8a27.24 27.24 0 0 1-.01 3.21 7.74 7.74 0 0 0 .16 2.51 1.99 1.99 0 0 0 2.06 1.22 6.56 6.56 0 0 0 .78-.06 11.57 11.57 0 0 0-3.1-7.69m-8.31-3.5A14.57 14.57 0 0 0 16.79 19c-.74 7.14 4.34 12.93 11.35 12.93h.05a11.15 11.15 0 0 1-10.45-6.85 15.85 15.85 0 0 1 2.94-4.58 4.21 4.21 0 0 1 .41-.33 5.63 5.63 0 0 1 2.32-.8c1.24-.2 2.53-.36 3.84-.44l.11-1.1a3.05 3.05 0 0 1-.78-.3 2.32 2.32 0 0 1-1.33-2.42 17.26 17.26 0 0 1 1.14-3.17.87.87 0 0 1-.59-.42 1.1 1.1 0 0 1 .5-1.47c.18-.1.4-.11.58-.22.55-.33.35-.49.68-.82a2.35 2.35 0 0 1 .91-.6 3.73 3.73 0 0 1 1.28-.22 6.29 6.29 0 0 1 1.32.16.5.5 0 0 1 .4-.23.47.47 0 0 1 .15.03l.14.06a4.9 4.9 0 0 1 2.43-1.67 12.03 12.03 0 0 0-3.34-.47" />
    <path fill="#aab6c2" d="M30.99 18.9v.07l-.06.05c-.09.09-2.05 2-3.48 2.01a1.57 1.57 0 0 1-.28-.03.42.42 0 0 1-.33-.28c-.14-.39.24-1.06.35-1.24l.06-.56c-1.3.08-2.6.23-3.84.43a5.63 5.63 0 0 0-2.32.8 3.95 3.95 0 0 0-.4.34 15.78 15.78 0 0 0-2.95 4.58 11.15 11.15 0 0 0 10.46 6.85h.03a14.2 14.2 0 0 0 10.88-5.4.87.87 0 0 0 0-.09 26.84 26.84 0 0 0-.75-4.86 5.1 5.1 0 0 1-.63.04 3.59 3.59 0 0 1-2.21-.68 4.33 4.33 0 0 1-1.25-1.55 18.95 18.95 0 0 0-3.28-.47" />
    <path d="M35.83 6.26a5.31 5.31 0 0 0-1.64.27 4.9 4.9 0 0 0-2.43 1.67 2.87 2.87 0 0 1 1.93 1.85.42.42 0 0 1-.15.43l.1.15a3.96 3.96 0 0 1 .4 1.94 24.98 24.98 0 0 1-.39 3.07 7.29 7.29 0 0 0 .62 3.74 4.3 4.3 0 0 0 1.25 1.55 3.6 3.6 0 0 0 2.2.68 5.13 5.13 0 0 0 .64-.04 7.08 7.08 0 0 0 3.72-1.75 5.3 5.3 0 0 0 1.54-2.25.36.36 0 0 0-.37-.48.56.56 0 0 0-.22.05l-.77.1a5.9 5.9 0 0 1-.79.07 1.99 1.99 0 0 1-2.06-1.22 7.76 7.76 0 0 1-.16-2.51 26.55 26.55 0 0 0 .02-3.22 9.8 9.8 0 0 0-.11-.8 4.45 4.45 0 0 0-1.41-2.7 3.05 3.05 0 0 0-1.92-.6" />
    <path fill="#fff" d="m30.88 16.66-.17.15a4.06 4.06 0 0 1-2.64 1.1 2.87 2.87 0 0 1-.38-.02l-.2 1.72c-.18.29-.4.78-.33.97a.13.13 0 0 0 .1.09 1.04 1.04 0 0 0 .24.02c1.16 0 2.84-1.55 3.16-1.85l.22-2.18" />
    <path d="m31.26 16.27-.38.39-.22 2.18c-.31.3-2 1.84-3.16 1.84a1.03 1.03 0 0 1-.23-.02c-.08-.02-.1-.05-.11-.08-.07-.2.16-.69.34-.97l.19-1.72a2.87 2.87 0 0 1-.33-.06l-.11 1.09-.06.56c-.11.18-.5.85-.35 1.24a.43.43 0 0 0 .33.28 1.6 1.6 0 0 0 .28.03c1.43 0 3.4-1.92 3.48-2.01l.05-.05v-.07l.28-2.63" />
    <path fill="#fff" d="M29.1 10.45c-.2.19-.4.48-.6.67a3.17 3.17 0 0 1-1.01.68 2.2 2.2 0 0 1-.75.16 17.18 17.18 0 0 0-1.16 3.2 2.04 2.04 0 0 0 1.18 2.06 2.76 2.76 0 0 0 1.34.34 3.7 3.7 0 0 0 2.4-1 6.6 6.6 0 0 0 .6-.6 1.23 1.23 0 0 1-.29-.44 3.3 3.3 0 0 1-.21-.97.02.02 0 0 1-.01 0c-.12.17-1.12.2-1.12.2a1.8 1.8 0 0 1-.2-1.06c.1-.58.14-1.03.38-1.22.19-.16.27-.31.43-.31a.42.42 0 0 1 .14.03c.28.1.52.23.52.23l.05.19a4.69 4.69 0 0 0 .1-1 2.29 2.29 0 0 0-1.53-1.14l-.26-.02" />
    <path d="M26.4 11.93a17.36 17.36 0 0 0-1.15 3.17 2.32 2.32 0 0 0 1.33 2.42 3.13 3.13 0 0 0 .78.3 2.74 2.74 0 0 0 .33.06 2.91 2.91 0 0 0 .38.02 4.07 4.07 0 0 0 2.64-1.1 6.92 6.92 0 0 0 .66-.67.75.75 0 0 1-.28-.17 6.6 6.6 0 0 1-.6.59 3.7 3.7 0 0 1-2.4 1 2.76 2.76 0 0 1-1.33-.35 2.04 2.04 0 0 1-1.18-2.06 16.96 16.96 0 0 1 1.16-3.19h-.05a1.44 1.44 0 0 1-.3-.03m2.72-1.49.26.02a1.65 1.65 0 0 0-.26-.02" />
    <path d="M29.75 8.18a3.74 3.74 0 0 0-1.27.21 2.35 2.35 0 0 0-.92.61c-.33.33-.13.5-.68.82-.17.11-.4.12-.58.22a1.1 1.1 0 0 0-.5 1.47.89.89 0 0 0 .6.42 1.42 1.42 0 0 0 .3.03h.05a2.21 2.21 0 0 0 .75-.17 3.16 3.16 0 0 0 1.01-.67c.2-.2.4-.48.6-.68a1.71 1.71 0 0 1 .26.02 2.3 2.3 0 0 1 1.54 1.15 4.88 4.88 0 0 1-.1 1 1.48 1.48 0 0 1 .35-.06.8.8 0 0 1 .37.08.66.66 0 0 1 .35.54 1.25 1.25 0 0 1-.45 1.14 1.04 1.04 0 0 1-.63.26.56.56 0 0 1-.19-.03 3.34 3.34 0 0 0 .22.97 1.27 1.27 0 0 0 .28.45.72.72 0 0 0 .28.18.76.76 0 0 0 .23.03 2.5 2.5 0 0 0 1.65-1.13 4.36 4.36 0 0 0 .79-2.47 3.92 3.92 0 0 0-.41-1.94l-.1-.15a.52.52 0 0 1-.32.12.34.34 0 0 1-.34-.27c-.22-.8-.98-1.14-1.7-1.41-.26-.1-.25-.38-.1-.58a6.1 6.1 0 0 0-1.33-.15" />
    <path fill="#fff" d="M31.11 12.9a1.25 1.25 0 0 0-.34.06l-.06.97-.05.23a.16.16 0 0 0 .07.06.24.24 0 0 0 .1.01.65.65 0 0 0 .4-.17.86.86 0 0 0 .3-.8.36.36 0 0 0-.2-.3.52.52 0 0 0-.22-.05" />
    <path d="M31.15 12.56a1.49 1.49 0 0 0-.35.04l-.03.36a1.25 1.25 0 0 1 .34-.06.53.53 0 0 1 .24.05.36.36 0 0 1 .18.3.86.86 0 0 1-.3.8.68.68 0 0 1-.4.17.23.23 0 0 1-.09-.01.16.16 0 0 1-.07-.06v.05a.43.43 0 0 0-.06.3.05.05 0 0 1-.01.04h.01a.56.56 0 0 0 .19.03 1.02 1.02 0 0 0 .63-.26 1.23 1.23 0 0 0 .44-1.15.67.67 0 0 0-.34-.53.8.8 0 0 0-.37-.08" />
    <path fill="#f40" d="M31.47 8.11a.5.5 0 0 0-.4.23c-.14.2-.15.47.12.57.7.27 1.47.62 1.68 1.42a.34.34 0 0 0 .35.27.51.51 0 0 0 .32-.12.41.41 0 0 0 .15-.44 2.87 2.87 0 0 0-1.93-1.84l-.15-.06a.4.4 0 0 0-.15-.03" />
    <path fill="#fff" d="M30.09 12.15c-.17 0-.25.15-.43.3-.24.2-.28.65-.38 1.23a1.8 1.8 0 0 0 .2 1.07s1-.04 1.11-.21a.07.07 0 0 0 .01-.04.43.43 0 0 1 .06-.3v-.05l.06-.22.06-.98.02-.35-.04-.2-.52-.23a.44.44 0 0 0-.15-.03" />
    <path fill="#aab6c2" d="M42.28 34.3H14.91a3.2 3.2 0 0 0-3.08 2.84 2.48 2.48 0 0 0 2.49 2.83h27.37a3.2 3.2 0 0 0 3.07-2.83 2.48 2.48 0 0 0-2.48-2.83m-.72 6.87H14.19A3.19 3.19 0 0 0 11.1 44a2.48 2.48 0 0 0 2.49 2.83h27.37A3.2 3.2 0 0 0 44.04 44a2.48 2.48 0 0 0-2.48-2.83" />
  </g>
  <g transform="translate(133.935 219.471)">
    <path fill="#fff" d="M15.18 52.27a2.77 2.77 0 0 1-2.78-3.15 3.56 3.56 0 0 1 3.44-3.16h30.55a2.77 2.77 0 0 1 2.77 3.16 3.56 3.56 0 0 1-3.43 3.15H15.18m.8-7.66a2.77 2.77 0 0 1-2.78-3.16 3.56 3.56 0 0 1 3.44-3.15h30.55a2.77 2.77 0 0 1 2.77 3.15 3.56 3.56 0 0 1-3.43 3.16H15.98m6.19-12.86a13.11 13.11 0 0 1-3.39-10.5c.83-7.95 7.83-14.39 15.64-14.39s13.46 6.44 12.63 14.38-7.83 14.38-15.64 14.38h-.03a12.52 12.52 0 0 1-9.21-3.87M53.46.65H17.63a12.25 12.25 0 0 0-11.8 10.84l-4 38.22a9.52 9.52 0 0 0 9.53 10.85H47.2A12.25 12.25 0 0 0 59 49.71l4-38.22A9.52 9.52 0 0 0 53.46.64" />
    <path d="M11.37 60.56a9.52 9.52 0 0 1-9.53-10.85l4-38.22A12.25 12.25 0 0 1 17.64.65h35.83a9.52 9.52 0 0 1 9.52 10.85L59 49.7a12.25 12.25 0 0 1-11.8 10.85H11.37M53.53 0H17.7A12.97 12.97 0 0 0 5.2 11.5l-4 38.21a10.08 10.08 0 0 0 10.1 11.5h35.82a12.96 12.96 0 0 0 12.5-11.5l4-38.22A10.08 10.08 0 0 0 53.52 0" />
    <path fill="#aab6c2" d="M47.19 38.3H16.64a3.56 3.56 0 0 0-3.44 3.15 2.77 2.77 0 0 0 2.78 3.16h30.55a3.56 3.56 0 0 0 3.43-3.16 2.77 2.77 0 0 0-2.77-3.16m-.8 7.67H15.84a3.56 3.56 0 0 0-3.44 3.16 2.77 2.77 0 0 0 2.78 3.15h30.55a3.56 3.56 0 0 0 3.43-3.15 2.77 2.77 0 0 0-2.77-3.16M34.42 6.86c-7.8 0-14.8 6.44-15.64 14.38a13.11 13.11 0 0 0 3.39 10.51 10.87 10.87 0 0 1 6.58-4.27l-.02-.05.07-.09a6.74 6.74 0 0 0 .87-1.3 2.23 2.23 0 0 1-1.36-.87 3.52 3.52 0 0 1-.12-2.04l-.06-.32-.5-.15a.36.36 0 0 1-.24-.23.45.45 0 0 1 .03-.36 8.77 8.77 0 0 1 .7-1.04 8.08 8.08 0 0 1 .32-1.51 8.42 8.42 0 0 1 .63-1.47 2.75 2.75 0 0 1-1.12-.37 2.01 2.01 0 0 1 .08-3.4c1.23-.87 3.88-1.26 5.43-1.26a5.02 5.02 0 0 1 .87.06 4.96 4.96 0 0 1 3.48 5.7c-.47 1.71-1.67 4.4-3.03 4.6-.12.19-.25.36-.4.53l-.06.1a1.71 1.71 0 0 1-.16.25 7.63 7.63 0 0 0 .06 3.02l.02.1a9.64 9.64 0 0 1 5.2 2.94l.45.5a13.18 13.18 0 0 1 1 1.37 15.36 15.36 0 0 1-9.5 3.43h.02c7.8 0 14.8-6.44 15.63-14.38S42.22 6.86 34.41 6.86" />
    <path fill="#f40" d="M34.25 27.38v.03l-.12.07a6.9 6.9 0 0 1-3.3 1.12 2.87 2.87 0 0 1-.78-.1 1.96 1.96 0 0 1-1.28-.98l-.02-.04a10.87 10.87 0 0 0-6.58 4.27 12.54 12.54 0 0 0 9.21 3.88h.02a15.34 15.34 0 0 0 9.49-3.44 13.38 13.38 0 0 0-1-1.37 6.97 6.97 0 0 0-.45-.5 9.66 9.66 0 0 0-5.2-2.94" />
    <path fill="#fff" d="M33.77 24.78a4.7 4.7 0 0 1-.62.64 4.83 4.83 0 0 1-2.57.72 4.22 4.22 0 0 1-.59-.04 6.88 6.88 0 0 1-.88 1.35 1.78 1.78 0 0 0 1.07.74 2.58 2.58 0 0 0 .69.09 6.4 6.4 0 0 0 3.02-1 7.8 7.8 0 0 1-.11-2.5" />
    <path d="M34.16 24.27a7.15 7.15 0 0 1-.4.51 7.9 7.9 0 0 0 .12 2.5 6.4 6.4 0 0 1-3.03 1 2.56 2.56 0 0 1-.69-.08 1.78 1.78 0 0 1-1.06-.75 6.92 6.92 0 0 0 .88-1.35l-.32-.06a6.65 6.65 0 0 1-.87 1.31l-.07.09.02.05.02.04a1.96 1.96 0 0 0 1.29.98 2.87 2.87 0 0 0 .77.1 6.9 6.9 0 0 0 3.3-1.12l.13-.07v-.03l-.04-.1a7.67 7.67 0 0 1-.05-3.02" />
    <path fill="#fff" d="M34.93 19a9.47 9.47 0 0 0-.12 1.13 1.77 1.77 0 0 1 .66-.38 2.43 2.43 0 0 0-.15-.66 1.1 1.1 0 0 1-.39-.08m-1.9-1.78a3.25 3.25 0 0 0-1.42.38 4.71 4.71 0 0 1-2.07.48h-.14a8.02 8.02 0 0 0-.66 1.5 7.61 7.61 0 0 0-.24.94l.75-.9a.17.17 0 0 0 0-.04 1.37 1.37 0 0 1 .57-.93.46.46 0 0 1 .23-.07c.44 0 .92.7.87 2.3a2.16 2.16 0 0 1-1.44 2.24l.01-.06h-.05a3.6 3.6 0 0 1-.7-.1 2.5 2.5 0 0 0 1.14.29c2.4 0 4.19-3.72 4.58-4.6a1.4 1.4 0 0 1-.25-.6 1.07 1.07 0 0 0-1.18-.82" />
    <path d="M34.78 23.4a.61.61 0 0 1-.1 0 3.2 3.2 0 0 1-.3.52l.4-.52m-6.64-.59.06.32.05-.29-.11-.03m.93-4.75a8.46 8.46 0 0 0-.63 1.47 8.02 8.02 0 0 0-.33 1.51c.13-.17.26-.35.4-.51a8.29 8.29 0 0 1 .24-.93 8.03 8.03 0 0 1 .66-1.51l-.33-.03" />
    <path fill="#fff" d="M29.3 20.04a16.08 16.08 0 0 0-1.6 2.17.13.13 0 0 0-.01.1.1.1 0 0 0 .06.06 7.5 7.5 0 0 0 1.7.38h.05c-.01-.7-.14-2.01-.2-2.7" />
    <path d="M29.25 19.62a34.7 34.7 0 0 0-1.15 1.42 9.38 9.38 0 0 0-.68 1.03.46.46 0 0 0-.04.36.38.38 0 0 0 .25.24l.5.15.1.03.04-.17a3.36 3.36 0 0 0 .47.29 3.6 3.6 0 0 0 .69.09h.05l.01-.31h-.04a7.49 7.49 0 0 1-1.7-.39.1.1 0 0 1-.07-.06.13.13 0 0 1 0-.1 16.09 16.09 0 0 1 1.6-2.16l-.03-.42m4.21-6.59c-1.55 0-4.2.39-5.44 1.26a2 2 0 0 0-.07 3.4 2.75 2.75 0 0 0 1.12.37l.33.03h.14a4.72 4.72 0 0 0 2.06-.48 3.24 3.24 0 0 1 1.42-.38 1.06 1.06 0 0 1 1.18.83 1.38 1.38 0 0 0 .25.59l.08-.19a1.05 1.05 0 0 1 .3-.06c.12 0 .22.04.18.2a10.1 10.1 0 0 0-.08.4 1.11 1.11 0 0 0 .38.08 2.43 2.43 0 0 1 .15.66.86.86 0 0 1 .19-.02.6.6 0 0 1 .5.26l.04.06.06.08c.38.5.03 1.58-.52 2.14a1.12 1.12 0 0 1-.77.38h-.07a3.1 3.1 0 0 1-.22.77l.1-.01c1.37-.21 2.57-2.9 3.03-4.61a4.42 4.42 0 0 0-4.35-5.76" />
    <path fill="#fff" d="M35.65 19.8h-.02a1.35 1.35 0 0 0-.74.38c0 .02-.04.06-.1.13a8.59 8.59 0 0 0 .1 1.67.44.44 0 0 0 .14.02.77.77 0 0 0 .52-.27c.48-.5.73-1.39.47-1.72a.46.46 0 0 0-.37-.2m0-.09a.87.87 0 0 0-.19.03 1.68 1.68 0 0 0-.66.38v.03a1.5 1.5 0 0 1 .82-.35h.03a.73.73 0 0 1 .54.24l-.04-.06a.6.6 0 0 0-.5-.27" />
    <path d="M35.63 19.8a1.5 1.5 0 0 0-.83.36v.15a1.13 1.13 0 0 1 .1-.13 1.35 1.35 0 0 1 .73-.37m.02 0a.46.46 0 0 1 .38.2c.26.33 0 1.23-.47 1.72a.8.8 0 0 1-.52.27.44.44 0 0 1-.13-.02l.05.29-.06.37h.06a1.11 1.11 0 0 0 .77-.38c.56-.56.9-1.64.53-2.14a.75.75 0 0 0-.07-.07.73.73 0 0 0-.54-.24" />
    <path d="M34.84 18.4a1.04 1.04 0 0 0-.3.06s-.03.07-.08.19c-.4.89-2.18 4.6-4.58 4.6a2.5 2.5 0 0 1-1.14-.28 3.37 3.37 0 0 1-.47-.29s0 .06-.03.17l-.05.29a3.52 3.52 0 0 0 .12 2.03 2.23 2.23 0 0 0 1.36.87l.31.06a4.22 4.22 0 0 0 .58.04 4.82 4.82 0 0 0 2.58-.71 4.7 4.7 0 0 0 .62-.65c.15-.17.3-.36.4-.5a1.7 1.7 0 0 0 .16-.26l.06-.1a3.88 3.88 0 0 0 .3-.5 3.25 3.25 0 0 0 .22-.78 13 13 0 0 0 .06-.37 3.51 3.51 0 0 1-.05-.29 8.89 8.89 0 0 1-.1-1.67v-.18a8.9 8.9 0 0 1 .13-1.12l.08-.4c.04-.16-.06-.2-.18-.2" />
    <path fill="#fff" d="M30.05 18.59a.46.46 0 0 0-.24.07 1.37 1.37 0 0 0-.57.93.29.29 0 0 0 0 .03l.05.42c.07.7.2 2.01.2 2.7a2.76 2.76 0 0 1-.01.31.36.36 0 0 1-.01.07 2.15 2.15 0 0 0 1.44-2.24c.04-1.6-.43-2.3-.87-2.3" />
  </g>
  <g transform="translate(241.827 231.323)">
    <path fill="#fff" d="M22.59 27.56a4.59 4.59 0 0 1-4.6-5.23 5.9 5.9 0 0 1 5.7-5.23 4.58 4.58 0 0 1 4.58 5.23 5.9 5.9 0 0 1-5.68 5.23m17.32 0a4.58 4.58 0 0 1-4.59-5.23 5.9 5.9 0 0 1 5.69-5.23 4.59 4.59 0 0 1 4.6 5.23 5.9 5.9 0 0 1-5.7 5.23m17.33 0a4.59 4.59 0 0 1-4.6-5.23 5.9 5.9 0 0 1 5.7-5.23 4.59 4.59 0 0 1 4.59 5.23 5.9 5.9 0 0 1-5.69 5.23M71.82.96H13.57a9.1 9.1 0 0 0-8.78 8.07L1.9 36.84a7.08 7.08 0 0 0 7.08 8.07h58.26a9.1 9.1 0 0 0 8.78-8.07l2.9-27.81A7.08 7.08 0 0 0 71.83.96" />
    <path d="M8.97 44.91a7.08 7.08 0 0 1-7.09-8.07L4.8 9.03A9.1 9.1 0 0 1 13.56.96h58.26a7.08 7.08 0 0 1 7.1 8.07L76 36.84a9.11 9.11 0 0 1-8.77 8.07H8.97M71.93 0H13.67a10.18 10.18 0 0 0-9.81 9.03L.95 36.84a7.91 7.91 0 0 0 7.93 9.03h58.25a10.18 10.18 0 0 0 9.82-9.03l2.9-27.81A7.92 7.92 0 0 0 71.94 0" />
    <path fill="#aab6c2" d="M23.68 17.1A5.9 5.9 0 0 0 18 22.33a4.58 4.58 0 0 0 4.59 5.23 5.9 5.9 0 0 0 5.69-5.23 4.58 4.58 0 0 0-4.6-5.23m17.32 0a5.9 5.9 0 0 0-5.67 5.23 4.58 4.58 0 0 0 4.59 5.23 5.9 5.9 0 0 0 5.68-5.23 4.58 4.58 0 0 0-4.59-5.23m17.32 0a5.9 5.9 0 0 0-5.68 5.23 4.59 4.59 0 0 0 4.6 5.23 5.9 5.9 0 0 0 5.68-5.23 4.58 4.58 0 0 0-4.6-5.23" />
  </g>
  <path fill="none" stroke="#f40" stroke-width="2" d="m169.33 220.11 4.81-40.56a10.27 10.27 0 0 1 10.2-9.05h21a9.07 9.07 0 0 0 9.05-8.46m67.84 69.28 8.5-70.67a10.64 10.64 0 0 0-10.56-11.9h-28.44m31-68.25-4.09 32.72a11.36 11.36 0 0 1-11.27 9.95h-36a11.36 11.36 0 0 0-11.3 10.08m-66.41-28.33a6.6 6.6 0 0 1 6.55 7.42l-3.49 27.83a7.63 7.63 0 0 0 7.57 8.57h10.42" />
  <path fill="#fff" d="M338.92 290.5c.7-1 8.95-.76 9.06-.27.36 1.49 1.14 7.24.41 8.06-.7.8-7.05 3.86-7.31 2.4-.23-1.24-2.82-9.22-2.15-10.19Z" />
  <path d="M341.75 301.46a1.65 1.65 0 0 1-.43-.05.8.8 0 0 1-.62-.64 36.9 36.9 0 0 0-.58-2.18c-1.4-4.94-2-7.58-1.5-8.3.8-1.15 7.42-.91 8.94-.62.36.07.72.16.8.47.13.59 1.32 7.28.31 8.4-.64.72-5.03 2.92-6.92 2.92Zm-2.51-10.73c-.36.65 1.02 5.56 1.61 7.65.31 1.1.54 1.9.6 2.25 0 .01.07.06.34.07 1.64 0 5.83-2.12 6.32-2.66.5-.57 0-5.5-.46-7.58-1.15-.41-7.84-.4-8.41.27Z" />
  <path d="M348.85 296.49s4.03 5.5 1.61 9.94c0 0-15.83.82-21.85.3 0 0-4.07-5.05 1-6.02s9.9-2.24 9.9-2.24 5.9 2.3 9.34-1.98Z" />
  <path fill="#fff" d="M310.04 290.66c.76-.95 8.97-.1 9.05.4.25 1.51.6 7.3-.2 8.07-.76.73-8.97.65-9.12-.82-.13-1.27-.47-6.74.27-7.65Z" />
  <path d="M315.46 299.96a17.07 17.07 0 0 1-4.98-.6c-.25-.1-1.02-.38-1.08-1-.01-.08-.62-6.76.34-7.94.88-1.08 7.48-.35 8.98.05.35.1.7.21.75.53.16 1 .7 7.42-.32 8.4-.38.37-1.94.55-3.7.55Zm-5.13-9.06c-.53.66-.4 5.22-.18 7.37 0 .04.1.17.47.32 2.06.86 7.48.7 8.02.26.54-.52.41-5.47.1-7.59-1.12-.5-7.8-.98-8.4-.36Z" />
  <path d="M319.49 297.37s3.75 5.45 1.01 9.7c0 0-16-.05-21.96-1.02 0 0-3.69-5.34 1.44-5.93s10.04-1.48 10.04-1.48 5.72 2.73 9.47-1.28Zm-11.84-4.69 5.67.58 7.49.76.02-.02a.48.48 0 0 1 .07-.19s0-.01.04-.03c.65-1.47-.06-13.72-.14-23.9-.05-12.68 5.46-30.53 6.37-42.99.1-1.04.17-2 .25-2.9.5-6.25 5.43-18.3 9.46-28.63.57-1.5 1.15-2.98 1.67-4.37 2.6-6.95 4.35-12.46 3.26-13.7-2.87-3.26-19.03-27.01-28.76-16.05-11.14 12.57-12.98 45.37-12.98 63.05s4.75 50.71 7.58 68.4Z" />
  <path d="m313.32 293.25 7.49.77.02-.02a.48.48 0 0 1 .07-.2s0 0 .04-.03c.78-1.32.33-9.47 2.04-25.3 1.36-12.62 3.12-29.13 4.2-41.59.1-1.04.16-2 .24-2.9.5-6.25 5.43-18.3 9.46-28.63.58-1.5 1.15-2.98 1.67-4.37-.09-.08-.2-.14-.3-.21a.91.91 0 0 0-.89-.07c-2.5-3.33-7.87-6.6-10.72-1.75-1.6 2.71.22 5.91.39 8.73.35 5.68-3.24 10.78-5.46 15.75-7.89 17.72-1.49 37.26-3.65 55.79-1.11 9.7-5.36 14.13-4.6 24.03Z" />
  <path d="M332.64 233.23c-.18 17.69-.72 47.57 6.48 61.35 0 0 10 .18 10.2-.77 1.32-6.12 2.5-23.96 3.85-35.7 3.05-26.48 3.5-20.65 4.88-32.25 2.75-23.33 10.11-34.24 6.38-52.05a60.82 60.82 0 0 0-.94-3.83c-.87-3.1-5.55-8.58-7.16-12.22-.24-.52-14.65-.44-21.74 5.5-.75.62-1.69 42.5-1.95 69.97Zm33.16-141.1c-1.84.7-5.9 2.9-8.62-.28-1.02-1.19-1.68-3.55-2.21-5.12a58.37 58.37 0 0 0-2.35-6.69c-1.25-2.63-3.12-5.33-5.93-6.48-4.44-1.82-11.11 1.97-12.13 6.56a.84.84 0 0 0 .44.97.8.8 0 0 0 .17.18c2.96 2.15 5.66 1.58 7.6 5.75 1 2.15.99 4.67 1.59 6.93 1.1 4.15 3.8 8.39 7.98 9.99 6.69 2.56 15.2-4.47 15.07-11.23a.94.94 0 0 0-1.61-.58Z" />
  <path fill="#fff" d="M251.04 140.79a11.25 11.25 0 0 1 4.26-.72c.17-.07.35-.08.52-.12a5.17 5.17 0 0 1-.32-.46c-.54-1.03-.72-2.8.55-3.41 1.34-.64 2.32 1.06 3.08 1.87a10.19 10.19 0 0 0 3.08 2.4 17.5 17.5 0 0 0 3.73.56c.9.1 2.37.05 2.97.9a4.74 4.74 0 0 1 .42 2.93c-.17 1-1.02 1.53-1.86 1.97a9.46 9.46 0 0 1-2.3.83 7.86 7.86 0 0 1-4.35.53 6.02 6.02 0 0 1-.92-.3 7.52 7.52 0 0 1-4.04.73.91.91 0 0 1-.78-1.22 1.76 1.76 0 0 1-.78-.38 1.28 1.28 0 0 1-.4-.85 3.11 3.11 0 0 1-.75-.5 2.46 2.46 0 0 1-.76-2.54 11.93 11.93 0 0 0-3.33 3 .98.98 0 0 1-1.66-.22c-1.1-2.07 2-4.35 3.64-5Z" />
  <path d="M269.77 144.13a4.82 4.82 0 0 1-.07.68 3.37 3.37 0 0 1-2.06 2.25 9.9 9.9 0 0 1-2.39.86 8.21 8.21 0 0 1-4.52.53 5.45 5.45 0 0 1-.82-.26 7.88 7.88 0 0 1-4.09.7 1.25 1.25 0 0 1-.94-.53 1.35 1.35 0 0 1-.22-.8 1.95 1.95 0 0 1-.61-.37 1.59 1.59 0 0 1-.5-.89 3.26 3.26 0 0 1-.66-.46 2.92 2.92 0 0 1-.98-2.08 12.76 12.76 0 0 0-2.56 2.5 1.32 1.32 0 0 1-1.16.5 1.45 1.45 0 0 1-1.13-.78 2.35 2.35 0 0 1-.11-1.98c.6-1.68 2.74-3.07 3.95-3.56a11.5 11.5 0 0 1 4.28-.75l-.01-.02a3.7 3.7 0 0 1-.33-2.73 1.98 1.98 0 0 1 1.04-1.2c1.37-.65 2.41.62 3.1 1.46l.43.5a10.02 10.02 0 0 0 2.96 2.3 11.38 11.38 0 0 0 2.66.45l.96.09.46.04c.91.07 2.16.16 2.77 1.02a4.63 4.63 0 0 1 .56 2.54Zm-14.35 3.44a.61.61 0 0 0 .1.36.49.49 0 0 0 .38.2 7.12 7.12 0 0 0 3.84-.7l.15-.08.16.07a5.62 5.62 0 0 0 .85.28 7.6 7.6 0 0 0 4.15-.52 9.3 9.3 0 0 0 2.24-.8c.8-.42 1.52-.87 1.67-1.7a4.49 4.49 0 0 0-.36-2.65c-.4-.57-1.4-.64-2.2-.7a15.3 15.3 0 0 1-.5-.05l-.93-.09a11.94 11.94 0 0 1-2.88-.49 10.7 10.7 0 0 1-3.23-2.49l-.46-.53c-.79-.97-1.41-1.62-2.18-1.25a1.22 1.22 0 0 0-.65.75 2.97 2.97 0 0 0 .28 2.13 2 2 0 0 0 .17.25l.13.18.3.45-.53.13-.24.05a1.43 1.43 0 0 0-.25.06l-.13.03a10.77 10.77 0 0 0-4.11.69c-1.16.47-3.02 1.74-3.52 3.1a1.6 1.6 0 0 0 .07 1.38.69.69 0 0 0 .53.38.55.55 0 0 0 .5-.23 12.08 12.08 0 0 1 3.45-3.1l.82-.45-.27.9a2.1 2.1 0 0 0 .65 2.17 2.7 2.7 0 0 0 .65.42l.2.1.02.2a.88.88 0 0 0 .28.62 1.43 1.43 0 0 0 .6.3l.4.08-.11.38a.63.63 0 0 0-.03.18Z" />
  <path fill="#aab6c2" d="M291.96 145.79c-9.86 1.77-24.88 1.76-24.88 1.76l.08-7.08c.2.38 27.77-9.2 30.92-10.06 1.38-.37 20.67-26.87 35.76-21.87 3.24 1.07 2.27 1.22 1.55 4.55-1.47 6.73-10.79 19.02-19.81 23.98-10.63 5.84-12.6 6.75-23.61 8.72Z" />
  <path d="M315.08 122.03s-.43 8.47 2.82 13.6c0 0 5.07-3.02 6.59-6.35s-9.41-7.25-9.41-7.25Z" />
  <path fill="#aab6c2" d="M366.1 166.8a35.12 35.12 0 0 1-10.11 3.62c-20.93 4.19-48.27-5.94-48.27-5.94s6-9.09 11.05-18.64c.49-.87.93-1.75 1.38-2.64 2.22-4.4 1.73-7.28.39-9.85-1.83-3.54-5.27-6.44-5.5-11.82-.37-9.29 19.43-17.05 19.43-17.05 29.67-1.77 22.65 15.63 19.82 29.73a49.93 49.93 0 0 0-.63 3.74 21.39 21.39 0 0 0-.15 1.84c-.54 13.87 12.58 27 12.58 27Z" />
  <path d="m353.5 139.8.06-.72c.03-.38.05-.76.1-1.14.14-1.21 3.2-14.64 3.33-17.97-.8-1.51-3.4 8.7-5.45 6.8-5.4-5.1-4.72-18.14-4.72-18.14-1.23 6.25-2.21 18.56-.13 22.4.46.81 2.04 3.98 2.13 4.13 1.53 4.71.41 9.44.65 14.26.23 4.24 1.72 8.17 3.24 12.1.82 2.07 1.72 6.57 3.28 8.9a35.2 35.2 0 0 0 10.1-3.61s-13.12-13.15-12.58-27.01Z" />
  <path fill="#fff" d="M331.38 100.45v5.25s-1.4 2.6 0 2.87c3.1.63 7.58-4.21 7.58-4.21V97.3Z" />
  <path d="M331.94 109a3.2 3.2 0 0 1-.64-.05 1.09 1.09 0 0 1-.8-.61c-.4-.86.28-2.33.5-2.73v-5.41l8.33-3.46v7.77l-.1.1c-.18.2-4.1 4.4-7.29 4.4Zm-.18-8.3-.05 5.19a3.42 3.42 0 0 0-.53 2.13.33.33 0 0 0 .27.18c2.62.53 6.46-3.3 7.13-4v-6.32l-6.83 2.83Z" />
  <path fill="#fff" d="M326.93 85.78a41.63 41.63 0 0 0-.81 11.45c.4 3.76 8.23 6.94 12.41.5s.78-13.91.78-13.91l-12.38 1.96Z" />
  <path d="M333.95 101.6a7.49 7.49 0 0 1-3.52 0c-2.55-.62-4.48-2.4-4.69-4.33a42.25 42.25 0 0 1 .82-11.57l.06-.26 12.91-2.05.12.27c.04.07 3.45 7.73-.8 14.28a8.2 8.2 0 0 1-4.9 3.67Zm-6.7-15.49a40.92 40.92 0 0 0-.75 11.08c.17 1.6 1.9 3.14 4.1 3.66a6.96 6.96 0 0 0 7.6-3.33c3.6-5.52 1.4-11.92.86-13.29l-11.82 1.88Z" />
  <path d="M324.26 86.22c.32-.32.8-.45 1.1-.76.93-.98.4-1.2.86-2.07a4.56 4.56 0 0 1 1.53-1.74 11.26 11.26 0 0 1 6.27-1.48.78.78 0 0 1 .75 1.07 8.94 8.94 0 0 1 8.3 11.69c-.85 2.36-2.96 4.64-4.96 2.27-1.53-1.82-1.82-3.78-2.2-6.03a10.52 10.52 0 0 0-.51-2.11 5.54 5.54 0 0 0-4.76-1.48c-.31.5-.51 1.21-.8 1.72a6.08 6.08 0 0 1-1.7 1.93c-1.09.8-2.74 1.3-3.87.29a2.24 2.24 0 0 1 0-3.3Z" />
  <path fill="#fff" d="M335.53 89.86s1.93-1.55 2.8.1-.48 3.07-1.4 2.95-1.73-2.2-1.4-3.05Z" />
  <path d="M337.36 93.26a1.36 1.36 0 0 1-.49.03 1.8 1.8 0 0 1-1.22-.99 3.46 3.46 0 0 1-.48-2.58l.04-.1.08-.06a3.15 3.15 0 0 1 2.23-.71 1.67 1.67 0 0 1 1.14.93 2.47 2.47 0 0 1-.11 2.61 2.12 2.12 0 0 1-1.18.86Zm-1.5-3.17a2.98 2.98 0 0 0 .45 1.82c.21.36.47.6.66.62a1.16 1.16 0 0 0 .95-.57 1.71 1.71 0 0 0 .07-1.83.94.94 0 0 0-.63-.54 2.28 2.28 0 0 0-1.5.5Z" />
  <path fill="#f40" d="M340.28 82.33c-1.35-1.99-3.64-2.61-5.91-2.85-1.18-.13-1.55 1.7-.36 1.83 1.74.18 3.66.5 4.72 2.05.67.99 2.23-.04 1.55-1.03Z" />
  <path fill="#fff" d="M369.95 182.72c-1.32 1.03-6.31-.4-6.33-.4.63-3.16.59-7 2-8.1.68-.52 4.8 2 4.74 2.2-.15.47-.34 6.24-.4 6.3Z" />
  <path d="M370.74 176.41a.41.41 0 0 1-.02.13c-.07.27-.18 2.43-.25 3.86-.12 2.48-.12 2.5-.29 2.62-1.1.87-4.16.32-6.52-.3h-.01l-.54.22.14-.69c.18-.92.31-1.91.43-2.87.32-2.45.6-4.57 1.72-5.44.95-.74 4.71 1.78 4.75 1.8.32.22.6.41.6.68Zm-1.14 6.09c.03-.36.07-1.3.11-2.14.11-2.18.18-3.34.24-3.83-.64-.54-3.57-2.16-4.12-1.98-.85.66-1.12 2.73-1.4 4.92-.1.85-.22 1.73-.37 2.57 2.75.7 4.78.87 5.54.46Z" />
  <path fill="#fff" d="M367.3 189.27a1.67 1.67 0 0 1-1.88.08 1.64 1.64 0 0 1-.19-.18 1.24 1.24 0 0 1-1.44.33 1.63 1.63 0 0 1-.89-1.19 1.41 1.41 0 0 1-.47-.05c-2.16-.61-.08-4.12.35-5.26a.76.76 0 0 1 .74-.53 1.75 1.75 0 0 1 .22-.27c1.1-1.04 3.38-1.06 4.72-.56a3.64 3.64 0 0 1 2.27 4.08c-.14 1.27-.58 3.96-2.2 4.2a1.04 1.04 0 0 1-1.23-.65Z" />
  <path d="M371.14 185.14a5.57 5.57 0 0 1-.04.62c-.2 1.93-.8 4.28-2.52 4.53a1.44 1.44 0 0 1-1.43-.51 1.95 1.95 0 0 1-1.93-.1 1.55 1.55 0 0 1-1.58.17 1.88 1.88 0 0 1-1.02-1.17 1.53 1.53 0 0 1-.3-.06 1.6 1.6 0 0 1-1.06-.86c-.53-1.15.3-2.98.86-4.2.13-.28.24-.52.3-.7a1.15 1.15 0 0 1 .9-.76 1.26 1.26 0 0 1 .16-.18c1.2-1.12 3.6-1.2 5.12-.64a3.9 3.9 0 0 1 2.54 3.86Zm-9.3 1.75a1.3 1.3 0 0 0 .1.56.83.83 0 0 0 .58.45 1.06 1.06 0 0 0 .35.03l.31-.02.08.3a1.25 1.25 0 0 0 .67.94.85.85 0 0 0 1.03-.26l.25-.23.26.22.1.1a1.28 1.28 0 0 0 1.52-.03l.37-.23.18.4a.67.67 0 0 0 .82.41c1.35-.2 1.76-2.77 1.88-3.86a3.23 3.23 0 0 0-2.02-3.68c-1.3-.49-3.4-.4-4.33.48a1.16 1.16 0 0 0-.12.14l-.11.16-.25.07a.38.38 0 0 0-.39.28c-.07.19-.19.45-.32.75a8.8 8.8 0 0 0-.97 3.01Z" />
  <path fill="#fff" d="M359.15 186.91a4.23 4.23 0 0 1 .38-3.7c.74-1.07 3.14-2.36 4.32-2.81.35-.61.35.2.53 1.13.22 1.1 0 2.39-1.26 2.7-.55.13-1.07-.01-1.53.44a3.29 3.29 0 0 0-.67 2.07.93.93 0 0 1-1.77.18Z" />
  <path d="M364.84 182.26a2.2 2.2 0 0 1-1.62 2.33 4.06 4.06 0 0 1-.57.08 1.1 1.1 0 0 0-.79.27 2.99 2.99 0 0 0-.56 1.83 1.24 1.24 0 0 1-1.17 1.1 1.22 1.22 0 0 1-1.34-.85 4.57 4.57 0 0 1 .43-4.02c.79-1.15 3.17-2.43 4.38-2.91a.54.54 0 0 1 .54-.28c.36.07.42.44.52 1.05.02.18.06.38.1.59a4.15 4.15 0 0 1 .08.81Zm-5.56 3.04a5.46 5.46 0 0 0 .23 1.5.48.48 0 0 0 .55.3.5.5 0 0 0 .49-.4 3.58 3.58 0 0 1 .78-2.3 1.83 1.83 0 0 1 1.25-.48 3.24 3.24 0 0 0 .46-.06c1.26-.31 1.06-1.8.97-2.26a17.1 17.1 0 0 1-.13-.8 11.42 11.42 0 0 0-4.03 2.63 3.22 3.22 0 0 0-.57 1.88Z" />
  <path fill="#fff" d="M364.31 179.63a1.7 1.7 0 0 1-1.03 1.3 2.56 2.56 0 0 0-.91 3.07c.31.44-.22.85-.38 1.63s2.71 0 2.71 0l5.33-2.33a3.43 3.43 0 0 1-.29-1.7c.04-1.14-4.17-2.58-4.17-2.58Z" />
  <path fill="#aab6c2" d="M346.6 113.45s-.45-.7-.55.26-3.14 1.27-3.16.77-.71-2.2-.02-3.58 1.05-1.74 1.55-2.74.71-1.28.95-1.38 3.63-.66 3.63-.66l5.02 1.26s-2.3 3.38-2.33 3.45-5.08 2.62-5.08 2.62Z" />
  <path fill="#fff" d="m335.92 89.17.8 2.8.08.6a.85.85 0 0 0 .1.64c.2.42-2.26 1.1-2.26 1.1a4.21 4.21 0 0 1-1.21-2.12c-.23-1.24-.46-2.2-.1-2.72s.36-.97 1.04-.89 1.3.2 1.3.2l.25.39Z" />
  <path d="m330.14 170.42 3.15.46 1.9 17.6-2.96-1.7Z" />
  <path fill="#aab6c2" d="M378.87 154.46c.2-18.17-6.64-28.69-9.84-34.47-4.53-8.2-16.7-16.57-21.77-12.34-1.95 1.63-.91 6.4-.6 7.85 2.55 11.97 13.9 28.24 14.7 30.55 1 2.87 5.88 12.31.42 32.53 0 0 7.08 2.43 10.46 2.23 0 0 6.49-13.6 6.63-26.35Z" />
  <path fill="#fff" d="M102.7 151.28c16.2 2.26 9.44-47.68 9.44-47.68l-5.4-.14c-.56.43-1.95 13.02-4.82 20.59-2.54 6.72-8.23 25.98.77 27.23Z" />
  <path d="M102.64 151.61a5.13 5.13 0 0 1-3.87-2.57c-3.22-5.42.27-18.33 2.84-25.1 1.82-4.82 3.03-11.64 3.84-16.15.64-3.6.8-4.38 1.08-4.6l.1-.07 5.8.16.03.28c.2 1.51 4.92 37.23-4.02 46.13a6.5 6.5 0 0 1-4.72 2 8.09 8.09 0 0 1-1.08-.08Zm5.34-2.4c8.3-8.26 4.3-41.85 3.86-45.29l-4.91-.13c-.18.5-.5 2.27-.82 4.11-.81 4.54-2.03 11.4-3.88 16.26-2.53 6.67-5.98 19.33-2.89 24.54a4.44 4.44 0 0 0 3.4 2.25l-.05.33.04-.33a5.94 5.94 0 0 0 5.25-1.74Z" />
  <path fill="#fff" d="M111.08 105.35c1.24 0 1.84-.3 3.3-1.3 1.46-.9 1.88-2.18 1.66-2.99a1.05 1.05 0 0 0-.22-.4 2.11 2.11 0 0 0 .42-1.92.92.92 0 0 0-.32-.44 2.31 2.31 0 0 0-.1-1.78 1.47 1.47 0 0 0-.85-.77 13.23 13.23 0 0 1 2.95-1.57 1.36 1.36 0 0 0 1.04-1.28 1.08 1.08 0 0 0-.9-1 1.73 1.73 0 0 0-.4-.04 10.92 10.92 0 0 0-4.3 1.6 13.8 13.8 0 0 0-4.34 3.57 1.24 1.24 0 0 0-.13-.53 1.17 1.17 0 0 0-1.02-.7 1.08 1.08 0 0 0-.67.25 3.25 3.25 0 0 0-1.52 2.46 26.64 26.64 0 0 0 1.07 5.37.57.57 0 0 0 .51.3 1.87 1.87 0 0 0 .9-.36 3.75 3.75 0 0 0 2.92 1.54Z" />
  <path d="M117.66 92.2a1.28 1.28 0 0 1 .33.04c.9.22.82 1.27-.18 1.61a11.55 11.55 0 0 0-4 2.44 1.45 1.45 0 0 1 .78-.26c1.05 0 1.44 1.66.83 2.47h.05c.66 0 .8 1.38-.24 2.3a.26.26 0 0 1 .12-.03c.53 0 .85 1.76-1.17 3-1.42.99-1.97 1.24-3.1 1.24a3.56 3.56 0 0 1-2.84-1.66 2.4 2.4 0 0 1-.98.48.22.22 0 0 1-.21-.12 28.21 28.21 0 0 1-1.03-5.19 2.94 2.94 0 0 1 1.4-2.2.72.72 0 0 1 .45-.17.87.87 0 0 1 .62 1.38 5.42 5.42 0 0 0-.6.9 4.65 4.65 0 0 1 .43.37 11.89 11.89 0 0 1 5.2-5.03c.92-.5 2.98-1.56 4.14-1.56Zm0-.69a11.06 11.06 0 0 0-4.46 1.64 14.72 14.72 0 0 0-4.03 3.13 1.5 1.5 0 0 0-1.3-.83 1.42 1.42 0 0 0-.88.32 3.6 3.6 0 0 0-1.65 2.73 26.86 26.86 0 0 0 1.1 5.54.92.92 0 0 0 .83.48 1.83 1.83 0 0 0 .83-.26 4.01 4.01 0 0 0 3 1.44c1.31 0 1.99-.33 3.45-1.35 1.64-1 2.1-2.42 1.83-3.38a1.49 1.49 0 0 0-.13-.3 2.4 2.4 0 0 0 .32-2.06 1.35 1.35 0 0 0-.25-.41 2.67 2.67 0 0 0-.19-1.84 2 2 0 0 0-.5-.64 12.33 12.33 0 0 1 2.4-1.2 1.73 1.73 0 0 0 1.28-1.64 1.43 1.43 0 0 0-1.15-1.3 2.1 2.1 0 0 0-.5-.06Z" />
  <path fill="#fff" d="M112.69 104.67s-.85.22-.54 1.62-4.2 1.58-4.34.78a15.7 15.7 0 0 0-1.04-2.6 12.96 12.96 0 0 0-.16-2.26c-.18-.97 4.18-2 5.26-.43a4.13 4.13 0 0 1 .82 2.9Zm-38.52-3.31.02 4.88s1.27 2.78.01 2.95a7.37 7.37 0 0 1-6.72-3.09l-.03-7.5 6.72 2.76Z" />
  <path d="m67.2 106.29-.05-.08-.03-8.1 7.38 3.03.02 5.02c.2.47.86 2.09.42 2.9a.89.89 0 0 1-.7.46 7.4 7.4 0 0 1-.95.07 7.77 7.77 0 0 1-6.09-3.3Zm.6-7.19.02 6.9a7.04 7.04 0 0 0 6.34 2.86.24.24 0 0 0 .2-.12c.23-.42-.14-1.64-.47-2.37l-.05-4.79-6.05-2.48Z" />
  <path fill="#fff" d="M75.78 87.8a33.61 33.61 0 0 1 2.7 8.92c.45 3.32-5.19 8.45-10.15 3.8s-3.6-11.8-3.6-11.8Z" />
  <path d="M68.1 100.77c-5.03-4.73-3.72-12.03-3.7-12.1l.04-.25 11.53-.97.1.2a34.3 34.3 0 0 1 2.74 9.03c.25 1.87-1.26 4.22-3.44 5.34a5.99 5.99 0 0 1-2.75.7 6.6 6.6 0 0 1-4.51-1.95Zm-3.08-11.73c-.18 1.28-.71 7.25 3.54 11.24 2.7 2.53 5.23 1.81 6.5 1.16 1.95-1.01 3.3-3.06 3.09-4.67a33.57 33.57 0 0 0-2.58-8.62l-10.55.9Z" />
  <path d="M63.5 94.04c-.04-.04-.07-.23-.16-.44a3.43 3.43 0 0 1 .7-3.5.9.9 0 0 1 1.21-.1l.04-.01c1.41-.11 8.78 1.15 8.98 2.09.33 1.57 1.54 5.1.19 6.15-3.16 2.43-8.01 1.57-9.14 1.24-1.36-.4-1.32-2.06-1.78-3.1a2.39 2.39 0 0 1-.32-1.76 3.17 3.17 0 0 1 .27-.58Z" />
  <path d="M64.36 91.74c1.5 3.26 7.36 1.71 9.43.7 1.42-.7.26-1.98 1.78-2.8a.78.78 0 0 0 1.23.27c1.2-1.05 2.62-2.86 1.26-4.41-1.05-1.21-2.5-.7-3.67.04-3.96-2.98-12.59.7-10.04 6.21Z" />
  <path fill="#fff" d="M44.2 292.27c-.68-.84-6.91-.16-6.99.27-.22 1.34-.56 6.47.13 7.15.67.65 6.15 2.79 6.29 1.49.12-1.12 1.21-8.1.56-8.9Z" />
  <path d="M37.1 299.93c-.94-.94-.3-6.92-.21-7.44.04-.27.32-.39.74-.5 1.16-.3 6.06-.89 6.83.07.46.57.36 2.79-.37 8.17-.07.45-.11.8-.13.98a.73.73 0 0 1-.52.62 1.7 1.7 0 0 1-.58.08 13.74 13.74 0 0 1-5.75-1.99Zm6.84-7.45c-.44-.53-5.54-.18-6.41.23-.29 1.87-.43 6.27.05 6.74s4.61 2.14 5.63 1.76c.08-.03.09-.05.09-.06.02-.2.06-.54.13-1 .63-4.7.8-7.27.5-7.67Z" />
  <path d="m36.47 295.98 8.6.92c4.48-14.82 16.47-40.16 18.23-55.71 2.73-24.16 6.04-50.02 6.18-56.38l.04-1.57c-5.92-7.2-15.94-10.14-20.41-10.66-1.76-.22-3.05.13-3.61 1.05a66.7 66.7 0 0 0-4.33 8.47c-7.2 17.1-1.14 27.44-1.27 49.68 0 1.29-.02 2.6-.05 3.9-.23 9.2 2.25 20.52-.4 30.13-5.18 18.84-2.98 30.17-2.98 30.17Z" />
  <path d="M54.98 269.9c3.87-10.32 7.42-20.78 8.32-28.71 1.92-17 4.13-34.82 5.32-46.12l-7.32-1.36a94.98 94.98 0 0 0 .5 16.68c1.1 10.3-4.33 52.95-6.82 59.51Zm-18.15 28.22s-3.36 4.8-.96 8.58c0 0 17.5.83 22.8 0 0 0 .13-6.45-4.4-7s-10.34-.79-10.34-.79a5.33 5.33 0 0 1-7.1-.78Z" />
  <path fill="#fff" d="M83.16 292.24c-.68-.84-7.95-.13-8.02.3-.22 1.34-.56 6.47.13 7.15.67.66 6.95 2.09 7.1.79.12-1.12 1.44-7.42.8-8.23Z" />
  <path d="M75.04 299.93c-.9-.88-.37-6.56-.22-7.44.04-.28.35-.39.66-.47 1.33-.34 7.17-.95 7.94.02.5.62.21 2.95-.5 7.03-.1.67-.2 1.19-.22 1.44a.81.81 0 0 1-.62.68 3.56 3.56 0 0 1-1.14.15c-2.02 0-5.32-.84-5.9-1.41Zm.41-7.2c-.28 1.87-.43 6.25.05 6.72s5.04 1.59 6.35 1.11c.1-.03.18-.08.18-.12.03-.26.12-.8.24-1.48.28-1.63 1.04-5.98.63-6.5-.53-.55-6.46-.16-7.45.27Z" />
  <path d="M74.76 298.12s-3.37 4.8-.96 8.58c0 0 17.5.83 22.8 0 0 0 .13-6.45-4.4-7a83.03 83.03 0 0 0-9.64-.47s-4.51 2.46-7.8-1.1Zm-1.02-59.98c.83 10.3 1.28 22.93.46 33.23-.05.69-.05 24.6-.05 24.6l9.67.93c5.28-15.72 15.34-50.97 15.34-66.63s-1.35-41.73-7.1-54.1c-5.47-11.77-27.23 4.33-29.58 7.36-3.66 4.69-2.2 19.39 2.68 26.39 5.6 8.05 8.14 22.68 8.59 28.22Z" />
  <path d="M61.67 200.91s-.38-.52-.5-.07-6.72-.65-6.72-.65l-6.67-7.85.85-10.93h19.99l2.74 9.77-5.21 7.54-4.48 2.19Z" />
  <path d="M99.15 230.27c0-15.65-1.35-41.73-7.1-54.1-4.28-9.2-18.52-1.35-25.65 3.95a36 36 0 0 0-17.29-7.54c-1.76-.21-3.05.13-3.61 1.06a66.73 66.73 0 0 0-4.33 8.47 50.5 50.5 0 0 0-1.05 2.72c.05.02 19.5 7.3 39.3 3.31 19.67-3.95 17.8 59.3 15.56 69.06 2.42-10.49 4.17-20.4 4.17-26.92Z" />
  <path fill="#fff" d="M66.83 165.73c.24-.04.3-.1.3-.1 0-.14-.39-.62-.6-.87-.42-.51-.82-1-.72-1.45a.67.67 0 0 1 .4-.47l.07-.03.11-.01c.25 0 .6.2 1.37.66a7.76 7.76 0 0 0 2.47 1.18c.1-.02.19-.14.06-.62a5.75 5.75 0 0 0-.73-.96c-.76-.89-1.17-1.41-.98-1.83a.56.56 0 0 1 .56-.3h.1l.14.05.71.47a6.83 6.83 0 0 0 2.68 1.34.4.4 0 0 0 .39-.2 3.9 3.9 0 0 0-1.55-1.8c-2.23-1.39-2.15-1.66-2.09-1.9l.07-.25.35-.04a7.8 7.8 0 0 1 2.86 1.44 1.6 1.6 0 0 0 .82.34c.1 0 .16-.02.2-.07.04-.1.05-.39-.25-.9-1.42-2.4-4.84-3.25-7.57-3.25a11.47 11.47 0 0 0-1.25.06 8.78 8.78 0 0 0-4.4 3.24 2.11 2.11 0 0 0-.36 1.85c.2.55.51.6 1.07.7a3.9 3.9 0 0 1 .98.25 8.24 8.24 0 0 1 1.81 1.45c.95.9 2.14 2.02 2.9 2.02a.6.6 0 0 0 .08 0Z" />
  <path d="M66 156.51c2.5 0 5.92.8 7.27 3.08a1.77 1.77 0 0 1 .19.42 1.75 1.75 0 0 1-.46-.25 7.97 7.97 0 0 0-3.06-1.5.76.76 0 0 0-.76.54c-.16.56.15.99 2.24 2.29a4.63 4.63 0 0 1 1.34 1.36 7.1 7.1 0 0 1-2.48-1.3l-.72-.46-.15-.1h-.27a.9.9 0 0 0-.88.5c-.3.64.26 1.29 1.03 2.2a7.29 7.29 0 0 1 .67.85l.02.11a12.27 12.27 0 0 1-2.05-1.07c-.88-.54-1.2-.72-1.54-.72h-.16l-.18.08a1.02 1.02 0 0 0-.57.7c-.13.62.31 1.16.79 1.74l.3.38a8.86 8.86 0 0 1-2.5-1.9 8.2 8.2 0 0 0-1.9-1.52 4.36 4.36 0 0 0-1.05-.27c-.6-.1-.68-.13-.8-.47a1.8 1.8 0 0 1 .32-1.55 8.52 8.52 0 0 1 4.15-3.08 10.87 10.87 0 0 1 1.2-.06Zm0-.69a12.1 12.1 0 0 0-1.3.07c-1.26.14-5.93 3.07-5.05 5.55.4 1.1 1.31.74 2.24 1.14 1.1.48 3.38 3.5 4.84 3.5a.68.68 0 0 0 .14 0c1.93-.3-1.6-2.38-.52-2.92a.1.1 0 0 1 .04 0c.42 0 2.8 1.83 3.84 1.83.4 0 .6-.28.39-1.05-.17-.62-2.52-2.66-1.49-2.66h.06c.9.55 2.55 1.87 3.57 1.87a.75.75 0 0 0 .68-.36c.34-.54-.94-1.84-1.66-2.29-1.75-1.09-2.15-1.55-1.85-1.55a7.75 7.75 0 0 1 2.66 1.37 1.88 1.88 0 0 0 1.02.41c.58 0 .8-.56.24-1.49-1.47-2.49-5-3.42-7.86-3.42Z" />
  <path fill="#fff" d="M65.2 156.18a2.25 2.25 0 0 0 .52-.04 3.87 3.87 0 0 0 .73-.3 5.6 5.6 0 0 1 .66-.3 3.52 3.52 0 0 0 1.4-.8c.12-.15.15-.24.13-.27a.84.84 0 0 0-.65-.2c-.73.03-1.94.66-3.65 1.87.26.02.56.04.85.04Z" />
  <path d="M68 154.62a.7.7 0 0 1 .14.01 3.58 3.58 0 0 1-1.14.59 6.2 6.2 0 0 0-.7.3 3.66 3.66 0 0 1-.67.29 1.22 1.22 0 0 1-.2.02 6.08 6.08 0 0 1 2.52-1.2H68Zm0-.7h-.08c-1.21.06-3.5 1.73-4.44 2.42a5.66 5.66 0 0 0 1.72.18 2.85 2.85 0 0 0 .6-.05c.49-.12.95-.44 1.43-.6a3.69 3.69 0 0 0 1.56-.9c.58-.7-.15-1.04-.8-1.04Z" />
  <path fill="#fff" d="M65.15 156.07 62 161.94s-1.18.18-3.16.35c-5.8.5-21.72-1.28-29.69-5.48-4.8-2.53-6.14-7.21-5.72-12.8a30.16 30.16 0 0 1 4.79-13.9 42.57 42.57 0 0 1 3.64-5.03 19.48 19.48 0 0 1 2.72-2.56c.31-.24.63-.47.97-.71l.02-.01c.04-.04.08-.05.13-.09 9.77-6.87 13.48-8.64 20.7-11.9a6.06 6.06 0 0 1 8.55 4.85 20.15 20.15 0 0 1-1.84 10.43 19.48 19.48 0 0 1-9.2 9.21 117.54 117.54 0 0 0-4.78 2.47 18.59 18.59 0 0 0-.62.33c-4.11 2.29-6.46 9.74-6.79 10.98-.39 1.49.8 2.72 2.85 3.74 6.3 3.15 20.57 4.26 20.57 4.26Z" />
  <path d="M29 157.1c-4.46-2.36-6.39-6.65-5.9-13.12a30.56 30.56 0 0 1 4.84-14.05 41.17 41.17 0 0 1 3.67-5.08 20.03 20.03 0 0 1 2.77-2.6c.32-.24.64-.48.97-.7a1.59 1.59 0 0 1 .16-.12c9.73-6.84 13.4-8.6 20.75-11.94a6.5 6.5 0 0 1 5.93.31 6.18 6.18 0 0 1 3.1 4.82 20.5 20.5 0 0 1-1.87 10.6 19.87 19.87 0 0 1-9.36 9.38 115.13 115.13 0 0 0-4.77 2.46l-.13.07-.47.26c-4.32 2.4-6.62 10.7-6.64 10.78-.3 1.19.6 2.31 2.68 3.35 6.16 3.08 20.3 4.22 20.44 4.23l.51.04-3.45 6.45-.16.03s-1.22.18-3.19.36c-.61.05-1.34.08-2.17.08-6.92 0-20.53-1.82-27.7-5.6Zm35.61-.73c-2.64-.24-14.5-1.42-20.18-4.26-2.41-1.2-3.43-2.59-3.02-4.12.02-.09 2.4-8.66 6.95-11.2.16-.1.32-.17.5-.26l.12-.07c1.46-.8 3.12-1.66 4.8-2.47a19.2 19.2 0 0 0 9.04-9.05 19.83 19.83 0 0 0 1.8-10.27 5.52 5.52 0 0 0-2.76-4.3 5.8 5.8 0 0 0-5.32-.28c-7.32 3.32-10.96 5.07-20.6 11.85l-.19.13-.96.7a19.22 19.22 0 0 0-2.68 2.52 40.66 40.66 0 0 0-3.6 5 29.87 29.87 0 0 0-4.74 13.74c-.47 6.18 1.34 10.25 5.54 12.47 7.93 4.19 23.84 5.94 29.51 5.45a66.31 66.31 0 0 0 2.98-.33l2.81-5.25Z" />
  <path fill="#f40" d="M47.85 139.7c1.7-.93 12.4-7.02 15.9-14.97 1.6-3.62 7.52-14.51 3.12-16.84-7.06-3.74-24.69 6.01-33.8 12.42 1.28 8.02 6.93 14.88 14.78 19.4Z" />
  <path d="M47.14 129.16a58.6 58.6 0 0 0-5.32 6.23s2.13 1.7 4.29 3.36 2.8-8.07 2.8-8.07Z" />
  <path fill="#f40" d="M92.27 133.87a93.81 93.81 0 0 0-1.8 11.22c-.33 8.25 5.89 27.5 4.68 33.37-1.1 1.35-16.96 8.01-28.9 8.45-15.55.56-28.31-3.45-28.46-5.72-.13-2.08 7.02-25.08 7.91-37.22.99-13.47 3.77-27.02 6.24-31.47a7.15 7.15 0 0 1 .58-.88 10.97 10.97 0 0 1 4.15-2.86c10.4-4.75 28.6-4.5 36.87-.48 2.96 5.18.6 15.86-1.27 25.58Z" />
  <path d="M90.96 151.3s-10.6-7.46-11.36-17.25c-2.5-32.64 13.25-3.2 13.25-3.2l-1.18 6.2c-.92 5.18-1.83 8.76-.71 14.24Z" />
  <path fill="#fff" d="M102.53 151.35c-4.96-1.17-7.24-3.39-10.66-6.69-.37-.34-.72-.69-1.05-1.04a47.3 47.3 0 0 1-1.55-1.77 37.2 37.2 0 0 1-1.75-2.43l-.25-.4c-2.26-3.55-3.18-5.74-3.36-8.75a23 23 0 0 1 .16-5.18s1.07-17.03 6.28-14.1c5.26 2.95 6.87 5.25 11.16 14.2 0 .04.04.08.05.11.25.49.46.95.69 1.42a3.98 3.98 0 0 0 .41.84c8.82 10.66 6.97 25.46-.13 23.79Z" />
  <path d="M102.46 151.68c-5.03-1.18-7.3-3.38-10.76-6.7l-.06-.07c-.37-.34-.73-.7-1.06-1.06a48.7 48.7 0 0 1-1.57-1.78 35.05 35.05 0 0 1-1.79-2.48l-.14-.24-.1-.14c-2.36-3.72-3.22-5.97-3.41-8.91a23.05 23.05 0 0 1 .16-5.22c.04-.5.83-12.54 4.4-14.48a2.34 2.34 0 0 1 2.38.1c5.44 3.07 7.1 5.62 11.3 14.36l.04.1.5 1 .2.42.12.3a1.9 1.9 0 0 0 .25.48c6.24 7.54 7.38 17.53 4.53 22.12a4.46 4.46 0 0 1-3.85 2.34 5.12 5.12 0 0 1-1.15-.14Zm-1.25-26.34c-4.19-8.73-5.7-11.07-11.02-14.06a1.7 1.7 0 0 0-1.74-.1c-3.24 1.76-4.04 13.81-4.05 13.97a23.25 23.25 0 0 0-.16 5.1c.18 2.85.98 4.94 3.31 8.6l.09.13.16.26a36.55 36.55 0 0 0 1.73 2.4c.48.58.98 1.16 1.53 1.75.32.35.68.7 1.04 1.03l.07.07c3.37 3.25 5.6 5.4 10.44 6.53a3.78 3.78 0 0 0 4.27-1.9c2.73-4.4 1.58-14.03-4.47-21.35a2.5 2.5 0 0 1-.35-.65 6.3 6.3 0 0 0-.11-.26l-.2-.43-.5-1.02.3-.14-.34.06Z" />
  <path fill="#f40" d="M79.3 115.03c-.6 4.73-.07 6.77-.07 6.77s4.51 16.82 5.92 19.64c10.1-1.3 16.58-9.86 17.69-17.05-3.28-8.88-4.27-11.92-8.82-15.72-2.78-2.34-13.79-.99-14.72 6.36Z" />
  <path fill="#fff" d="m107.53 132.05-2.18 2.42-2.5 16.66a6.53 6.53 0 0 0 5.85-2.74c2.5-3.27-1.17-16.33-1.17-16.33Z" />
  <path d="M0 305.74h369.48v2.31H0z" />
  <text fill="#fff" font-family="Arial" font-size="20" font-weight="800" transform="translate(182 156)">HELLO</text>
</svg>