<svg xmlns="http://www.w3.org/2000/svg" viewBox="0 0 427.2 326.6">
  <defs>
    <clipPath id="a">
      <path fill="none" d="M12.46 57.1c-26.36 61.7-7.38 118.67 24.27 129.2s45.22 20.88 62.7 61.36c14.01 32.47 91.93 48.1 116.08 16.8 44.15-57.28 45.37-34.9 66.47-77.63s14.92-85.74-20.57-96.52c-34.55-10.49-64.34-25.31-98.1-66.45C150.18 7.87 128.42 0 105.2 0 68.7 0 28.58 19.4 12.47 57.1" />
    </clipPath>
  </defs>
  <path fill="#e6ebf0" d="M342.9 133.2c-34.57-10.48-64.36-25.3-98.1-66.44S120.3 38.28 93.93 99.98s-7.38 118.67 24.28 129.22 45.22 20.88 62.7 61.36c14.01 32.47 91.93 48.1 116.08 16.79 44.16-57.27 45.38-34.9 66.47-77.62s14.92-85.74-20.57-96.52" />
  <path fill="#e6ebf0" d="M321.61 73.95C298.12 47.42 289.25 39.5 263.3 45.1s16.22 50.64 59.2 72.72 27.86-11.38-.88-43.86" />
  <path d="M89.42 324.39h278.23v2.05H89.42z" />
  <g clip-path="url(#a)" transform="translate(81.483 42.883)">
    <path fill="#c6d0db" d="M42.44 82.16V71.11h18.33V18.3h5.05v52.8h19.75v11.05h10.57v221.46H19.87V82.16Z" />
    <path fill="#aab6c2" d="M19.87 82.16h10.58v199.21H19.87z" />
    <path fill="#c6d0db" d="M58 134.92h76.27v168.7H58z" />
    <path fill="#aab6c2" d="M58 134.92h10.58v168.7H58.01zm54.69 7.18h10.94v4.55h-10.94zm-18.43 0h10.94v4.55H94.27zm18.43 16.54h10.94v4.55h-10.94zm-18.43 0h10.94v4.55H94.27zm-18.43 0h10.95v4.55H75.83zm36.86 16.54h10.94v4.54h-10.94zm-36.86 0h10.95v4.54H75.83zm18.43 8.27h10.94v4.54H94.27zm18.43 8.27h10.94v4.54h-10.94zm-18.43 8.27h10.94v4.54H94.27zm18.43 8.27h10.94v4.54h-10.94zm-36.86 0h10.95v4.54H75.83zm36.86 15.28h10.94v4.54h-10.94zm-18.43 0h10.94v4.54H94.27zm18.43 16.54h10.94v4.54h-10.94zm-18.43 0h10.94v4.54H94.27zm-18.43 0h10.95v4.54H75.83zm36.86 16.54h10.94v4.54h-10.94zm-36.86 0h10.95v4.54H75.83zm18.43 8.26h10.94v4.55H94.27zm-18.43 0h10.95v4.55H75.83zm36.86 8.27h10.94v4.55h-10.94zm-18.43 8.27h10.94v4.54H94.27z" />
    <path fill="#c6d0db" d="M240.49 134.92h76.27v168.7h-76.27z" />
    <path fill="#aab6c2" d="M240.49 134.92h10.57v168.7H240.5z" />
    <path fill="#c6d0db" d="M132.15 54.67h102.33v248.95H132.15z" />
    <path fill="#aab6c2" d="M132.15 54.67h10.57v248.95h-10.57zm75.57 11.93h15.98v6.63h-15.98zm-26.91 0h15.98v6.63h-15.98zm26.91 24.15h15.98v6.63h-15.98zm-26.91 0h15.98v6.63h-15.98zm-26.91 0h15.98v6.63H153.9zm53.82 24.15h15.98v6.63h-15.98zm-53.82 0h15.98v6.63H153.9zm26.91 12.07h15.98v6.64h-15.98zm26.91 12.08h15.98v6.63h-15.98zm-26.91 12.07h15.98v6.64h-15.98zm26.91 12.08h15.98v6.63h-15.98zm-53.82 0h15.98v6.63H153.9zm53.82 22.32h15.98v6.63h-15.98zm-26.91 0h15.98v6.63h-15.98zm26.91 24.15h15.98v6.63h-15.98zm-26.91 0h15.98v6.63h-15.98zm-26.91 0h15.98v6.63H153.9zm53.82 24.15h15.98v6.63h-15.98zm-53.82 0h15.98v6.63H153.9zm26.91 12.08h15.98v6.63h-15.98zm-26.91 0h15.98v6.63H153.9zm53.82 12.07h15.98v6.63h-15.98zm-26.91 12.08h15.98v6.63h-15.98zm26.91 12.07h15.98v6.63h-15.98zm-53.82 0h15.98v6.63H153.9z" />
    <path fill="#c6d0db" d="M293.03 73.23h100.3v230.39h-100.3z" />
    <path fill="#aab6c2" d="M293.03 73.23h10.37v230.39h-10.37z" />
    <path fill="#c6d0db" d="M-31.09 146.48h64.6v157.14h-64.6z" />
    <path fill="#aab6c2" d="M16.61 154H26.7v4.2H16.6zm-16.98 0H9.72v4.2H-.38zm16.98 15.25H26.7v4.18H16.6zm-16.98 0H9.72v4.18H-.38zm-16.99 0h10.09v4.18h-10.09zm33.97 15.25H26.7v4.18H16.6zm-33.97 0h10.09v4.18h-10.09zm16.99 7.62H9.72v4.18H-.38zm16.98 7.62H26.7v4.19H16.6zm-16.98 7.62H9.72v4.19H-.38zm16.98 7.62H26.7v4.19H16.6zm-33.97 0h10.09v4.19h-10.09zm33.97 14.09H26.7v4.19H16.6zm-16.98 0H9.72v4.19H-.38zm16.98 15.24H26.7v4.2H16.6zm-16.98 0H9.72v4.2H-.38zm-16.99 0h10.09v4.2h-10.09zm33.97 15.25H26.7v4.19H16.6zm-33.97 0h10.09v4.19h-10.09zm16.99 7.62H9.72v4.19H-.38zm-16.99 0h10.09v4.19h-10.09zm33.97 7.62H26.7v4.2H16.6zm-16.98 7.62H9.72v4.2H-.38z" />
    <path fill="#fff" d="M-71.56-21.71h273.74v312.12H-71.56z" opacity=".35" />
    <path fill="#fff" d="M22.68 284.77H1.43l113.9-302.9h21.24Zm-37.52 0h-10.62l113.9-302.9h10.61Zm126.84 0h-10.62l97.64-270.39v21.78Z" opacity=".5" />
    <path fill="#fff" d="M203.62-27.89h273.75v312.12H203.62z" opacity=".35" />
    <path fill="#fff" d="M248.9 284.77h-21.25l113.9-302.9h21.24Zm-37.52 0h-10.62l113.9-302.9h10.6Z" opacity=".5" />
    <path fill="#fff" d="M488.78 34.59v-3.57h-9.83v-56.3H-74.56v7.14h5.96v2.52h176.54v46.64h-182.5v3.57h182.5v91.66h-182.5v3.57h182.5v91.66h-182.5v3.57h182.5v59.72H-68.54v2.06h-6.02v8.27h553.5v-70.05h9.84v-3.58h-9.83v-91.65h9.83v-3.57h-9.83V34.59ZM205.2 129.82h85.26v91.66H205.2Zm0-95.23h85.26v91.66H205.2Zm0-50.2h85.26v46.63H205.2Zm0 240.66h85.26v59.72h-85.23v2.06h-.03Zm91.25 0h85.26v59.72h-85.26Zm0-95.23h85.26v91.66h-85.26Zm0-95.23h85.26v91.66h-85.26Zm0-50.2h85.26v46.63h-85.26Zm91.25 0h85.26v46.63H387.7Zm-273.77 0h85.26v46.63h-85.26Zm0 50.2h85.26v91.66h-85.26Zm0 95.23h85.26v91.66h-85.26Zm0 95.23h85.26v61.79h-.04v-2.07h-85.22Zm359.03 61.79h-.03v-2.07H387.7v-59.72h85.26Zm0-65.36H387.7v-91.66h85.26Zm0-95.23H387.7V34.59h85.26Z" />
  </g>
  <path fill="#aab6c2" d="M164.74 242.24a4.58 4.58 0 0 0 2.61-.87 22.3 22.3 0 0 1-.39 4.8c-1.03 1.66-3.87 4.7-3.68 4.69a9.27 9.27 0 0 0 2.3-.54 16.95 16.95 0 0 1-1.76 2.85c-1.38 1.84-3.35 3.32-4.1 5.56a.14.14 0 0 1-.08.1.17.17 0 0 1-.27.12c-3.72-3.52-4.38-8.9-4.93-13.72a40.98 40.98 0 0 1-.07-.7 14.86 14.86 0 0 0 3.42 2.69c.18.1-2.32-3.92-3.55-5.77a10.9 10.9 0 0 1 .64-3.43 28.8 28.8 0 0 1 3.8-6.51l.2-.25a11.13 11.13 0 0 0 1.6 2.9 33.84 33.84 0 0 0-.5-4.34l1.1-1.34c.5-.58 1.1-1.58 2-1.44.85.12 2.82 3.65 3.07 4.67l.3 1.3.1.59a52.98 52.98 0 0 1 .67 5.38 2 2 0 0 1-.2.28c-.72.99-2.47 2.98-2.29 2.98" />
  <path d="M161.35 240.46a9.14 9.14 0 0 0 4.58-2.64c.2-.17-.04-.51-.25-.33a8.95 8.95 0 0 1-4.28 2.53c.4-2.73.84-5.45 1.38-8.16.05-.27-.37-.33-.42-.07q-1.07 5.39-1.74 10.83a18 18 0 0 1-2.42-4.88c-.09-.26-.48-.1-.4.16a18.39 18.39 0 0 0 2.6 5.15.19.19 0 0 0 .16.08q-.15 1.2-.27 2.38a11.33 11.33 0 0 1-1.8-3.15c-.1-.25-.49-.1-.4.16a11.66 11.66 0 0 0 2.06 3.5.2.2 0 0 0 .08.05q-.4 3.93-.6 7.87a.2.2 0 0 0-.03.09c-.06.96-.1 1.92-.1 2.87l-.05 1.88a.17.17 0 0 0 .06.15 91.57 91.57 0 0 0 2.23 17.55l.4-.1a86.92 86.92 0 0 1-2.2-19.87c.01-.7.04-1.42.08-2.12a.2.2 0 0 0 .18-.03 6.99 6.99 0 0 0 1.92-1.96c.15-.23-.18-.5-.32-.26a6.72 6.72 0 0 1-1.76 1.82q.35-6.78 1.3-13.5h.02" />
  <path fill="#aab6c2" d="M146.77 252.6a4.54 4.54 0 0 1-2.47.22 15.94 15.94 0 0 0 1.72 3.48c1.36.9 4.66 2.26 4.5 2.3a9.35 9.35 0 0 1-2.1.36 13.63 13.63 0 0 0 2.3 1.57c1.7.93 3.81 1.39 5.1 2.83a.12.12 0 0 0 .1.05.15.15 0 0 0 .26 0c2.14-3.88 1.14-8.12.2-11.94a21.28 21.28 0 0 0-.13-.53 13.5 13.5 0 0 1-2.14 3.13c-.12.13.84-3.7 1.35-5.5a7.82 7.82 0 0 0-1.54-2.37 22.81 22.81 0 0 0-5.13-3.64l-.23-.13a8.68 8.68 0 0 1-.52 2.7 24.34 24.34 0 0 1-.84-3.42l-1.32-.65c-.6-.27-1.4-.82-2.12-.42-.7.37-1.34 3.68-1.26 4.52a20.24 20.24 0 0 0 .2 1.55 37.95 37.95 0 0 0 1 4.26 2.7 2.7 0 0 0 .25.15c.9.5 2.97 1.43 2.81 1.48" />
  <path d="M159.27 277.35a65.63 65.63 0 0 0-3.2-13.92.12.12 0 0 0 0-.13l-.58-1.4q-.44-1.07-.92-2.13a.15.15 0 0 0-.05-.06q-1.32-2.9-2.8-5.7a.2.2 0 0 0 .05-.07 9.22 9.22 0 0 0 .73-3.3c0-.23-.37-.22-.38 0a8.84 8.84 0 0 1-.6 2.96l-.93-1.7a.17.17 0 0 0 .1-.1 14.21 14.21 0 0 0 .72-4.73c0-.22-.38-.21-.38 0a13.93 13.93 0 0 1-.65 4.47q-2.15-3.86-4.62-7.56c-.12-.18-.45 0-.33.19q1.86 2.78 3.54 5.67a8.42 8.42 0 0 1-4.38-.5c-.22-.06-.34.28-.1.34a8.64 8.64 0 0 0 4.65.47h.01q2.76 4.74 5.03 9.72a5.73 5.73 0 0 1-2.03-.8c-.19-.11-.39.19-.2.3a6 6 0 0 0 2.2.86.2.2 0 0 0 .17-.05q.36.78.7 1.57a62.22 62.22 0 0 1 3.88 15.66l.38-.07" />
  <path d="M145.91 247.53a9.63 9.63 0 0 1-3.27-1.28l.07.47a10.15 10.15 0 0 0 3.08 1.14c.23.04.35-.3.11-.34" />
  <path fill="#aab6c2" d="M181.36 250.67c-.03 1.52-3.52 2.25-4.63 2.66-2.46.9-4.86 1.83-6.68 3.8a81.41 81.41 0 0 0-5.84 7.6.43.43 0 0 1-.43.18 7.16 7.16 0 0 1-.5-1.1c-.65-1.57-1.62-4.44-1.38-6.08a9.93 9.93 0 0 1 1.11-3.26 2.95 2.95 0 0 0 .7 1.38 29.16 29.16 0 0 0 .4-3.04c.16-.2.33-.4.5-.58a10.81 10.81 0 0 1 1.3-1.2l.3-.22a13.5 13.5 0 0 1 1.17-.78 14.13 14.13 0 0 1 1.5-.77 8.04 8.04 0 0 0 .66 2.15 14.15 14.15 0 0 0 .25-2.52c.38-.14.77-.26 1.17-.37a6.15 6.15 0 0 0 .48 1.39 7.3 7.3 0 0 0 .76-1.7 15.22 15.22 0 0 1 3.75-.3l.31.03 1 .1c1.2.2 4.04.97 4.1 2.59a.16.16 0 0 1 0 .05" />
  <path d="M167.9 254.65c-2.97 2.93-3.9 8.32-4.08 9.85a6.98 6.98 0 0 0-.6 1.99 44.12 44.12 0 0 0-.2 7.4c.01.8.05 1.6.1 2.4l.41-.08a82.57 82.57 0 0 1-.04-8.06 9.62 9.62 0 0 1 .6-3.3.45.45 0 0 0 .12-.13 81.16 81.16 0 0 1 5.84-7.6c1.82-1.97 4.22-2.9 6.68-3.8 1.1-.4 4.6-1.14 4.63-2.65-4.66.55-10.04.6-13.46 3.98m-.12-1.45a9.69 9.69 0 0 1-.07-3.37 13.78 13.78 0 0 0-.32.2 9.91 9.91 0 0 0 .1 3.25c.03.2.32.12.3-.07m-1.15.6a12.74 12.74 0 0 1-.44-3l-.3.22a12.97 12.97 0 0 0 .44 2.85c.05.2.35.12.3-.07" />
  <path fill="#fff" d="M154.3 282.63a10.85 10.85 0 0 1-4.05-6.38 10.78 10.78 0 0 1 .02-4.57 10.54 10.54 0 0 1 .53-1.7h19.8a10.4 10.4 0 0 1 .53 1.7 10.67 10.67 0 0 1-4.1 10.95Z" />
  <path d="M170.45 270.2a10.23 10.23 0 0 1 .46 1.53 10.46 10.46 0 0 1-3.96 10.67h-12.5a10.46 10.46 0 0 1-3.96-10.67 9.97 9.97 0 0 1 .47-1.53Zm.3-.45h-20.1a11 11 0 0 0-.86 4.26 10.9 10.9 0 0 0 4.51 8.84h12.8a10.9 10.9 0 0 0 4.25-11.22 10.61 10.61 0 0 0-.6-1.88" />
  <path d="M171.61 274a10.89 10.89 0 0 1-4.5 8.85h-12.8c16.71.83 16.44-13.1 16.44-13.1a10.61 10.61 0 0 1 .6 1.88 10.9 10.9 0 0 1 .26 2.38" />
  <path fill="#fff" d="M108.6 221.47a4.4 4.4 0 0 1-4.4-4.4V86.27a5.7 5.7 0 0 1 5.68-5.7h179.57a5.7 5.7 0 0 1 5.7 5.68v130.82a4.4 4.4 0 0 1-4.4 4.4Z" />
  <path d="M289.45 80.86a5.4 5.4 0 0 1 5.4 5.4v130.82a4.11 4.11 0 0 1-4.1 4.1H108.58a4.1 4.1 0 0 1-4.1-4.1V86.26a5.4 5.4 0 0 1 5.4-5.4Zm0-.57H109.88a5.98 5.98 0 0 0-5.96 5.97v130.82a4.68 4.68 0 0 0 4.68 4.68h182.16a4.69 4.69 0 0 0 4.68-4.68V86.26a5.98 5.98 0 0 0-5.98-5.97" />
  <path d="M295.43 100.88H103.91V86.25a5.98 5.98 0 0 1 5.98-5.98h179.56a5.98 5.98 0 0 1 5.98 5.98Z" />
  <path fill="#aab6c2" d="M136.85 90.58a3.16 3.16 0 1 1 3.16 3.16 3.16 3.16 0 0 1-3.16-3.16" />
  <path fill="#f40" d="M124.68 90.58a3.16 3.16 0 1 1 3.16 3.16 3.16 3.16 0 0 1-3.16-3.16" />
  <path fill="#fff" d="M115.67 93.45a2.87 2.87 0 1 1 2.88-2.87 2.88 2.88 0 0 1-2.88 2.87" />
  <path d="M115.67 88a2.59 2.59 0 1 1-2.58 2.58 2.59 2.59 0 0 1 2.58-2.6m0-.56a3.16 3.16 0 1 0 3.16 3.16 3.16 3.16 0 0 0-3.16-3.16" />
  <path fill="#fff" d="M280.77 92.74 283 90.5l-2.23-2.23 1.15-1.17 2.24 2.23 2.24-2.23 1.15 1.16-2.23 2.23 2.23 2.24-1.15 1.16-2.24-2.24-2.24 2.25Z" />
  <path d="m281.92 87.52 1.83 1.83.4.4.42-.4 1.83-1.83.74.75-1.82 1.83-.4.4.4.4 1.83 1.84-.75.75-1.83-1.83-.4-.4-.42.4-1.83 1.84-.75-.75 1.83-1.83.4-.4-.4-.41-1.83-1.83Zm4.47-.82-2.23 2.24-2.24-2.24-1.56 1.56 2.23 2.24-2.23 2.23 1.56 1.57 2.24-2.24 2.23 2.24 1.57-1.57-2.24-2.23 2.24-2.24Z" />
  <path fill="#aab6c2" d="M104.06 130.81v12.8h-3.23a.37.37 0 0 0 0 .72h3.23v12.8h-3.23a.37.37 0 0 0 0 .72h3.23v11.51h-3.23a.37.37 0 0 0 0 .72h3.23v12.8h-3.23a.37.37 0 0 0 0 .72h3.23v12.8h-3.23a.37.37 0 0 0 0 .72h3.23v12.8h-3.23a.37.37 0 0 0 0 .73h3.23v9.17a.3.3 0 1 0 .56 0v-9.17h8.97v9.17a.3.3 0 1 0 .57 0v-9.17h9.17v9.17a.3.3 0 1 0 .57 0v-9.17h8.96v9.17a.3.3 0 1 0 .56 0v-9.17h8.97v9.17a.3.3 0 1 0 .56 0v-9.17h8.97v9.17a.3.3 0 1 0 .56 0v-9.17h8.97v9.17a.3.3 0 1 0 .57 0v-9.17h8.96v9.17a.3.3 0 1 0 .57 0v-9.17h8.96v9.17a.3.3 0 1 0 .57 0v-9.17h8.96v9.17a.3.3 0 1 0 .57 0v-9.17h8.96v9.17a.3.3 0 1 0 .57 0v-9.17h8.97v9.17a.3.3 0 1 0 .56 0v-9.17h9.18v9.17a.3.3 0 1 0 .56 0v-9.17h8.97v9.17a.3.3 0 1 0 .56 0v-9.17h8.97v9.17a.3.3 0 1 0 .56 0v-9.17h8.97v9.17a.3.3 0 1 0 .56 0v-9.17h8.97v9.17a.3.3 0 1 0 .56 0v-9.17h8.97v9.17a.3.3 0 1 0 .57 0v-9.17h8.96v9.17a.3.3 0 1 0 .57 0v-9.17h8.95v9.17a.3.3 0 1 0 .57 0v-9.17h8.96v9.17a.3.3 0 1 0 .57 0v-9.17h3.36a.37.37 0 0 0 0-.73h-3.36v-12.8h3.36a.37.37 0 0 0 0-.72h-3.36v-12.8h3.36a.37.37 0 0 0 0-.72h-3.36v-12.8h3.36a.37.37 0 0 0 0-.72h-3.36v-11.51h3.36a.37.37 0 0 0 0-.72h-3.36v-12.81h3.36a.37.37 0 0 0 0-.72h-3.36v-12.8h3.36a.37.37 0 0 0 0-.73h-3.36v-12.8h3.36a.37.37 0 0 0 0-.72h-3.36v-11.87a.3.3 0 1 0-.56 0v11.88h-8.97v-11.88a.3.3 0 1 0-.57 0v11.88h-8.96v-11.88a.3.3 0 1 0-.56 0v11.88h-8.97v-11.88a.3.3 0 1 0-.57 0v11.88h-8.94v-11.88a.3.3 0 1 0-.57 0v11.88h-8.96v-11.88a.3.3 0 1 0-.57 0v11.88h-8.96v-11.88a.3.3 0 1 0-.57 0v11.88h-8.96v-11.88a.3.3 0 1 0-.57 0v11.88h-8.96v-11.88a.3.3 0 1 0-.57 0v11.88h-9.18v-11.88a.3.3 0 1 0-.56 0v11.88h-8.97v-11.88a.3.3 0 1 0-.56 0v11.88h-8.97v-11.88a.3.3 0 1 0-.56 0v11.88h-8.97v-11.88a.3.3 0 1 0-.56 0v11.88h-8.98v-11.88a.3.3 0 1 0-.56 0v11.88h-8.97v-11.88a.3.3 0 1 0-.57 0v11.88h-8.96v-11.88a.3.3 0 1 0-.57 0v11.88h-8.96v-11.88a.3.3 0 1 0-.57 0v11.88h-8.96v-11.88a.3.3 0 1 0-.57 0v11.88h-8.96v-11.88a.3.3 0 1 0-.57 0v11.88h-9.17v-11.88a.3.3 0 1 0-.57 0v11.88h-8.97v-11.88a.3.3 0 1 0-.56 0v11.88h-3.23a.37.37 0 0 0 0 .72h3.23v12.8h-3.23a.37.37 0 0 0 0 .73Zm9.53-.72h-8.97v-12.8h8.97Zm0 13.52h-8.97v-12.8h8.97Zm0 13.52h-8.97v-12.81h8.97Zm9.74-27.05h-9.17v-12.8h9.18Zm0 13.52h-9.17v-12.8h9.18Zm0 13.53h-9.17v-12.81h9.18Zm9.53-27.05h-8.96v-12.8h8.96Zm0 13.52h-8.96v-12.8h8.96Zm0 13.53h-8.96v-12.81h8.96Zm9.53-27.05h-8.96v-12.8h8.96Zm0 13.52h-8.96v-12.8h8.96Zm0 13.53h-8.96v-12.81h8.96Zm9.53-27.05h-8.96v-12.8h8.97Zm0 13.52h-8.96v-12.8h8.97Zm0 13.53h-8.96v-12.81h8.97Zm9.53-27.05h-8.97v-12.8h8.97Zm0 13.52h-8.97v-12.8h8.97Zm0 13.53h-8.97v-12.81h8.97Zm9.53-27.05h-8.96v-12.8h8.96Zm0 13.52h-8.96v-12.8h8.96Zm0 13.53h-8.96v-12.81h8.96Zm9.53-27.05h-8.96v-12.8h8.96Zm0 13.52h-8.96v-12.8h8.96Zm0 13.53h-8.96v-12.81h8.96Zm9.53-27.05h-8.96v-12.8h8.96Zm0 13.52h-8.96v-12.8h8.96Zm0 13.53h-8.96v-12.81h8.96Zm9.53-27.05h-8.96v-12.8h8.96Zm0 13.52h-8.96v-12.8h8.96Zm0 13.53h-8.96v-12.81h8.96Zm9.53-27.05h-8.95v-12.8h8.96Zm0 13.52h-8.95v-12.8h8.96Zm0 13.53h-8.95v-12.81h8.96Zm9.74-27.05h-9.17v-12.8h9.17Zm0 13.52h-9.17v-12.8h9.17Zm0 13.53h-9.17v-12.81h9.17Zm9.54-27.05h-8.97v-12.8h8.97Zm0 13.52h-8.97v-12.8h8.97Zm0 13.53h-8.97v-12.81h8.97Zm9.52-27.05h-8.96v-12.8h8.96Zm0 13.52h-8.96v-12.8h8.96Zm0 13.53h-8.96v-12.81h8.96Zm9.54-27.05h-8.97v-12.8h8.97Zm0 13.52h-8.97v-12.8h8.97Zm0 13.53h-8.97v-12.81h8.97Zm9.53-27.05H248v-12.8h8.97Zm0 13.52H248v-12.8h8.97Zm0 13.53H248v-12.81h8.97Zm9.53-27.05h-8.97v-12.8h8.97Zm0 13.52h-8.97v-12.8h8.97Zm0 13.53h-8.97v-12.81h8.97Zm9.53-27.05h-8.97v-12.8h8.97Zm0 13.52h-8.97v-12.8h8.97Zm0 13.53h-8.97v-12.81h8.97Zm9.52-27.05h-8.96v-12.8h8.96Zm0 13.52h-8.96v-12.8h8.96Zm0 13.53h-8.96v-12.81h8.96Zm9.53-27.05h-8.96v-12.8h8.96Zm0 13.52h-8.96v-12.8h8.96Zm0 13.53h-8.96v-12.81h8.96Zm-8.96 40h8.96v12.8h-8.96Zm0-13.52h8.96v12.8h-8.96Zm0-13.53h8.96v12.8h-8.96Zm0-3.06v-9.17h8.96v11.51h-8.96Zm-9.53 30.1h8.96v12.8h-8.96Zm0-13.51h8.96v12.8h-8.96Zm0-13.53h8.96v12.8h-8.96Zm0-3.06v-9.17h8.96v11.51h-8.96Zm-9.53 30.1h8.96v12.8h-8.96Zm0-13.52h8.96v12.8h-8.96Zm0-13.52h8.96v12.8h-8.96Zm0-3.06v-9.17h8.96v11.51h-8.96Zm-9.54 30.1h8.97v12.8h-8.97Zm0-13.52h8.97v12.8h-8.97Zm0-13.52h8.97v12.8h-8.97Zm0-3.06v-9.17h8.97v11.51h-8.97Zm-9.53 30.1h8.97v12.8H248Zm0-13.52h8.97v12.8H248Zm0-13.52h8.97v12.8H248Zm0-3.06v-9.18h8.97v11.52H248Zm-9.53 30.1h8.97v12.8h-8.97Zm0-13.52h8.97v12.8h-8.97Zm0-13.52h8.97v12.8h-8.97Zm0-3.06v-9.18h8.97v11.52h-8.97Zm-9.53 30.1h8.97v12.8h-8.97Zm0-13.52h8.97v12.8h-8.97Zm0-13.52h8.97v12.8h-8.97Zm0-3.06v-9.18h8.97v11.52h-8.97Zm-9.53 30.1h8.97v12.8h-8.97Zm0-13.52h8.97v12.8h-8.97Zm0-13.52h8.97v12.8h-8.97Zm0-3.06v-9.18h8.97v11.52h-8.97Zm-9.74 30.1h9.18v12.8h-9.18Zm0-13.52h9.18v12.8h-9.18Zm0-13.52h9.18v12.8h-9.18Zm0-3.06v-9.18h9.18v11.52h-9.18Zm-9.5 30.1h8.96v12.8h-8.97Zm0-13.52h8.96v12.8h-8.97Zm0-13.53h8.96v12.8h-8.97Zm0-3.05v-9.18h8.96v11.52h-8.97Zm-9.54 30.1h8.97v12.8h-8.97Zm0-13.52h8.97v12.8h-8.97Zm0-13.53h8.97v12.8h-8.97Zm0-3.06v-9.17h8.97v11.52h-8.97Zm-9.53 30.1h8.96v12.8h-8.96Zm0-13.52h8.96v12.8h-8.96Zm0-13.52h8.96v12.8h-8.96Zm0-3.06v-9.17h8.96v11.52h-8.96Zm-9.54 30.11h8.97v12.8h-8.97Zm0-13.52h8.97v12.8h-8.97Zm0-13.52h8.97v12.8h-8.97Zm0-3.06v-9.17h8.97v11.52h-8.97Zm-9.53 30.1H171v12.8h-8.97Zm0-13.52H171v12.8h-8.97Zm0-13.52H171v12.8h-8.97Zm0-3.06v-9.17H171v11.52h-8.97Zm-9.53 30.1h8.96v12.8h-8.96Zm0-13.52h8.96v12.8h-8.96Zm0-13.52h8.96v12.8h-8.96Zm0-3.06v-9.17h8.96v11.52h-8.96Zm-9.54 30.1h8.96v12.8h-8.96Zm0-13.52h8.96v12.8h-8.96Zm0-13.52h8.96v12.8h-8.96Zm0-3.06v-9.18h8.96v11.53h-8.96Zm-9.53 30.1h8.96v12.8h-8.96Zm0-13.52h8.96v12.8h-8.96Zm0-13.52h8.96v12.8h-8.96Zm0-3.06v-9.2h8.96v11.53h-8.96Zm-9.53 30.1h8.96v12.8h-8.96Zm0-13.52h8.96v12.8h-8.96Zm0-13.52h8.96v12.8h-8.96Zm0-3.06v-9.2h8.96v11.53h-8.96Zm-9.74 30.1h9.17v12.8h-9.17Zm0-13.52h9.17v12.8h-9.17Zm0-13.52h9.17v12.8h-9.17Zm0-3.06v-9.2h9.17v11.53h-9.17Zm-9.53 30.1h8.96v12.8h-8.96Zm0-13.52h8.96v12.8h-8.96Zm0-13.53h8.96v12.8h-8.96Zm0-3.05v-9.2h8.96v11.53h-8.96Z" opacity=".5" />
  <path fill="#f40" d="m115.42 129.57-3-.01-.03-5.9h-1.1l.03 5.89-3-.02.02 3.66 3 .02.06 10.9h1.1l-.06-10.9h3Z" />
  <path fill="#aab6c2" d="m125.36 122.44-3-.02v-2.08h-1.1v2.07l-3-.02.04 8.94 3 .02.05 8.19h1.1l-.05-8.18 3 .02Zm10 4.9-3-.01-.03-4.1h-1.1l.03 4.09-3-.02.12 24.2 3 .02.05 8.88h1.1l-.05-8.87h3Z" />
  <path fill="#f40" d="m145.44 150.28-3-.01-.05-10.04h-1.1l.06 10.03-3-.02.06 12.93 3 .02.06 11.89h1.1l-.07-11.88h3Z" />
  <path fill="#aab6c2" d="m155.46 158.24-3-.02-.03-4.7h-1.09l.02 4.7-3-.02.07 13.72 3 .02.06 11.89h1.1l-.06-11.9 3 .03Zm10 4.46-3-.02-.04-6.22h-1.1l.04 6.2h-3l.05 9.32 3 .02.07 14.9h1.1l-.08-14.9 3 .03Z" />
  <path fill="#f40" d="m175.36 149.5-3-.02-.03-5.07h-1.09l.03 5.07-3-.02.14 27.82h3l.05 10.49h1.1l-.06-10.47 3 .02Zm9.97-.06-3-.02-.06-11.13h-1.09l.06 11.12-3-.01.05 10.3 3 .02.03 5.4h1.1l-.04-5.4 3 .02Zm10.02 9.46-3-.02-.04-8.51h-1.1l.05 8.5-3-.02.06 12.03 3 .02.03 6.22h1.1l-.04-6.22 3 .02Z" />
  <path fill="#aab6c2" d="m205.38 157.38-3-.02-.06-12.27h-1.1l.07 12.27-3-.02.14 27.6 3 .02.08 16.95h1.1l-.09-16.94h3Z" />
  <path fill="#f40" d="M215.42 171.5h-3l-.03-7.04h-1.1l.04 7.03-3-.02.16 31.36h3l.04 8.36h1.1l-.05-8.34 3 .02Z" />
  <path fill="#aab6c2" d="m225.38 168.07-3-.01-.04-7.04h-1.09l.04 7.03-3-.02.07 13.9 3 .03v1.9h1.1v-1.9l3 .03Zm9.86-17.87-3-.01-.03-5.73h-1.1l.04 5.72-3-.02.13 25.64 3 .02.03 7.2h1.1l-.04-7.2 3 .02Zm9.96 4.57-3-.02v-2.13h-1.1l.01 2.12-3-.01.06 11.78 3 .02.03 6.87h1.1l-.04-6.87 3 .02Z" />
  <path fill="#f40" d="m255.1 137.44-3-.01-.05-6.22h-1.09l.03 6.2h-3l.1 19.74h3l.04 6.56h1.1l-.05-6.54 3 .02Zm9.88 9-3-.01-.03-4.75h-1.09l.02 4.74-3-.01.1 19.66 3 .02.1 17.5h1.1l-.1-17.5 3 .03Z" />
  <path fill="#aab6c2" d="m274.87 130.6-3-.01-.02-4.58h-1.1l.03 4.58-3-.01.17 34.1h3l.04 8.47h1.1l-.05-8.45 3 .02Z" />
  <path fill="#f40" d="m284.88 137.46-3-.02-.04-7.04h-1.1l.05 7.03-3-.02.04 7.9 3 .03.03 6.2 1.1.02-.04-6.21h3ZM153.6 324.39h-27.87a8.62 8.62 0 1 1 0-17.23h27.87Z" />
  <path fill="#fa8921" d="M117.16 314.8a8.61 8.61 0 0 1 8.56-7.64h27.87v6.76c-3.34 1.3-7.1 2.8-8.33.9-1.4-2.2-6.03-5.67-6.03-5.67s-8.95-.06-15.02-.06a7.02 7.02 0 0 0-7.05 5.72" />
  <path fill="#fff" d="M144.32 322.3a6.66 6.66 0 1 1 0-13.3h49.56v13.3Z" />
  <path d="M193.52 309.35v12.6h-49.2a6.3 6.3 0 0 1 0-12.6Zm.71-.71h-49.9a7.01 7.01 0 0 0 0 14.03h49.9Z" />
  <path d="M197.2 321.43h-52.48a5.66 5.66 0 0 1 0-11.31h52.46v-2.96h-52.46a8.62 8.62 0 0 0 0 17.23h52.46Z" />
  <path fill="#aab6c2" d="M161.31 292.9h-23.47a5.11 5.11 0 1 1 0-10.22h23.47Z" />
  <path fill="#fff" d="M159.22 291.5a3.8 3.8 0 0 1 0-7.6h37.48v7.6Z" />
  <path d="M196.34 284.27v6.89h-37.12a3.45 3.45 0 0 1 0-6.9Zm.71-.72h-37.83a4.16 4.16 0 0 0 0 8.32h37.83Z" />
  <path d="M198.8 291.14h-39.33a3.36 3.36 0 1 1 0-6.71h39.34v-1.75h-39.34a5.1 5.1 0 1 0 0 10.2h39.34Z" />
  <path fill="#aab6c2" d="M141.56 307.16h42.88a7.14 7.14 0 0 0 0-14.27h-42.88Z" />
  <path d="M184.44 292.89a7.13 7.13 0 0 1 7.14 7.14 6.77 6.77 0 0 1-.05.76 8.68 8.68 0 0 0-7.82-4.9c-5.78-.06-30.7 0-30.7 0l-6.78-3Z" />
  <path fill="#fff" d="M124.56 305.38v-10.91h24.68a5.46 5.46 0 0 1 0 10.9Z" />
  <path d="M149.24 294.83a5.1 5.1 0 0 1 0 10.2h-24.32v-10.2Zm0-.72h-25.02v11.62h25.03a5.81 5.81 0 1 0 0-11.62" />
  <path d="M121.76 304.72h27.14a4.69 4.69 0 1 0 0-9.38h-27.14v-2.45h27.14a7.14 7.14 0 0 1 0 14.27h-27.14Z" />
  <path fill="#fff" d="M333.7 309.1c.64-.93 8.4-.71 8.5-.25.32 1.4 1.05 6.8.37 7.56-.66.75-6.62 3.63-6.86 2.27-.2-1.18-2.65-8.66-2.02-9.57" />
  <path d="M336.34 319.39a1.46 1.46 0 0 1-.4-.05.75.75 0 0 1-.58-.6c-.05-.3-.28-1.1-.55-2.04-1.3-4.64-1.88-7.11-1.4-7.8.73-1.07 6.95-.85 8.4-.57.32.06.66.15.73.44.13.55 1.24 6.83.3 7.88-.6.68-4.72 2.74-6.5 2.74m-2.36-10.07c-.33.62.96 5.22 1.52 7.19.3 1.03.5 1.77.56 2.1 0 .02.07.06.31.08 1.55 0 5.48-2 5.93-2.5.48-.53.01-5.15-.42-7.12-1.08-.38-7.36-.36-7.9.25" />
  <path d="M343 314.73s3.78 5.16 1.51 9.32c0 0-14.85.77-20.5.28 0 0-3.82-4.74.93-5.65s9.3-2.1 9.3-2.1 5.54 2.15 8.76-1.86" />
  <path fill="#fff" d="M306.58 309.26c.72-.9 8.42-.1 8.5.37.23 1.42.55 6.86-.19 7.57-.7.7-8.4.62-8.55-.76-.12-1.2-.45-6.33.25-7.18" />
  <path d="M311.67 317.99a16.03 16.03 0 0 1-4.67-.57c-.24-.08-.96-.35-1.02-.94 0-.07-.58-6.33.32-7.44.83-1.02 7.02-.34 8.42.04.33.09.66.2.7.5.16.94.67 6.96-.29 7.89-.36.35-1.83.52-3.47.52m-4.8-8.5c-.5.62-.38 4.9-.18 6.92 0 .03.1.15.44.3 1.93.8 7.02.65 7.52.25.51-.5.4-5.14.1-7.13-1.05-.46-7.32-.91-7.89-.34" />
  <path d="M315.45 315.55s3.52 5.12.95 9.1c0 0-15-.03-20.6-.95 0 0-3.47-5.01 1.34-5.56s9.42-1.4 9.42-1.4 5.37 2.57 8.9-1.2m-11.12-4.4 5.32.55 7.03.72.02-.02a.46.46 0 0 1 .07-.18s0-.01.03-.03c.61-1.38-.06-12.88-.13-22.43-.05-11.9 5.13-28.65 5.98-40.34l.23-2.72c.47-5.87 5.1-17.17 8.87-26.87.55-1.41 1.1-2.8 1.58-4.1 2.44-6.52 4.08-11.7 3.05-12.86-2.69-3.06-17.85-25.35-26.99-15.06-10.44 11.8-12.17 42.57-12.17 59.17s4.46 47.58 7.1 64.18" />
  <path d="m309.67 311.69 7.02.72.02-.02a.45.45 0 0 1 .07-.18s0-.01.03-.03c.73-1.24.31-8.9 1.91-23.74a2031 2031 0 0 0 3.94-39.03l.23-2.72c.47-5.87 5.1-17.17 8.87-26.87.54-1.41 1.1-2.8 1.58-4.1-.1-.07-.2-.12-.28-.2a.86.86 0 0 0-.84-.06c-2.34-3.13-7.4-6.2-10.06-1.64-1.5 2.55.2 5.55.36 8.19.33 5.33-3.04 10.1-5.12 14.78-7.4 16.63-1.4 34.97-3.42 52.35-1.05 9.1-5.03 13.26-4.3 22.55" />
  <path d="M327.8 255.37c-.18 16.6-.69 44.63 6.07 57.57 0 0 9.4.16 9.58-.73 1.23-5.74 2.34-22.48 3.6-33.5 2.87-24.84 3.3-19.38 4.6-30.26 2.56-21.9 9.47-32.13 5.97-48.84a59.15 59.15 0 0 0-.88-3.6c-.82-2.91-5.2-8.04-6.72-11.47-.22-.48-13.74-.4-20.4 5.17-.7.58-1.59 39.89-1.84 65.66M358.9 130.8c-1.84.22-6.03 1.34-7.8-2.16-.67-1.31-.75-3.61-.89-5.17a54.9 54.9 0 0 0-.65-6.6c-.56-2.7-1.67-5.57-3.98-7.24-3.65-2.64-10.57-.66-12.52 3.3a.79.79 0 0 0 .2.98.76.76 0 0 0 .1.2c2.23 2.62 4.82 2.7 5.67 6.94.43 2.18-.14 4.47-.1 6.67.1 4.02 1.62 8.49 5.07 10.87 5.53 3.82 14.86-.7 16.24-6.9.18-.8-.72-1.2-1.35-.9" />
  <path fill="#fff" d="M293.14 115.92a10.5 10.5 0 0 1 .8 3.97 4.86 4.86 0 0 1 .11.49 5.15 5.15 0 0 1 .43-.31c.95-.54 2.6-.75 3.2.42.65 1.25-.93 2.2-1.66 2.94a9.57 9.57 0 0 0-2.17 2.95 16.3 16.3 0 0 0-.44 3.52c-.07.84 0 2.2-.77 2.8a4.45 4.45 0 0 1-2.74.48c-.95-.15-1.46-.93-1.9-1.7a8.96 8.96 0 0 1-.83-2.13 7.36 7.36 0 0 1-.6-4.08 5.3 5.3 0 0 1 .26-.87 7.04 7.04 0 0 1-.8-3.77.86.86 0 0 1 1.13-.76 1.63 1.63 0 0 1 .33-.74 1.2 1.2 0 0 1 .8-.4 2.89 2.89 0 0 1 .44-.72 2.31 2.31 0 0 1 2.37-.77 11.17 11.17 0 0 0-2.9-3.06.92.92 0 0 1 .16-1.56c1.92-1.1 4.13 1.78 4.8 3.3" />
  <path d="M290.5 133.57a4.43 4.43 0 0 1-.65-.04 3.15 3.15 0 0 1-2.16-1.88 9.26 9.26 0 0 1-.87-2.22 7.69 7.69 0 0 1-.6-4.22 5.33 5.33 0 0 1 .21-.78 7.39 7.39 0 0 1-.76-3.82 1.17 1.17 0 0 1 .48-.9 1.28 1.28 0 0 1 .74-.22 1.82 1.82 0 0 1 .33-.6 1.48 1.48 0 0 1 .82-.47 3.06 3.06 0 0 1 .41-.64 2.73 2.73 0 0 1 1.93-.97 12.01 12.01 0 0 0-2.4-2.34 1.24 1.24 0 0 1-.5-1.07 1.35 1.35 0 0 1 .7-1.08 2.2 2.2 0 0 1 1.86-.15c1.6.53 2.95 2.5 3.44 3.6a10.79 10.79 0 0 1 .8 4h.03a3.47 3.47 0 0 1 2.55-.38 1.86 1.86 0 0 1 1.15.95c.65 1.26-.5 2.27-1.28 2.94a9.19 9.19 0 0 0-.46.4 9.43 9.43 0 0 0-2.09 2.84 10.55 10.55 0 0 0-.35 2.5 33.98 33.98 0 0 1-.08 1.35c-.05.86-.1 2.03-.89 2.62a4.36 4.36 0 0 1-2.36.59m-3.6-13.38a.56.56 0 0 0-.33.1.45.45 0 0 0-.18.36 6.69 6.69 0 0 0 .75 3.58l.08.14-.06.15a5.13 5.13 0 0 0-.24.8 7.13 7.13 0 0 0 .6 3.89 8.82 8.82 0 0 0 .8 2.08c.41.74.85 1.4 1.64 1.53a4.18 4.18 0 0 0 2.47-.41c.52-.4.57-1.33.6-2.1l.03-.45.06-.88a11.18 11.18 0 0 1 .4-2.71 10.06 10.06 0 0 1 2.25-3.1c.14-.14.3-.28.5-.44.87-.77 1.47-1.37 1.1-2.08a1.15 1.15 0 0 0-.72-.6 2.79 2.79 0 0 0-2 .32 1.84 1.84 0 0 0-.23.17l-.16.12-.4.3-.15-.5a2.71 2.71 0 0 1-.05-.21 1.53 1.53 0 0 0-.07-.24l-.02-.12a10.17 10.17 0 0 0-.76-3.84 6.4 6.4 0 0 0-3-3.21 1.5 1.5 0 0 0-1.28.1.65.65 0 0 0-.35.5.52.52 0 0 0 .23.46 11.33 11.33 0 0 1 3 3.16l.44.76-.85-.24a1.96 1.96 0 0 0-2 .67 2.57 2.57 0 0 0-.39.63l-.08.18-.2.03a.83.83 0 0 0-.57.27 1.31 1.31 0 0 0-.26.58l-.08.37-.36-.1a.67.67 0 0 0-.17-.01" />
  <path fill="#aab6c2" d="M290.12 159.93c-5.3-9.83-2.94-29.65-2.94-29.65l6.67-.05c.2.36 4.8 22.22 7.75 21.4 1.3-.33 13.15-17.96 27.31-13.27 3.04 1 2.13 1.15 1.45 4.27-1.38 6.32-10.12 17.86-18.59 22.5-9.97 5.48-16.64 4.09-21.65-5.2" />
  <path d="M311.32 151.02s-.4 7.95 2.65 12.76c0 0 4.75-2.83 6.17-5.96s-8.82-6.8-8.82-6.8" />
  <path fill="#aab6c2" d="M359.18 193.03a32.95 32.95 0 0 1-9.48 3.4c-19.64 3.92-45.3-5.58-45.3-5.58s5.64-8.52 10.37-17.48c.46-.83.87-1.65 1.3-2.48 2.07-4.13 1.62-6.83.36-9.24-1.7-3.33-4.94-6.05-5.15-11.1-.35-8.72 18.22-16 18.22-16 27.84-1.66 21.26 14.67 18.6 27.9a46.67 46.67 0 0 0-.6 3.5 20.09 20.09 0 0 0-.14 1.74c-.5 13.02 11.81 25.35 11.81 25.35" />
  <path d="m347.37 167.69.05-.68a13 13 0 0 1 .1-1.06c.13-1.13 3-13.74 3.12-16.87-.75-1.41-3.2 8.17-5.12 6.39-5.07-4.8-4.43-17.02-4.43-17.02-1.15 5.87-2.08 17.4-.12 21 .43.78 1.91 3.75 2 3.89 1.43 4.42.38 8.86.61 13.38.21 3.98 1.6 7.67 3.04 11.35.77 1.94 1.6 6.17 3.07 8.36a32.95 32.95 0 0 0 9.5-3.4s-12.3-12.33-11.8-25.34" />
  <path fill="#fff" d="M326.61 130.77v4.93s-1.33 2.43 0 2.7c2.9.57 7.11-3.97 7.11-3.97v-6.6Z" />
  <path d="M327.14 138.8a3.13 3.13 0 0 1-.6-.06 1.02 1.02 0 0 1-.76-.57c-.37-.8.28-2.18.47-2.56v-5.07l7.83-3.25v7.29l-.1.1c-.16.18-3.85 4.12-6.84 4.12m-.17-7.8-.05 4.87c-.32.58-.68 1.6-.49 2a.3.3 0 0 0 .25.17c2.46.5 6.06-3.1 6.7-3.75v-5.93Z" />
  <path fill="#fff" d="M324.86 116.4a39.04 39.04 0 0 0-3.28 10.26c-.46 3.52 5.97 8.15 11.21 3.2s3.8-12.52 3.8-12.52Z" />
  <path d="M327.75 132.38a7.03 7.03 0 0 1-3.2-.8c-2.2-1.11-3.56-3.16-3.32-4.97a39.8 39.8 0 0 1 3.31-10.37l.1-.22 12.24 1 .05.26c.02.07 1.43 7.82-3.9 12.84a7.7 7.7 0 0 1-5.28 2.26m-2.67-15.61a38.34 38.34 0 0 0-3.14 9.94c-.2 1.49 1.03 3.27 2.93 4.24a6.54 6.54 0 0 0 7.68-1.35c4.5-4.24 3.9-10.56 3.72-11.92Z" />
  <path d="M322.33 116.2c.36-.21.82-.22 1.17-.44 1.07-.7.62-1.01 1.24-1.7a4.28 4.28 0 0 1 1.78-1.24 10.56 10.56 0 0 1 6.04.03.73.73 0 0 1 .46 1.14 8.93 8.93 0 0 1 4.8 3.43 9.03 9.03 0 0 1 .17 9.07c-1.29 1.97-3.7 3.58-5 .97-1-2-.85-3.85-.69-5.98a9.84 9.84 0 0 0 0-2.04 5.2 5.2 0 0 0-4-2.4c-.4.4-.74 1-1.1 1.39a5.72 5.72 0 0 1-2 1.38c-1.16.49-2.78.6-3.59-.6a2.1 2.1 0 0 1 .73-3" />
  <path fill="#fff" d="M331.8 122.02s2.1-.98 2.52.7a1.8 1.8 0 0 1-1.93 2.4c-.8-.32-1.09-2.4-.6-3.1" />
  <path d="M332.72 125.53a1.27 1.27 0 0 1-.46-.08 1.7 1.7 0 0 1-.9-1.17 3.25 3.25 0 0 1 .14-2.46l.06-.08.08-.04a2.95 2.95 0 0 1 2.2-.15 1.57 1.57 0 0 1 .83 1.1A2.3 2.3 0 0 1 334 125a1.98 1.98 0 0 1-1.28.52m-.67-3.22a2.8 2.8 0 0 0 0 1.76 1.12 1.12 0 0 0 .47.72 1.1 1.1 0 0 0 1-.32 1.6 1.6 0 0 0 .46-1.65.87.87 0 0 0-.44-.62 2.12 2.12 0 0 0-1.49.1" />
  <path fill="#f40" d="M337.8 116.2c-.8-2.1-2.74-3.18-4.77-3.9-1.04-.38-1.78 1.2-.72 1.59 1.54.55 3.22 1.26 3.84 2.9a.88.88 0 0 0 1.65-.58" />
  <path fill-rule="evenodd" d="M329.68 161.17a3.99 3.99 0 1 0 4.58-3.3 3.99 3.99 0 0 0-4.58 3.3m1.4.22a2.58 2.58 0 1 1 2.12 2.96 2.58 2.58 0 0 1-2.13-2.96" />
  <path fill="#f40" fill-rule="evenodd" d="m319.66 193.25 17.15 2.8a3.2 3.2 0 0 0 3.68-2.64l4.35-26.5a3.21 3.21 0 0 0-2.65-3.7l-17.14-2.8a3.21 3.21 0 0 0-3.7 2.64l-4.34 26.52a3.21 3.21 0 0 0 2.65 3.69" />
  <path fill="#fff" d="M324.13 178.72c-.96-1.24.4-5.92.38-5.95 2.96.6 6.56.56 7.6 1.89.47.63-1.88 4.5-2.07 4.44-.44-.13-5.86-.32-5.9-.38" />
  <path d="M330.05 179.46a.37.37 0 0 1-.1-.02 54.5 54.5 0 0 0-3.64-.23c-2.33-.12-2.34-.12-2.46-.27-.8-1.04-.3-3.9.28-6.13v-.01l-.2-.5.64.12c.87.18 1.8.3 2.7.42 2.3.3 4.3.55 5.1 1.6.7.9-1.66 4.43-1.7 4.46-.2.3-.37.56-.62.56m-5.7-1.07c.32.03 1.2.07 2 .1 2.04.1 3.12.17 3.6.23.5-.6 2.01-3.35 1.84-3.86-.62-.8-2.56-1.05-4.62-1.32-.8-.1-1.62-.2-2.4-.35-.66 2.58-.8 4.49-.44 5.2" />
  <path fill="#aab6c2" d="M367.11 181.32c4.77-11.01-2.17-26.8-5.17-32.22-4.25-7.7-15.68-15.54-20.43-11.57-1.83 1.52-.86 6-.56 7.36 2.4 11.23 10.72 27.23 10.63 29.52-.1 2.8-19.6-4-21.17-1.84 0 0-3.5 7-2.1 8.04 0 0 29.81 21.38 38.8.7" />
  <path fill="#fff" d="M317.98 176.23a1.57 1.57 0 0 1-.07-1.76 1.7 1.7 0 0 1 .16-.18 1.17 1.17 0 0 1-.3-1.35 1.53 1.53 0 0 1 1.11-.83 1.3 1.3 0 0 1 .05-.45c.57-2.02 3.87-.08 4.94.33a.71.71 0 0 1 .5.7 1.98 1.98 0 0 1 .25.2c.98 1.04 1 3.18.53 4.43a3.42 3.42 0 0 1-3.83 2.13c-1.2-.13-3.72-.55-3.94-2.07a.97.97 0 0 1 .6-1.15" />
  <path d="M321.86 179.83a5.71 5.71 0 0 1-.58-.03c-1.8-.2-4.02-.75-4.26-2.37a1.34 1.34 0 0 1 .48-1.34 1.83 1.83 0 0 1 .1-1.8 1.45 1.45 0 0 1-.16-1.5 1.77 1.77 0 0 1 1.1-.95 1.67 1.67 0 0 1 .05-.3 1.5 1.5 0 0 1 .8-1c1.1-.5 2.8.3 3.95.82l.66.29a1.07 1.07 0 0 1 .71.84 1.3 1.3 0 0 1 .17.15c1.06 1.13 1.14 3.37.6 4.8a3.65 3.65 0 0 1-3.62 2.39m-1.65-8.73a1.22 1.22 0 0 0-.5.1.79.79 0 0 0-.44.55.93.93 0 0 0-.03.33l.02.3-.3.07a1.18 1.18 0 0 0-.87.63.8.8 0 0 0 .24.97l.22.23-.2.24-.1.1a1.2 1.2 0 0 0 .03 1.43l.22.35-.38.16a.63.63 0 0 0-.4.78c.2 1.26 2.6 1.65 3.63 1.76a3.03 3.03 0 0 0 3.46-1.9c.45-1.21.38-3.18-.45-4.07a.88.88 0 0 0-.14-.1l-.15-.11-.06-.23a.36.36 0 0 0-.27-.37l-.7-.3a8.28 8.28 0 0 0-2.83-.91" />
  <path fill="#fff" d="M320.2 168.58a3.96 3.96 0 0 1 3.47.36 11.04 11.04 0 0 1 2.64 4.05c.58.34-.18.33-1.05.5-1.04.2-2.25 0-2.54-1.18-.13-.52 0-1-.42-1.44a3.1 3.1 0 0 0-1.94-.62.88.88 0 0 1-.16-1.67" />
  <path d="M324.56 173.92a2.07 2.07 0 0 1-2.19-1.52 3.52 3.52 0 0 1-.07-.54 1.04 1.04 0 0 0-.25-.73 2.8 2.8 0 0 0-1.72-.53 1.17 1.17 0 0 1-1.03-1.1 1.14 1.14 0 0 1 .8-1.26 4.3 4.3 0 0 1 3.77.4 11.17 11.17 0 0 1 2.73 4.1.5.5 0 0 1 .26.5c-.07.36-.4.4-.98.5l-.55.1a3.84 3.84 0 0 1-.77.08m-2.85-5.22a5.1 5.1 0 0 0-1.4.22.45.45 0 0 0-.3.5.46.46 0 0 0 .38.47 3.36 3.36 0 0 1 2.16.73 1.7 1.7 0 0 1 .45 1.17 2.76 2.76 0 0 0 .06.43c.3 1.18 1.7 1 2.12.92.21-.04.4-.08.6-.1l.16-.03a10.75 10.75 0 0 0-2.47-3.8 3.02 3.02 0 0 0-1.77-.52" />
  <path fill="#fff" d="M327.04 173.43a1.59 1.59 0 0 1-1.24-.97 2.4 2.4 0 0 0-2.87-.85c-.42.29-.8-.21-1.53-.37s0 2.55 0 2.55l2.2 5a3.24 3.24 0 0 1 1.6-.27c1.06.04 2.4-3.91 2.4-3.91Z" />
  <path fill="#aab6c2" d="M340.9 142.97s-.42-.67-.53.24-2.94 1.19-2.96.72-.67-2.06-.02-3.35.98-1.64 1.45-2.58.67-1.2.9-1.3 3.4-.62 3.4-.62l4.71 1.18s-2.17 3.18-2.19 3.25-4.76 2.46-4.76 2.46" />
  <path fill="#fff" d="m332.3 121.48.11 2.73-.05.56a.8.8 0 0 0-.06.6c.1.43-2.3.52-2.3.52a3.97 3.97 0 0 1-.64-2.2c.07-1.2.06-2.11.51-2.51s.54-.8 1.15-.58 1.14.48 1.14.48Z" />
  <path d="m325.44 196.43 2.96.43 1.78 16.5-2.78-1.57Zm-70.38 100.2c-7.74-.24-15.22-6.74-17.83-16.22-2.6-9.41.43-18.76 6.86-23l-.19-.65 4.2-1.15c9.07-2.5 18.94 4.53 22.03 15.73s-1.78 22.3-10.86 24.8l-4 1.2Z" />
  <path fill="#f40" d="M233.04 281.56c3.1 11.2 13.14 18.3 22.22 15.8s13.77-13.68 10.68-24.87-12.95-18.24-22.04-15.73-13.94 13.6-10.86 24.8" />
  <path fill="#f40" d="M235.98 280.76c2.54 9.2 10.8 15.03 18.25 12.98s11.31-11.23 8.78-20.43-10.64-14.97-18.1-12.92-11.46 11.18-8.92 20.38" />
  <path d="M256.5 277.95a4.55 4.55 0 0 0-.8-1.27 4.47 4.47 0 0 0-1.06-.87 5.75 5.75 0 0 0-1.29-.53 9.83 9.83 0 0 0-1.43-.27 13.68 13.68 0 0 0-1.53-.1 74.51 74.51 0 0 0-1.57-.02l-2.62-6.17a3.73 3.73 0 0 1 2.13.08 4.74 4.74 0 0 1 1.84 1.33l2.21-.95a6.58 6.58 0 0 0-1.5-1.68 5.56 5.56 0 0 0-1.75-.94 5.92 5.92 0 0 0-1.9-.28 7.5 7.5 0 0 0-1.95.28l-.84-2-2.24.97.84 1.98a7.28 7.28 0 0 0-1.63 1.34 6.3 6.3 0 0 0-1.09 1.67 5.11 5.11 0 0 0-.44 1.86 3.86 3.86 0 0 0 0 .44 4.43 4.43 0 0 0 .35 1.46 4.9 4.9 0 0 0 .32.62 3.9 3.9 0 0 0 .87 1.05 5.04 5.04 0 0 0 1.67.93 8.05 8.05 0 0 0 .9.24 35.2 35.2 0 0 0 1 .15h.1c.7.07 1.41.1 2.14.12l2.2 5.2.1.22.1.22.45 1.07a3.84 3.84 0 0 1-1.26-.1 3.97 3.97 0 0 1-.86-.32c-.1-.04-.18-.1-.27-.14l-.07-.04a2.36 2.36 0 0 1-.18-.12 5.59 5.59 0 0 1-.9-.74 6.59 6.59 0 0 1-.94-1.16l-2.35 1a8.78 8.78 0 0 0 1.4 1.73.16.16 0 0 0 .05.05c.03.05.08.08.11.12h.02a.35.35 0 0 1 .05.06 1.17 1.17 0 0 0 .14.12.41.41 0 0 0 .06.05 7.74 7.74 0 0 0 1.64 1.08c.16.08.32.15.47.2a1.46 1.46 0 0 0 .26.1 2.49 2.49 0 0 0 .27.1 6.64 6.64 0 0 0 1.12.28 6.39 6.39 0 0 0 2.2-.03l1.34 3.14 2.23-.95-1.3-3.1a9.17 9.17 0 0 0 1.75-1.28 6.34 6.34 0 0 0 1.31-1.73 5.25 5.25 0 0 0 .58-2.1 5.09 5.09 0 0 0-.46-2.37m-13.96-4.74a2.4 2.4 0 0 1-.03-1.86 3.44 3.44 0 0 1 1.47-1.65l2.24 5.29a11.48 11.48 0 0 1-1.23-.13 4.56 4.56 0 0 1-1.06-.3 3 3 0 0 1-.83-.53 2.31 2.31 0 0 1-.56-.82m11.9 6.94a3.05 3.05 0 0 1-.24 1.15 3.92 3.92 0 0 1-.68 1.08 4.8 4.8 0 0 1-1.12.9l-2.53-5.94a13.56 13.56 0 0 1 1.4.1 6.1 6.1 0 0 1 1.27.26 3.46 3.46 0 0 1 1.02.49 1.9 1.9 0 0 1 .64.8 3.02 3.02 0 0 1 .24 1.15" />
  <path d="M256.47 293.06a11.7 11.7 0 0 1-2.19.85 13.05 13.05 0 0 1-11.12-2.3 20.33 20.33 0 0 1-6.63-23.78 12.92 12.92 0 0 1 8.33-7.6c7.54-2.1 15.76 3.76 18.32 13.04a19.85 19.85 0 0 1-.65 13 13.25 13.25 0 0 1-6.06 6.79m-20.32-12.34a19.19 19.19 0 0 0 7.21 10.6 12.7 12.7 0 0 0 10.83 2.25 12.4 12.4 0 0 0 8.02-7.44 19.5 19.5 0 0 0 .63-12.77c-2.5-9.1-10.53-14.83-17.89-12.8a12.58 12.58 0 0 0-8.1 7.4 19.18 19.18 0 0 0-.7 12.76m-169.1-86.3c-4.18-3.87-5.18-11.07-2.06-17.6 3.1-6.45 9.28-10.17 14.88-9.41l.22-.46 2.87 1.38c6.24 3 8.31 11.66 4.62 19.35s-11.73 11.49-17.97 8.5l-2.8-1.26Z" />
  <path fill="#f40" d="M62.12 175.45c-3.7 7.7-1.56 16.47 4.68 19.47s14.22-.94 17.9-8.63 1.63-16.34-4.6-19.34-14.3.8-17.99 8.5" />
  <path fill="#f40" d="M64.12 176.43c-3.02 6.3-1.27 13.52 3.86 15.98s11.68-.76 14.7-7.08 1.34-13.42-3.79-15.88-11.73.66-14.76 6.98" />
  <path d="M76.84 184.76a3.34 3.34 0 0 0 .18-1.1 3.28 3.28 0 0 0-.17-.98 4.23 4.23 0 0 0-.46-.91 7.3 7.3 0 0 0-.66-.84 10.17 10.17 0 0 0-.8-.8 70.14 70.14 0 0 0-.86-.76l1.52-4.7a2.75 2.75 0 0 1 1.14 1.09 3.48 3.48 0 0 1 .38 1.62l1.68.54a4.78 4.78 0 0 0-.02-1.65 4.1 4.1 0 0 0-.5-1.36 4.3 4.3 0 0 0-.93-1.08 5.56 5.56 0 0 0-1.22-.8l.5-1.5-1.7-.53-.49 1.5a5.4 5.4 0 0 0-1.55-.04 4.7 4.7 0 0 0-1.4.4 3.73 3.73 0 0 0-1.15.8 2.96 2.96 0 0 0-.2.26 3.32 3.32 0 0 0-.5.98 3.55 3.55 0 0 0-.14.5 2.83 2.83 0 0 0-.02 1 3.69 3.69 0 0 0 .47 1.3 6.31 6.31 0 0 0 .38.59l.22.27.26.29.04.04c.37.37.75.74 1.14 1.1l-1.28 3.94-.05.18-.05.17-.26.8a2.8 2.8 0 0 1-.66-.66 2.93 2.93 0 0 1-.32-.6 2.22 2.22 0 0 1-.08-.2l-.02-.05-.04-.16a4.18 4.18 0 0 1-.14-.84 4.83 4.83 0 0 1 .04-1.1l-1.79-.58a6.48 6.48 0 0 0-.06 1.64.12.12 0 0 0 0 .05l.01.12a.28.28 0 0 1 0 .06.65.65 0 0 0 .03.13.26.26 0 0 0 0 .06 5.72 5.72 0 0 0 .4 1.4 3.7 3.7 0 0 0 .15.33.98.98 0 0 0 .1.19 1.77 1.77 0 0 0 .1.18 4.92 4.92 0 0 0 .5.69 4.68 4.68 0 0 0 1.23 1.04l-.78 2.38 1.7.55.77-2.34a6.77 6.77 0 0 0 1.6.14 4.6 4.6 0 0 0 1.55-.33 3.86 3.86 0 0 0 1.32-.88 3.75 3.75 0 0 0 .9-1.54m-5.44-9.35a1.76 1.76 0 0 1 .88-1.05 2.54 2.54 0 0 1 1.61-.2l-1.3 4a8.35 8.35 0 0 1-.63-.66 3.26 3.26 0 0 1-.44-.68 2.15 2.15 0 0 1-.2-.7 1.7 1.7 0 0 1 .08-.71m3.25 9.58a2.25 2.25 0 0 1-.69.52 2.92 2.92 0 0 1-.9.27 3.5 3.5 0 0 1-1.06-.04l1.48-4.52a9.83 9.83 0 0 1 .73.74 4.6 4.6 0 0 1 .57.76 2.57 2.57 0 0 1 .33.76 1.42 1.42 0 0 1-.03.76 2.2 2.2 0 0 1-.42.75" />
  <path d="M69.54 193.1a8.57 8.57 0 0 1-1.62-.57 9.58 9.58 0 0 1-5.05-6.63 14.92 14.92 0 0 1 7.8-16.37 9.48 9.48 0 0 1 8.28-.2c5.18 2.49 6.9 9.69 3.85 16.06a14.58 14.58 0 0 1-6.62 6.89 9.74 9.74 0 0 1-6.64.83m-5.3-16.63a14.1 14.1 0 0 0-1.12 9.36 9.34 9.34 0 0 0 4.92 6.46 9.1 9.1 0 0 0 8.03-.25 14.33 14.33 0 0 0 6.5-6.77c3-6.24 1.32-13.3-3.73-15.72a9.23 9.23 0 0 0-8.06.2 14.08 14.08 0 0 0-6.54 6.72M214.7 60.95c6.68-5.96 8.5-17.27 3.8-27.62C213.8 23.05 204.18 17 195.34 18l-.33-.73-4.57 2.09c-9.93 4.5-13.46 18.08-7.9 30.3s18.11 18.48 28.03 13.96l4.46-1.9Z" />
  <path fill="#f40" d="M223.05 31.25c5.56 12.22 1.92 25.98-8 30.5s-22.36-1.93-27.93-14.15-2.02-25.8 7.9-30.31 22.47 1.73 28.03 13.96" />
  <path fill="#f40" d="M219.85 32.72c4.56 10.04 1.57 21.34-6.58 25.04s-18.37-1.57-22.93-11.62-1.67-21.18 6.48-24.9 18.46 1.44 23.03 11.48" />
  <path d="M211.84 45.43a5.27 5.27 0 0 0 .25-1.72 5.12 5.12 0 0 0-.3-1.55 6.63 6.63 0 0 0-.75-1.43 11.42 11.42 0 0 0-1.07-1.3 16.01 16.01 0 0 0-1.28-1.22c-.45-.4-.9-.8-1.38-1.18l2.25-7.43a4.31 4.31 0 0 1 1.82 1.65 5.48 5.48 0 0 1 .66 2.55l2.66.8a7.59 7.59 0 0 0-.08-2.6 6.47 6.47 0 0 0-.85-2.13 6.86 6.86 0 0 0-1.48-1.67 8.68 8.68 0 0 0-1.94-1.2l.73-2.38-2.7-.82-.72 2.4a8.45 8.45 0 0 0-2.45-.02 7.26 7.26 0 0 0-2.2.66 5.86 5.86 0 0 0-1.77 1.33 4.66 4.66 0 0 0-.33.4 5.17 5.17 0 0 0-.76 1.55 5.62 5.62 0 0 0-.19.79 4.48 4.48 0 0 0 0 1.58 5.82 5.82 0 0 0 .8 2.05 9.19 9.19 0 0 0 .61.9l.36.42.4.44.08.08c.6.57 1.2 1.14 1.84 1.7l-1.9 6.24-.07.27-.08.27-.4 1.29a4.46 4.46 0 0 1-1.04-1.03 4.5 4.5 0 0 1-.53-.92l-.13-.33c-.02-.02-.02-.05-.03-.07l-.08-.25a6.38 6.38 0 0 1-.25-1.33 7.55 7.55 0 0 1 .03-1.73l-2.83-.86a10.14 10.14 0 0 0-.05 2.58.18.18 0 0 0 0 .08l.03.18v.02a.34.34 0 0 1 0 .1 1.37 1.37 0 0 0 .05.2.4.4 0 0 0 .01.09 8.91 8.91 0 0 0 .66 2.18l.26.53a1.78 1.78 0 0 0 .16.28 2.89 2.89 0 0 0 .16.29 7.72 7.72 0 0 0 .8 1.07 7.42 7.42 0 0 0 1.97 1.6l-1.15 3.78 2.7.8 1.12-3.7a10.58 10.58 0 0 0 2.52.15 7.29 7.29 0 0 0 2.44-.56 6.05 6.05 0 0 0 2.06-1.42 5.9 5.9 0 0 0 1.36-2.45m-8.87-14.56a2.76 2.76 0 0 1 1.35-1.67 3.98 3.98 0 0 1 2.54-.38l-1.94 6.36a12.98 12.98 0 0 1-1-1.04 5.31 5.31 0 0 1-.7-1.05 3.42 3.42 0 0 1-.36-1.08 2.63 2.63 0 0 1 .11-1.14m5.42 14.98a3.5 3.5 0 0 1-1.06.85 4.53 4.53 0 0 1-1.42.45 5.56 5.56 0 0 1-1.67-.02l2.17-7.17a15.25 15.25 0 0 1 1.18 1.14 7.12 7.12 0 0 1 .93 1.17 4 4 0 0 1 .54 1.2 2.23 2.23 0 0 1-.03 1.18 3.48 3.48 0 0 1-.64 1.2" />
  <path d="M200.37 57.29a22.94 22.94 0 0 1-10.22-11.06c-4.6-10.13-1.65-21.41 6.6-25.16a14.95 14.95 0 0 1 13.02.58 22.6 22.6 0 0 1 10.26 10.98 22.61 22.61 0 0 1 1.5 15.04 15.1 15.1 0 0 1-8.18 10.27 13.61 13.61 0 0 1-2.57.87 15.34 15.34 0 0 1-10.4-1.52m19.3-24.5A22.17 22.17 0 0 0 209.58 22a14.54 14.54 0 0 0-12.68-.57c-8.04 3.65-10.9 14.7-6.39 24.62a22.55 22.55 0 0 0 10.03 10.87 14.34 14.34 0 0 0 12.64.65 14.7 14.7 0 0 0 7.94-10.02 22.2 22.2 0 0 0-1.47-14.76" />
</svg>